G04 #@! TF.GenerationSoftware,KiCad,Pcbnew,(6.0.10)*
G04 #@! TF.CreationDate,2023-01-23T22:24:19-05:00*
G04 #@! TF.ProjectId,umidi,756d6964-692e-46b6-9963-61645f706362,rev?*
G04 #@! TF.SameCoordinates,Original*
G04 #@! TF.FileFunction,Profile,NP*
%FSLAX46Y46*%
G04 Gerber Fmt 4.6, Leading zero omitted, Abs format (unit mm)*
G04 Created by KiCad (PCBNEW (6.0.10)) date 2023-01-23 22:24:19*
%MOMM*%
%LPD*%
G01*
G04 APERTURE LIST*
G04 #@! TA.AperFunction,Profile*
%ADD10C,0.200000*%
G04 #@! TD*
G04 APERTURE END LIST*
D10*
X152795000Y-36041200D02*
X122795000Y-36041200D01*
X152795000Y-164541200D02*
X152795000Y-36041200D01*
X122795000Y-164541200D02*
X152795000Y-164541200D01*
X122795000Y-36041200D02*
X122795000Y-164541200D01*
X131820000Y-163091200D02*
G75*
G03*
X131820000Y-159991200I0J1550000D01*
G01*
X128530000Y-159991200D02*
X131820000Y-159991200D01*
X128530000Y-159991200D02*
G75*
G03*
X128530000Y-163091200I0J-1550000D01*
G01*
X131820000Y-163091200D02*
X128530000Y-163091200D01*
X128530000Y-37491200D02*
G75*
G03*
X128530000Y-40591200I0J-1550000D01*
G01*
X131820000Y-40591200D02*
X128530000Y-40591200D01*
X131820000Y-40591200D02*
G75*
G03*
X131820000Y-37491200I0J1550000D01*
G01*
X128530000Y-37491200D02*
X131820000Y-37491200D01*
X138995000Y-74871200D02*
X126645000Y-74871200D01*
X138995000Y-64141200D02*
X138995000Y-74871200D01*
X126645000Y-64141200D02*
X138995000Y-64141200D01*
X126645000Y-74871200D02*
X126645000Y-64141200D01*
X140245000Y-52371200D02*
G75*
G03*
X140245000Y-52371200I-7450000J0D01*
G01*
X147955000Y-118313200D02*
G75*
G03*
X147955000Y-118313200I-3175000J0D01*
G01*
X133985000Y-87325200D02*
G75*
G03*
X133985000Y-87325200I-3175000J0D01*
G01*
X147955000Y-104343200D02*
G75*
G03*
X147955000Y-104343200I-3175000J0D01*
G01*
X147955000Y-132283200D02*
G75*
G03*
X147955000Y-132283200I-3175000J0D01*
G01*
X147955000Y-149301200D02*
G75*
G03*
X147955000Y-149301200I-3175000J0D01*
G01*
X133985000Y-149301200D02*
G75*
G03*
X133985000Y-149301200I-3175000J0D01*
G01*
X133985000Y-132283200D02*
G75*
G03*
X133985000Y-132283200I-3175000J0D01*
G01*
X133899831Y-104343200D02*
G75*
G03*
X133899831Y-104343200I-3175000J0D01*
G01*
X147955000Y-87325200D02*
G75*
G03*
X147955000Y-87325200I-3175000J0D01*
G01*
X133985000Y-118313200D02*
G75*
G03*
X133985000Y-118313200I-3175000J0D01*
G01*
X132334000Y-80264000D02*
G75*
G03*
X132334000Y-80264000I-1524000J0D01*
G01*
X146304000Y-97282000D02*
G75*
G03*
X146304000Y-97282000I-1524000J0D01*
G01*
X146304000Y-142240000D02*
G75*
G03*
X146304000Y-142240000I-1524000J0D01*
G01*
X132334000Y-142240000D02*
G75*
G03*
X132334000Y-142240000I-1524000J0D01*
G01*
X132248831Y-97282000D02*
G75*
G03*
X132248831Y-97282000I-1524000J0D01*
G01*
X146304000Y-80264000D02*
G75*
G03*
X146304000Y-80264000I-1524000J0D01*
G01*
X147181600Y-48487200D02*
G75*
G03*
X147181600Y-48487200I-1498600J0D01*
G01*
X148223000Y-58838200D02*
G75*
G03*
X148223000Y-58838200I-2540000J0D01*
G01*
X148223000Y-69506200D02*
G75*
G03*
X148223000Y-69506200I-2540000J0D01*
G01*
M02*
