G04 #@! TF.GenerationSoftware,KiCad,Pcbnew,(6.0.10)*
G04 #@! TF.CreationDate,2023-01-23T22:24:19-05:00*
G04 #@! TF.ProjectId,umidi,756d6964-692e-46b6-9963-61645f706362,rev?*
G04 #@! TF.SameCoordinates,Original*
G04 #@! TF.FileFunction,Legend,Top*
G04 #@! TF.FilePolarity,Positive*
%FSLAX46Y46*%
G04 Gerber Fmt 4.6, Leading zero omitted, Abs format (unit mm)*
G04 Created by KiCad (PCBNEW (6.0.10)) date 2023-01-23 22:24:19*
%MOMM*%
%LPD*%
G01*
G04 APERTURE LIST*
%ADD10C,0.000000*%
G04 APERTURE END LIST*
D10*
G36*
X150510139Y-40591977D02*
G01*
X149853950Y-40591977D01*
X149853950Y-37522849D01*
X150510139Y-37522849D01*
X150510139Y-40591977D01*
G37*
G36*
X143337930Y-39759432D02*
G01*
X144036453Y-37533432D01*
X145077183Y-37533432D01*
X145077183Y-40591977D01*
X144424522Y-40591977D01*
X144424522Y-37967343D01*
X143591938Y-40591977D01*
X143048643Y-40591977D01*
X142233698Y-37967343D01*
X142233698Y-40591977D01*
X141619844Y-40591977D01*
X141619844Y-37533432D01*
X142692323Y-37533432D01*
X143337930Y-39759432D01*
G37*
G36*
X146276664Y-40591977D02*
G01*
X145620475Y-40591977D01*
X145620475Y-37522849D01*
X146276664Y-37522849D01*
X146276664Y-40591977D01*
G37*
G36*
X147832468Y-37540487D02*
G01*
X147911219Y-37542334D01*
X148016635Y-37547322D01*
X148077548Y-37551976D01*
X148142971Y-37558594D01*
X148212188Y-37567569D01*
X148284480Y-37579292D01*
X148359128Y-37594158D01*
X148435414Y-37612558D01*
X148512620Y-37634885D01*
X148590028Y-37661533D01*
X148666919Y-37692893D01*
X148742575Y-37729359D01*
X148779715Y-37749629D01*
X148816277Y-37771323D01*
X148852171Y-37794490D01*
X148887308Y-37819178D01*
X148922628Y-37846218D01*
X148956502Y-37874390D01*
X148988951Y-37903651D01*
X149019996Y-37933954D01*
X149049659Y-37965254D01*
X149077961Y-37997506D01*
X149104923Y-38030666D01*
X149130566Y-38064686D01*
X149177984Y-38135133D01*
X149220383Y-38208483D01*
X149257935Y-38284376D01*
X149290810Y-38362449D01*
X149319179Y-38442342D01*
X149343212Y-38523692D01*
X149363080Y-38606137D01*
X149378953Y-38689316D01*
X149391002Y-38772867D01*
X149399397Y-38856428D01*
X149404309Y-38939639D01*
X149405908Y-39022136D01*
X149404443Y-39108798D01*
X149400101Y-39192847D01*
X149392961Y-39274293D01*
X149383101Y-39353150D01*
X149370600Y-39429428D01*
X149355538Y-39503139D01*
X149337992Y-39574295D01*
X149318042Y-39642906D01*
X149295766Y-39708986D01*
X149271244Y-39772545D01*
X149244554Y-39833596D01*
X149215774Y-39892149D01*
X149184985Y-39948217D01*
X149152264Y-40001810D01*
X149117690Y-40052942D01*
X149081342Y-40101622D01*
X149003641Y-40191678D01*
X148919790Y-40272070D01*
X148830419Y-40342891D01*
X148736160Y-40404236D01*
X148637643Y-40456196D01*
X148535497Y-40498864D01*
X148430355Y-40532335D01*
X148322845Y-40556700D01*
X148279518Y-40564293D01*
X148232884Y-40571142D01*
X148180958Y-40577164D01*
X148121756Y-40582276D01*
X148053292Y-40586396D01*
X147973584Y-40589442D01*
X147880647Y-40591330D01*
X147772495Y-40591977D01*
X146819963Y-40591977D01*
X146819963Y-40087511D01*
X147483204Y-40087511D01*
X147542791Y-40090102D01*
X147610649Y-40092362D01*
X147679168Y-40093960D01*
X147740742Y-40094567D01*
X147843416Y-40093285D01*
X147893350Y-40091358D01*
X147942328Y-40088283D01*
X147990334Y-40083844D01*
X148037353Y-40077824D01*
X148083370Y-40070005D01*
X148128369Y-40060171D01*
X148172334Y-40048105D01*
X148215251Y-40033589D01*
X148257102Y-40016407D01*
X148297874Y-39996341D01*
X148337550Y-39973175D01*
X148376115Y-39946691D01*
X148413553Y-39916673D01*
X148449850Y-39882902D01*
X148473298Y-39858186D01*
X148495381Y-39832385D01*
X148516140Y-39805593D01*
X148535615Y-39777904D01*
X148570878Y-39720209D01*
X148601495Y-39660049D01*
X148627791Y-39598173D01*
X148650093Y-39535331D01*
X148668725Y-39472272D01*
X148684014Y-39409745D01*
X148696285Y-39348500D01*
X148705863Y-39289285D01*
X148713075Y-39232851D01*
X148718245Y-39179946D01*
X148723764Y-39087722D01*
X148725025Y-39018608D01*
X148723261Y-38938345D01*
X148717859Y-38859198D01*
X148708653Y-38781540D01*
X148695479Y-38705742D01*
X148678170Y-38632176D01*
X148656562Y-38561215D01*
X148630489Y-38493230D01*
X148599785Y-38428594D01*
X148564286Y-38367679D01*
X148523825Y-38310856D01*
X148501683Y-38284096D01*
X148478238Y-38258498D01*
X148453471Y-38234110D01*
X148427359Y-38210977D01*
X148399884Y-38189147D01*
X148371023Y-38168665D01*
X148340757Y-38149579D01*
X148309064Y-38131934D01*
X148275925Y-38115778D01*
X148241318Y-38101156D01*
X148205222Y-38088115D01*
X148167617Y-38076703D01*
X148141947Y-38069639D01*
X148115057Y-38063019D01*
X148086720Y-38056875D01*
X148056709Y-38051237D01*
X148024796Y-38046137D01*
X147990754Y-38041605D01*
X147954355Y-38037672D01*
X147915373Y-38034370D01*
X147873579Y-38031729D01*
X147828746Y-38029781D01*
X147780647Y-38028556D01*
X147729055Y-38028086D01*
X147673742Y-38028401D01*
X147614480Y-38029533D01*
X147551044Y-38031512D01*
X147483204Y-38034370D01*
X147483204Y-40087511D01*
X146819963Y-40087511D01*
X146819963Y-37540487D01*
X147832468Y-37540487D01*
G37*
G36*
X139626585Y-39487796D02*
G01*
X139628817Y-39630945D01*
X139632259Y-39698324D01*
X139637830Y-39762519D01*
X139645964Y-39823241D01*
X139657095Y-39880202D01*
X139671658Y-39933111D01*
X139690087Y-39981679D01*
X139700886Y-40004245D01*
X139712815Y-40025617D01*
X139725927Y-40045760D01*
X139740276Y-40064636D01*
X139755918Y-40082210D01*
X139772906Y-40098446D01*
X139791294Y-40113307D01*
X139811137Y-40126757D01*
X139832489Y-40138761D01*
X139855405Y-40149281D01*
X139879938Y-40158282D01*
X139906142Y-40165728D01*
X139934073Y-40171582D01*
X139963784Y-40175808D01*
X139995330Y-40178370D01*
X140028764Y-40179232D01*
X140065343Y-40178110D01*
X140099717Y-40174804D01*
X140131953Y-40169402D01*
X140162122Y-40161993D01*
X140190290Y-40152668D01*
X140216527Y-40141514D01*
X140240900Y-40128622D01*
X140263480Y-40114080D01*
X140284333Y-40097977D01*
X140303528Y-40080402D01*
X140321135Y-40061446D01*
X140337221Y-40041196D01*
X140351855Y-40019742D01*
X140365105Y-39997173D01*
X140377040Y-39973579D01*
X140387728Y-39949048D01*
X140397238Y-39923669D01*
X140405638Y-39897532D01*
X140412997Y-39870726D01*
X140419383Y-39843340D01*
X140424864Y-39815462D01*
X140429510Y-39787184D01*
X140436567Y-39729777D01*
X140441103Y-39671833D01*
X140443665Y-39614064D01*
X140444800Y-39557185D01*
X140445057Y-39501907D01*
X140445057Y-38457698D01*
X140991880Y-38457698D01*
X140991880Y-40595505D01*
X140526199Y-40595505D01*
X140526199Y-40341508D01*
X140498196Y-40384474D01*
X140481797Y-40407828D01*
X140463579Y-40431906D01*
X140443376Y-40456314D01*
X140421023Y-40480660D01*
X140396356Y-40504552D01*
X140383102Y-40516204D01*
X140369207Y-40527596D01*
X140354651Y-40538677D01*
X140339413Y-40549399D01*
X140323472Y-40559713D01*
X140306807Y-40569570D01*
X140289399Y-40578920D01*
X140271225Y-40587715D01*
X140252266Y-40595905D01*
X140232501Y-40603442D01*
X140211909Y-40610276D01*
X140190469Y-40616357D01*
X140168162Y-40621638D01*
X140144965Y-40626069D01*
X140120859Y-40629601D01*
X140095823Y-40632184D01*
X140069836Y-40633770D01*
X140042877Y-40634309D01*
X140018233Y-40633923D01*
X139994557Y-40632785D01*
X139971826Y-40630932D01*
X139950015Y-40628398D01*
X139929101Y-40625218D01*
X139909059Y-40621427D01*
X139871498Y-40612151D01*
X139837142Y-40600849D01*
X139805798Y-40587801D01*
X139777276Y-40573286D01*
X139751385Y-40557581D01*
X139727932Y-40540968D01*
X139706728Y-40523723D01*
X139687580Y-40506128D01*
X139670299Y-40488460D01*
X139654691Y-40470999D01*
X139640567Y-40454023D01*
X139616003Y-40422645D01*
X139616003Y-41491549D01*
X139083292Y-41491549D01*
X139083292Y-38454170D01*
X139626585Y-38454170D01*
X139626585Y-39487796D01*
G37*
G36*
X143094503Y-63317639D02*
G01*
X143090976Y-63317639D01*
X143094503Y-63317637D01*
X143094503Y-63317639D01*
G37*
G36*
X144301044Y-63610441D02*
G01*
X143479044Y-63610441D01*
X143479044Y-64040825D01*
X144248125Y-64040825D01*
X144248125Y-64337155D01*
X143479044Y-64337155D01*
X143479044Y-64823981D01*
X144329267Y-64823981D01*
X144329267Y-65123837D01*
X143094503Y-65123837D01*
X143094503Y-63317639D01*
X144301044Y-63317639D01*
X144301044Y-63610441D01*
G37*
G36*
X142085527Y-64816925D02*
G01*
X142858135Y-64816925D01*
X142858135Y-65123841D01*
X141690403Y-65123841D01*
X141690403Y-63321167D01*
X142085527Y-63321167D01*
X142085527Y-64816925D01*
G37*
G36*
X149324766Y-64739315D02*
G01*
X149324766Y-63317639D01*
X149684610Y-63317639D01*
X149684610Y-65123841D01*
X149151897Y-65123841D01*
X148453373Y-63624552D01*
X148453373Y-65123841D01*
X148090000Y-65123841D01*
X148090000Y-63317639D01*
X148647411Y-63317639D01*
X149324766Y-64739315D01*
G37*
G36*
X145556976Y-63317639D02*
G01*
X146184942Y-65123841D01*
X145796875Y-65123841D01*
X145666341Y-64735791D01*
X144950178Y-64735791D01*
X144816118Y-65123841D01*
X144445690Y-65123841D01*
X144691712Y-64442988D01*
X145048961Y-64442988D01*
X145567560Y-64442988D01*
X145317079Y-63673941D01*
X145048961Y-64442988D01*
X144691712Y-64442988D01*
X145098350Y-63317639D01*
X145556976Y-63317639D01*
G37*
G36*
X147081024Y-63317639D02*
G01*
X147156322Y-63317880D01*
X147230959Y-63319568D01*
X147267823Y-63321407D01*
X147304273Y-63324150D01*
X147340228Y-63327978D01*
X147375603Y-63333072D01*
X147410317Y-63339614D01*
X147444287Y-63347783D01*
X147477430Y-63357760D01*
X147509664Y-63369728D01*
X147540905Y-63383865D01*
X147571072Y-63400354D01*
X147600081Y-63419375D01*
X147627849Y-63441109D01*
X147648236Y-63459990D01*
X147667083Y-63479549D01*
X147684421Y-63499717D01*
X147700281Y-63520428D01*
X147714694Y-63541614D01*
X147727691Y-63563209D01*
X147739303Y-63585144D01*
X147749561Y-63607354D01*
X147758496Y-63629770D01*
X147766139Y-63652326D01*
X147772521Y-63674954D01*
X147777674Y-63697587D01*
X147781627Y-63720159D01*
X147784412Y-63742601D01*
X147786061Y-63764847D01*
X147786604Y-63786829D01*
X147785771Y-63817820D01*
X147783333Y-63847320D01*
X147779380Y-63875366D01*
X147774001Y-63901997D01*
X147767286Y-63927251D01*
X147759325Y-63951165D01*
X147750208Y-63973779D01*
X147740024Y-63995130D01*
X147728864Y-64015256D01*
X147716817Y-64034196D01*
X147703972Y-64051987D01*
X147690420Y-64068668D01*
X147676251Y-64084277D01*
X147661554Y-64098851D01*
X147646419Y-64112429D01*
X147630935Y-64125050D01*
X147599283Y-64147569D01*
X147567316Y-64166714D01*
X147535752Y-64182789D01*
X147505309Y-64196100D01*
X147476706Y-64206951D01*
X147450661Y-64215648D01*
X147409118Y-64227795D01*
X147433859Y-64230491D01*
X147457181Y-64233943D01*
X147479130Y-64238141D01*
X147499755Y-64243077D01*
X147519103Y-64248742D01*
X147537223Y-64255126D01*
X147554162Y-64262221D01*
X147569968Y-64270018D01*
X147584689Y-64278506D01*
X147598372Y-64287679D01*
X147611066Y-64297525D01*
X147622817Y-64308037D01*
X147633675Y-64319205D01*
X147643687Y-64331021D01*
X147652900Y-64343475D01*
X147661363Y-64356557D01*
X147669122Y-64370260D01*
X147676227Y-64384574D01*
X147682725Y-64399490D01*
X147688663Y-64414999D01*
X147694089Y-64431092D01*
X147699052Y-64447760D01*
X147707777Y-64482784D01*
X147715220Y-64519999D01*
X147721764Y-64559333D01*
X147733684Y-64644068D01*
X147752427Y-64780988D01*
X147767200Y-64879544D01*
X147773512Y-64916916D01*
X147779328Y-64947673D01*
X147784813Y-64972808D01*
X147790132Y-64993313D01*
X147794022Y-65007801D01*
X147797766Y-65020915D01*
X147801387Y-65032768D01*
X147804905Y-65043473D01*
X147808339Y-65053145D01*
X147811712Y-65061897D01*
X147815044Y-65069843D01*
X147818355Y-65077097D01*
X147821666Y-65083772D01*
X147824997Y-65089981D01*
X147831806Y-65101461D01*
X147846580Y-65123841D01*
X147419704Y-65123841D01*
X147400301Y-64993975D01*
X147372960Y-64799288D01*
X147344296Y-64609893D01*
X147331535Y-64539090D01*
X147325910Y-64513497D01*
X147320924Y-64495903D01*
X147317444Y-64486609D01*
X147313629Y-64477895D01*
X147309497Y-64469743D01*
X147305063Y-64462135D01*
X147300345Y-64455051D01*
X147295359Y-64448473D01*
X147290123Y-64442381D01*
X147284653Y-64436758D01*
X147278966Y-64431585D01*
X147273079Y-64426843D01*
X147267008Y-64422512D01*
X147260771Y-64418576D01*
X147254384Y-64415013D01*
X147247863Y-64411807D01*
X147241227Y-64408938D01*
X147234491Y-64406387D01*
X147227672Y-64404136D01*
X147220787Y-64402166D01*
X147206887Y-64398994D01*
X147192925Y-64396721D01*
X147179036Y-64395197D01*
X147165353Y-64394273D01*
X147152011Y-64393799D01*
X147126888Y-64393599D01*
X146788212Y-64393599D01*
X146788212Y-65123841D01*
X146393087Y-65123841D01*
X146393087Y-64107851D01*
X146770571Y-64107851D01*
X147084553Y-64107851D01*
X147103604Y-64107755D01*
X147125840Y-64107080D01*
X147137906Y-64106344D01*
X147150473Y-64105247D01*
X147163443Y-64103715D01*
X147176718Y-64101678D01*
X147190200Y-64099061D01*
X147203791Y-64095793D01*
X147217392Y-64091802D01*
X147230905Y-64087015D01*
X147244231Y-64081360D01*
X147257274Y-64074765D01*
X147263658Y-64071091D01*
X147269934Y-64067156D01*
X147276090Y-64062949D01*
X147282114Y-64058462D01*
X147287874Y-64054032D01*
X147294462Y-64048651D01*
X147301711Y-64042278D01*
X147309456Y-64034871D01*
X147317531Y-64026389D01*
X147325772Y-64016791D01*
X147334013Y-64006036D01*
X147338082Y-64000211D01*
X147342089Y-63994081D01*
X147346013Y-63987642D01*
X147349834Y-63980887D01*
X147353530Y-63973811D01*
X147357082Y-63966411D01*
X147360469Y-63958679D01*
X147363669Y-63950612D01*
X147366663Y-63942203D01*
X147369430Y-63933448D01*
X147371948Y-63924342D01*
X147374198Y-63914880D01*
X147376158Y-63905055D01*
X147377808Y-63894864D01*
X147379128Y-63884301D01*
X147380096Y-63873360D01*
X147380692Y-63862037D01*
X147380895Y-63850327D01*
X147380213Y-63827373D01*
X147378249Y-63806093D01*
X147375128Y-63786426D01*
X147370973Y-63768308D01*
X147365909Y-63751679D01*
X147360059Y-63736476D01*
X147353547Y-63722637D01*
X147346498Y-63710101D01*
X147339036Y-63698804D01*
X147331284Y-63688686D01*
X147323367Y-63679684D01*
X147315409Y-63671736D01*
X147307533Y-63664780D01*
X147299864Y-63658755D01*
X147292526Y-63653598D01*
X147285642Y-63649246D01*
X147274224Y-63641795D01*
X147262429Y-63635273D01*
X147250210Y-63629620D01*
X147237521Y-63624772D01*
X147224314Y-63620669D01*
X147210545Y-63617248D01*
X147196165Y-63614447D01*
X147181130Y-63612205D01*
X147165391Y-63610458D01*
X147148904Y-63609145D01*
X147131620Y-63608205D01*
X147113494Y-63607574D01*
X147074528Y-63606996D01*
X147031635Y-63606913D01*
X146770571Y-63606913D01*
X146770571Y-64107851D01*
X146393087Y-64107851D01*
X146393087Y-63317639D01*
X147081024Y-63317639D01*
G37*
G36*
X148569797Y-75213160D02*
G01*
X148195841Y-75213160D01*
X148195841Y-74846274D01*
X148569797Y-74846274D01*
X148569797Y-75213160D01*
G37*
G36*
X149046062Y-75661181D02*
G01*
X147716047Y-75661181D01*
X147716047Y-75340159D01*
X149046062Y-75340159D01*
X149046062Y-75661181D01*
G37*
G36*
X148569797Y-76158591D02*
G01*
X148195841Y-76158591D01*
X148195841Y-75791708D01*
X148569797Y-75791708D01*
X148569797Y-76158591D01*
G37*
G36*
X146248443Y-75167296D02*
G01*
X146968136Y-76162115D01*
X146484812Y-76162115D01*
X145853319Y-75241377D01*
X145853319Y-76162115D01*
X145465252Y-76162115D01*
X145465252Y-74362974D01*
X145468780Y-74366503D01*
X145856847Y-74366503D01*
X145856847Y-75142603D01*
X146460117Y-74359446D01*
X146911688Y-74359446D01*
X146248443Y-75167296D01*
G37*
G36*
X144477440Y-75858732D02*
G01*
X145250047Y-75858732D01*
X145250047Y-76165644D01*
X144082313Y-76165644D01*
X144082313Y-74362974D01*
X144477440Y-74362974D01*
X144477440Y-75858732D01*
G37*
G36*
X143191175Y-74349563D02*
G01*
X143227160Y-74351646D01*
X143262403Y-74355090D01*
X143296875Y-74359874D01*
X143330546Y-74365976D01*
X143363387Y-74373374D01*
X143395367Y-74382045D01*
X143426457Y-74391969D01*
X143456627Y-74403122D01*
X143485847Y-74415483D01*
X143514088Y-74429030D01*
X143541320Y-74443741D01*
X143567513Y-74459594D01*
X143592638Y-74476567D01*
X143616665Y-74494639D01*
X143639564Y-74513786D01*
X143661305Y-74533988D01*
X143681859Y-74555222D01*
X143701196Y-74577466D01*
X143719286Y-74600698D01*
X143736099Y-74624897D01*
X143751607Y-74650040D01*
X143765779Y-74676106D01*
X143778585Y-74703072D01*
X143789995Y-74730916D01*
X143799981Y-74759617D01*
X143808512Y-74789153D01*
X143815559Y-74819501D01*
X143821091Y-74850640D01*
X143825079Y-74882547D01*
X143827494Y-74915201D01*
X143828306Y-74948580D01*
X143433181Y-74948580D01*
X143433183Y-74952109D01*
X143429428Y-74920235D01*
X143426214Y-74899229D01*
X143421662Y-74875711D01*
X143415435Y-74850333D01*
X143407198Y-74823746D01*
X143396616Y-74796600D01*
X143390339Y-74783022D01*
X143383351Y-74769548D01*
X143375607Y-74756260D01*
X143367068Y-74743240D01*
X143357689Y-74730568D01*
X143347431Y-74718326D01*
X143336250Y-74706597D01*
X143324104Y-74695460D01*
X143310952Y-74684997D01*
X143296752Y-74675291D01*
X143281461Y-74666421D01*
X143265038Y-74658470D01*
X143247440Y-74651519D01*
X143228626Y-74645649D01*
X143208554Y-74640942D01*
X143187181Y-74637479D01*
X143164467Y-74635342D01*
X143140367Y-74634611D01*
X143114061Y-74635483D01*
X143088719Y-74638069D01*
X143064331Y-74642329D01*
X143040890Y-74648219D01*
X143018386Y-74655699D01*
X142996812Y-74664725D01*
X142976160Y-74675257D01*
X142956420Y-74687251D01*
X142937584Y-74700667D01*
X142919645Y-74715462D01*
X142902593Y-74731594D01*
X142886420Y-74749021D01*
X142871118Y-74767701D01*
X142856678Y-74787592D01*
X142843093Y-74808653D01*
X142830353Y-74830840D01*
X142818450Y-74854113D01*
X142807376Y-74878429D01*
X142797122Y-74903747D01*
X142787681Y-74930023D01*
X142779042Y-74957217D01*
X142771200Y-74985286D01*
X142764143Y-75014188D01*
X142757866Y-75043882D01*
X142752358Y-75074325D01*
X142747612Y-75105475D01*
X142740371Y-75169730D01*
X142736076Y-75236311D01*
X142734659Y-75304880D01*
X142735396Y-75361945D01*
X142737147Y-75401479D01*
X142740557Y-75446542D01*
X142746179Y-75495780D01*
X142754565Y-75547840D01*
X142766269Y-75601368D01*
X142781844Y-75655009D01*
X142791256Y-75681449D01*
X142801843Y-75707409D01*
X142813674Y-75732722D01*
X142826818Y-75757216D01*
X142841345Y-75780723D01*
X142857323Y-75803074D01*
X142874821Y-75824100D01*
X142893910Y-75843631D01*
X142914657Y-75861498D01*
X142937132Y-75877532D01*
X142961405Y-75891563D01*
X142987543Y-75903423D01*
X143015617Y-75912942D01*
X143045696Y-75919951D01*
X143077848Y-75924280D01*
X143112142Y-75925761D01*
X143142453Y-75924553D01*
X143172392Y-75920896D01*
X143187157Y-75918133D01*
X143201752Y-75914738D01*
X143216151Y-75910705D01*
X143230327Y-75906028D01*
X143244255Y-75900699D01*
X143257909Y-75894712D01*
X143271264Y-75888062D01*
X143284293Y-75880741D01*
X143296971Y-75872743D01*
X143309271Y-75864062D01*
X143321168Y-75854691D01*
X143332636Y-75844623D01*
X143343650Y-75833853D01*
X143354183Y-75822374D01*
X143364209Y-75810178D01*
X143373703Y-75797261D01*
X143382639Y-75783615D01*
X143390991Y-75769234D01*
X143398734Y-75754111D01*
X143405840Y-75738240D01*
X143412285Y-75721615D01*
X143418043Y-75704229D01*
X143423087Y-75686075D01*
X143427393Y-75667148D01*
X143430934Y-75647440D01*
X143433684Y-75626946D01*
X143435617Y-75605658D01*
X143436708Y-75583571D01*
X143842416Y-75583571D01*
X143839350Y-75626070D01*
X143834424Y-75673530D01*
X143830785Y-75698810D01*
X143826107Y-75724958D01*
X143820199Y-75751850D01*
X143812871Y-75779362D01*
X143803929Y-75807370D01*
X143793185Y-75835750D01*
X143780445Y-75864379D01*
X143765520Y-75893131D01*
X143748217Y-75921883D01*
X143738614Y-75936220D01*
X143728346Y-75950511D01*
X143717387Y-75964740D01*
X143705715Y-75978891D01*
X143693305Y-75992949D01*
X143680134Y-76006899D01*
X143649851Y-76036481D01*
X143618623Y-76063143D01*
X143586578Y-76087024D01*
X143553846Y-76108266D01*
X143520556Y-76127006D01*
X143486837Y-76143384D01*
X143452818Y-76157541D01*
X143418629Y-76169615D01*
X143384398Y-76179746D01*
X143350255Y-76188074D01*
X143316329Y-76194737D01*
X143282750Y-76199876D01*
X143249646Y-76203631D01*
X143217146Y-76206140D01*
X143185380Y-76207543D01*
X143154478Y-76207979D01*
X143097481Y-76206650D01*
X143042884Y-76202720D01*
X142990649Y-76196274D01*
X142940737Y-76187399D01*
X142893109Y-76176180D01*
X142847727Y-76162704D01*
X142804551Y-76147056D01*
X142763543Y-76129322D01*
X142724665Y-76109588D01*
X142687876Y-76087941D01*
X142653139Y-76064465D01*
X142620416Y-76039247D01*
X142589666Y-76012373D01*
X142560851Y-75983929D01*
X142533934Y-75954001D01*
X142508873Y-75922674D01*
X142485632Y-75890034D01*
X142464172Y-75856168D01*
X142444453Y-75821160D01*
X142426436Y-75785099D01*
X142410084Y-75748068D01*
X142395357Y-75710154D01*
X142382217Y-75671443D01*
X142370624Y-75632021D01*
X142351927Y-75551387D01*
X142338956Y-75468939D01*
X142331400Y-75385365D01*
X142328951Y-75301352D01*
X142332679Y-75196475D01*
X142337302Y-75145799D01*
X142343731Y-75096343D01*
X142351939Y-75048143D01*
X142361903Y-75001233D01*
X142373597Y-74955650D01*
X142386995Y-74911426D01*
X142402073Y-74868598D01*
X142418806Y-74827200D01*
X142437167Y-74787267D01*
X142457133Y-74748833D01*
X142478677Y-74711935D01*
X142501775Y-74676606D01*
X142526401Y-74642882D01*
X142552530Y-74610797D01*
X142580138Y-74580387D01*
X142609198Y-74551685D01*
X142639686Y-74524728D01*
X142671576Y-74499550D01*
X142704844Y-74476185D01*
X142739463Y-74454669D01*
X142775409Y-74435037D01*
X142812658Y-74417324D01*
X142851182Y-74401563D01*
X142890958Y-74387791D01*
X142931959Y-74376042D01*
X142974162Y-74366351D01*
X143017540Y-74358753D01*
X143062069Y-74353282D01*
X143107723Y-74349974D01*
X143154478Y-74348864D01*
X143191175Y-74349563D01*
G37*
G36*
X148412864Y-77107779D02*
G01*
X148421626Y-77108449D01*
X148430263Y-77109551D01*
X148438763Y-77111075D01*
X148447117Y-77113009D01*
X148455312Y-77115344D01*
X148463337Y-77118067D01*
X148471183Y-77121168D01*
X148478837Y-77124637D01*
X148486289Y-77128461D01*
X148493528Y-77132630D01*
X148500543Y-77137133D01*
X148507323Y-77141959D01*
X148513856Y-77147097D01*
X148520133Y-77152535D01*
X148526141Y-77158264D01*
X148531870Y-77164272D01*
X148537309Y-77170548D01*
X148542448Y-77177081D01*
X148547274Y-77183861D01*
X148551777Y-77190875D01*
X148555946Y-77198113D01*
X148559771Y-77205565D01*
X148563239Y-77213219D01*
X148566340Y-77221064D01*
X148569064Y-77229089D01*
X148571399Y-77237283D01*
X148573333Y-77245636D01*
X148574857Y-77254136D01*
X148575960Y-77262772D01*
X148576629Y-77271533D01*
X148576854Y-77280409D01*
X148576629Y-77289285D01*
X148575960Y-77298047D01*
X148574857Y-77306683D01*
X148573333Y-77315184D01*
X148571399Y-77323536D01*
X148569064Y-77331731D01*
X148566340Y-77339756D01*
X148563239Y-77347602D01*
X148559771Y-77355256D01*
X148555946Y-77362707D01*
X148551777Y-77369946D01*
X148547274Y-77376960D01*
X148542448Y-77383740D01*
X148537309Y-77390273D01*
X148531870Y-77396549D01*
X148526141Y-77402557D01*
X148520133Y-77408286D01*
X148513856Y-77413725D01*
X148507323Y-77418863D01*
X148500543Y-77423689D01*
X148493528Y-77428192D01*
X148486289Y-77432361D01*
X148478837Y-77436185D01*
X148471183Y-77439653D01*
X148463337Y-77442755D01*
X148455312Y-77445478D01*
X148447117Y-77447813D01*
X148438763Y-77449747D01*
X148430263Y-77451271D01*
X148421626Y-77452373D01*
X148412864Y-77453043D01*
X148403988Y-77453268D01*
X148395111Y-77453043D01*
X148386349Y-77452373D01*
X148377713Y-77451271D01*
X148369212Y-77449747D01*
X148360859Y-77447813D01*
X148352664Y-77445478D01*
X148344638Y-77442755D01*
X148336793Y-77439653D01*
X148329139Y-77436185D01*
X148321687Y-77432361D01*
X148314448Y-77428192D01*
X148307433Y-77423689D01*
X148300653Y-77418863D01*
X148294120Y-77413725D01*
X148287843Y-77408286D01*
X148281835Y-77402557D01*
X148276106Y-77396549D01*
X148270666Y-77390273D01*
X148265528Y-77383740D01*
X148260702Y-77376960D01*
X148256199Y-77369946D01*
X148252029Y-77362707D01*
X148248205Y-77355256D01*
X148244737Y-77347602D01*
X148241635Y-77339756D01*
X148238911Y-77331731D01*
X148236577Y-77323536D01*
X148234642Y-77315184D01*
X148233118Y-77306683D01*
X148232016Y-77298047D01*
X148231346Y-77289285D01*
X148231121Y-77280409D01*
X148231346Y-77271533D01*
X148232016Y-77262772D01*
X148233118Y-77254136D01*
X148234642Y-77245636D01*
X148236577Y-77237283D01*
X148238911Y-77229089D01*
X148241635Y-77221064D01*
X148244737Y-77213219D01*
X148248205Y-77205565D01*
X148252029Y-77198113D01*
X148256199Y-77190875D01*
X148260702Y-77183861D01*
X148265528Y-77177081D01*
X148270666Y-77170548D01*
X148276106Y-77164272D01*
X148281835Y-77158264D01*
X148287843Y-77152535D01*
X148294120Y-77147097D01*
X148300653Y-77141959D01*
X148307433Y-77137133D01*
X148314448Y-77132630D01*
X148321687Y-77128461D01*
X148329139Y-77124637D01*
X148336793Y-77121168D01*
X148344638Y-77118067D01*
X148352664Y-77115344D01*
X148360859Y-77113009D01*
X148369212Y-77111075D01*
X148377713Y-77109551D01*
X148386349Y-77108449D01*
X148395111Y-77107779D01*
X148403988Y-77107554D01*
X148412864Y-77107779D01*
G37*
G36*
X148412864Y-77855658D02*
G01*
X148421626Y-77856328D01*
X148430263Y-77857430D01*
X148438763Y-77858954D01*
X148447117Y-77860888D01*
X148455312Y-77863223D01*
X148463337Y-77865946D01*
X148471183Y-77869048D01*
X148478837Y-77872516D01*
X148486289Y-77876340D01*
X148493528Y-77880509D01*
X148500543Y-77885012D01*
X148507323Y-77889838D01*
X148513856Y-77894976D01*
X148520133Y-77900415D01*
X148526141Y-77906144D01*
X148531870Y-77912152D01*
X148537309Y-77918428D01*
X148542448Y-77924961D01*
X148547274Y-77931741D01*
X148551777Y-77938755D01*
X148555946Y-77945994D01*
X148559771Y-77953446D01*
X148563239Y-77961099D01*
X148566340Y-77968945D01*
X148569064Y-77976970D01*
X148571399Y-77985165D01*
X148573333Y-77993518D01*
X148574857Y-78002018D01*
X148575960Y-78010654D01*
X148576629Y-78019416D01*
X148576854Y-78028292D01*
X148576629Y-78037168D01*
X148575960Y-78045929D01*
X148574857Y-78054565D01*
X148573333Y-78063065D01*
X148571399Y-78071418D01*
X148569064Y-78079613D01*
X148566340Y-78087638D01*
X148563239Y-78095483D01*
X148559771Y-78103137D01*
X148555946Y-78110588D01*
X148551777Y-78117827D01*
X148547274Y-78124842D01*
X148542448Y-78131621D01*
X148537309Y-78138154D01*
X148531870Y-78144430D01*
X148526141Y-78150439D01*
X148520133Y-78156168D01*
X148513856Y-78161607D01*
X148507323Y-78166745D01*
X148500543Y-78171571D01*
X148493528Y-78176074D01*
X148486289Y-78180243D01*
X148478837Y-78184067D01*
X148471183Y-78187536D01*
X148463337Y-78190637D01*
X148455312Y-78193361D01*
X148447117Y-78195695D01*
X148438763Y-78197630D01*
X148430263Y-78199154D01*
X148421626Y-78200256D01*
X148412864Y-78200926D01*
X148403988Y-78201151D01*
X148395111Y-78200926D01*
X148386349Y-78200256D01*
X148377713Y-78199154D01*
X148369212Y-78197630D01*
X148360859Y-78195695D01*
X148352664Y-78193361D01*
X148344638Y-78190637D01*
X148336793Y-78187536D01*
X148329139Y-78184067D01*
X148321687Y-78180243D01*
X148314448Y-78176074D01*
X148307433Y-78171571D01*
X148300653Y-78166745D01*
X148294120Y-78161607D01*
X148287843Y-78156168D01*
X148281835Y-78150439D01*
X148276106Y-78144430D01*
X148270666Y-78138154D01*
X148265528Y-78131621D01*
X148260702Y-78124842D01*
X148256199Y-78117827D01*
X148252029Y-78110588D01*
X148248205Y-78103137D01*
X148244737Y-78095483D01*
X148241635Y-78087638D01*
X148238911Y-78079613D01*
X148236577Y-78071418D01*
X148234642Y-78063065D01*
X148233118Y-78054565D01*
X148232016Y-78045929D01*
X148231346Y-78037168D01*
X148231121Y-78028292D01*
X148231346Y-78019416D01*
X148232016Y-78010654D01*
X148233118Y-78002018D01*
X148234642Y-77993518D01*
X148236577Y-77985165D01*
X148238911Y-77976970D01*
X148241635Y-77968945D01*
X148244737Y-77961099D01*
X148248205Y-77953446D01*
X148252029Y-77945994D01*
X148256199Y-77938755D01*
X148260702Y-77931741D01*
X148265528Y-77924961D01*
X148270666Y-77918428D01*
X148276106Y-77912152D01*
X148281835Y-77906144D01*
X148287843Y-77900415D01*
X148294120Y-77894976D01*
X148300653Y-77889838D01*
X148307433Y-77885012D01*
X148314448Y-77880509D01*
X148321687Y-77876340D01*
X148329139Y-77872516D01*
X148336793Y-77869048D01*
X148344638Y-77865946D01*
X148352664Y-77863223D01*
X148360859Y-77860888D01*
X148369212Y-77858954D01*
X148377713Y-77857430D01*
X148386349Y-77856328D01*
X148395111Y-77855658D01*
X148403988Y-77855433D01*
X148412864Y-77855658D01*
G37*
G36*
X148412864Y-78607066D02*
G01*
X148421626Y-78607735D01*
X148430263Y-78608837D01*
X148438763Y-78610361D01*
X148447117Y-78612296D01*
X148455312Y-78614630D01*
X148463337Y-78617354D01*
X148471183Y-78620455D01*
X148478837Y-78623923D01*
X148486289Y-78627748D01*
X148493528Y-78631917D01*
X148500543Y-78636420D01*
X148507323Y-78641246D01*
X148513856Y-78646384D01*
X148520133Y-78651822D01*
X148526141Y-78657552D01*
X148531870Y-78663560D01*
X148537309Y-78669836D01*
X148542448Y-78676369D01*
X148547274Y-78683148D01*
X148551777Y-78690163D01*
X148555946Y-78697401D01*
X148559771Y-78704853D01*
X148563239Y-78712507D01*
X148566340Y-78720352D01*
X148569064Y-78728378D01*
X148571399Y-78736572D01*
X148573333Y-78744925D01*
X148574857Y-78753425D01*
X148575960Y-78762062D01*
X148576629Y-78770823D01*
X148576854Y-78779700D01*
X148576629Y-78788575D01*
X148575960Y-78797337D01*
X148574857Y-78805973D01*
X148573333Y-78814473D01*
X148571399Y-78822825D01*
X148569064Y-78831020D01*
X148566340Y-78839045D01*
X148563239Y-78846890D01*
X148559771Y-78854544D01*
X148555946Y-78861995D01*
X148551777Y-78869234D01*
X148547274Y-78876248D01*
X148542448Y-78883027D01*
X148537309Y-78889560D01*
X148531870Y-78895836D01*
X148526141Y-78901844D01*
X148520133Y-78907573D01*
X148513856Y-78913012D01*
X148507323Y-78918150D01*
X148500543Y-78922976D01*
X148493528Y-78927479D01*
X148486289Y-78931648D01*
X148478837Y-78935472D01*
X148471183Y-78938940D01*
X148463337Y-78942041D01*
X148455312Y-78944765D01*
X148447117Y-78947099D01*
X148438763Y-78949034D01*
X148430263Y-78950558D01*
X148421626Y-78951660D01*
X148412864Y-78952329D01*
X148403988Y-78952555D01*
X148395111Y-78952329D01*
X148386349Y-78951660D01*
X148377713Y-78950558D01*
X148369212Y-78949034D01*
X148360859Y-78947099D01*
X148352664Y-78944765D01*
X148344638Y-78942041D01*
X148336793Y-78938940D01*
X148329139Y-78935472D01*
X148321687Y-78931648D01*
X148314448Y-78927479D01*
X148307433Y-78922976D01*
X148300653Y-78918150D01*
X148294120Y-78913012D01*
X148287843Y-78907573D01*
X148281835Y-78901844D01*
X148276106Y-78895836D01*
X148270666Y-78889560D01*
X148265528Y-78883027D01*
X148260702Y-78876248D01*
X148256199Y-78869234D01*
X148252029Y-78861995D01*
X148248205Y-78854544D01*
X148244737Y-78846890D01*
X148241635Y-78839045D01*
X148238911Y-78831020D01*
X148236577Y-78822825D01*
X148234642Y-78814473D01*
X148233118Y-78805973D01*
X148232016Y-78797337D01*
X148231346Y-78788575D01*
X148231121Y-78779700D01*
X148231346Y-78770823D01*
X148232016Y-78762062D01*
X148233118Y-78753425D01*
X148234642Y-78744925D01*
X148236577Y-78736572D01*
X148238911Y-78728378D01*
X148241635Y-78720352D01*
X148244737Y-78712507D01*
X148248205Y-78704853D01*
X148252029Y-78697401D01*
X148256199Y-78690163D01*
X148260702Y-78683148D01*
X148265528Y-78676369D01*
X148270666Y-78669836D01*
X148276106Y-78663560D01*
X148281835Y-78657552D01*
X148287843Y-78651822D01*
X148294120Y-78646384D01*
X148300653Y-78641246D01*
X148307433Y-78636420D01*
X148314448Y-78631917D01*
X148321687Y-78627748D01*
X148329139Y-78623923D01*
X148336793Y-78620455D01*
X148344638Y-78617354D01*
X148352664Y-78614630D01*
X148360859Y-78612296D01*
X148369212Y-78610361D01*
X148377713Y-78608837D01*
X148386349Y-78607735D01*
X148395111Y-78607066D01*
X148403988Y-78606840D01*
X148412864Y-78607066D01*
G37*
G36*
X148412864Y-79354951D02*
G01*
X148421626Y-79355650D01*
X148430263Y-79356800D01*
X148438763Y-79358388D01*
X148447117Y-79360403D01*
X148455312Y-79362832D01*
X148463337Y-79365662D01*
X148471183Y-79368882D01*
X148478837Y-79372480D01*
X148486289Y-79376442D01*
X148493528Y-79380757D01*
X148500543Y-79385412D01*
X148507323Y-79390396D01*
X148513856Y-79395695D01*
X148520133Y-79401298D01*
X148526141Y-79407192D01*
X148531870Y-79413366D01*
X148537309Y-79419806D01*
X148542448Y-79426501D01*
X148547274Y-79433437D01*
X148551777Y-79440604D01*
X148555946Y-79447988D01*
X148559771Y-79455578D01*
X148563239Y-79463361D01*
X148566340Y-79471325D01*
X148569064Y-79479457D01*
X148571399Y-79487746D01*
X148573333Y-79496178D01*
X148574857Y-79504743D01*
X148575960Y-79513427D01*
X148576629Y-79522217D01*
X148576854Y-79531103D01*
X148576629Y-79539979D01*
X148575960Y-79548741D01*
X148574857Y-79557378D01*
X148573333Y-79565878D01*
X148571399Y-79574231D01*
X148569064Y-79582425D01*
X148566340Y-79590451D01*
X148563239Y-79598296D01*
X148559771Y-79605950D01*
X148555946Y-79613402D01*
X148551777Y-79620640D01*
X148547274Y-79627655D01*
X148542448Y-79634434D01*
X148537309Y-79640967D01*
X148531870Y-79647243D01*
X148526141Y-79653251D01*
X148520133Y-79658980D01*
X148513856Y-79664419D01*
X148507323Y-79669557D01*
X148500543Y-79674383D01*
X148493528Y-79678886D01*
X148486289Y-79683055D01*
X148478837Y-79686880D01*
X148471183Y-79690348D01*
X148463337Y-79693449D01*
X148455312Y-79696173D01*
X148447117Y-79698507D01*
X148438763Y-79700442D01*
X148430263Y-79701966D01*
X148421626Y-79703068D01*
X148412864Y-79703737D01*
X148403988Y-79703963D01*
X148395111Y-79703737D01*
X148386349Y-79703068D01*
X148377713Y-79701966D01*
X148369212Y-79700442D01*
X148360859Y-79698507D01*
X148352664Y-79696173D01*
X148344638Y-79693449D01*
X148336793Y-79690348D01*
X148329139Y-79686880D01*
X148321687Y-79683055D01*
X148314448Y-79678886D01*
X148307433Y-79674383D01*
X148300653Y-79669557D01*
X148294120Y-79664419D01*
X148287843Y-79658980D01*
X148281835Y-79653251D01*
X148276106Y-79647243D01*
X148270666Y-79640967D01*
X148265528Y-79634434D01*
X148260702Y-79627655D01*
X148256199Y-79620640D01*
X148252029Y-79613402D01*
X148248205Y-79605950D01*
X148244737Y-79598296D01*
X148241635Y-79590451D01*
X148238911Y-79582425D01*
X148236577Y-79574231D01*
X148234642Y-79565878D01*
X148233118Y-79557378D01*
X148232016Y-79548741D01*
X148231346Y-79539979D01*
X148231121Y-79531103D01*
X148231346Y-79522217D01*
X148232016Y-79513427D01*
X148233118Y-79504743D01*
X148234642Y-79496178D01*
X148236577Y-79487746D01*
X148238911Y-79479457D01*
X148241635Y-79471325D01*
X148244737Y-79463361D01*
X148248205Y-79455578D01*
X148252029Y-79447988D01*
X148256199Y-79440604D01*
X148260702Y-79433437D01*
X148265528Y-79426501D01*
X148270666Y-79419806D01*
X148276106Y-79413366D01*
X148281835Y-79407192D01*
X148287843Y-79401298D01*
X148294120Y-79395695D01*
X148300653Y-79390396D01*
X148307433Y-79385412D01*
X148314448Y-79380757D01*
X148321687Y-79376442D01*
X148329139Y-79372480D01*
X148336793Y-79368882D01*
X148344638Y-79365662D01*
X148352664Y-79362832D01*
X148360859Y-79360403D01*
X148369212Y-79358388D01*
X148377713Y-79356800D01*
X148386349Y-79355650D01*
X148395111Y-79354951D01*
X148403988Y-79354716D01*
X148412864Y-79354951D01*
G37*
G36*
X148398750Y-80092242D02*
G01*
X148407512Y-80092911D01*
X148416148Y-80094013D01*
X148424649Y-80095537D01*
X148433002Y-80097472D01*
X148441197Y-80099807D01*
X148449222Y-80102530D01*
X148457068Y-80105631D01*
X148464722Y-80109099D01*
X148472174Y-80112923D01*
X148479413Y-80117092D01*
X148486428Y-80121595D01*
X148493207Y-80126421D01*
X148499741Y-80131559D01*
X148506017Y-80136998D01*
X148512026Y-80142727D01*
X148517755Y-80148735D01*
X148523194Y-80155011D01*
X148528333Y-80161544D01*
X148533159Y-80168323D01*
X148537662Y-80175338D01*
X148541831Y-80182576D01*
X148545656Y-80190028D01*
X148549124Y-80197681D01*
X148552226Y-80205527D01*
X148554949Y-80213552D01*
X148557284Y-80221746D01*
X148559219Y-80230099D01*
X148560743Y-80238599D01*
X148561845Y-80247235D01*
X148562514Y-80255996D01*
X148562740Y-80264872D01*
X148562514Y-80273748D01*
X148561845Y-80282510D01*
X148560743Y-80291146D01*
X148559219Y-80299646D01*
X148557284Y-80307999D01*
X148554949Y-80316194D01*
X148552226Y-80324219D01*
X148549124Y-80332064D01*
X148545656Y-80339718D01*
X148541831Y-80347170D01*
X148537662Y-80354409D01*
X148533159Y-80361423D01*
X148528333Y-80368202D01*
X148523194Y-80374736D01*
X148517755Y-80381012D01*
X148512026Y-80387020D01*
X148506017Y-80392749D01*
X148499741Y-80398188D01*
X148493207Y-80403326D01*
X148486428Y-80408152D01*
X148479413Y-80412655D01*
X148472174Y-80416824D01*
X148464722Y-80420648D01*
X148457068Y-80424116D01*
X148449222Y-80427217D01*
X148441197Y-80429941D01*
X148433002Y-80432276D01*
X148424649Y-80434210D01*
X148416148Y-80435734D01*
X148407512Y-80436836D01*
X148398750Y-80437506D01*
X148389873Y-80437731D01*
X148380997Y-80437506D01*
X148372235Y-80436836D01*
X148363598Y-80435734D01*
X148355097Y-80434210D01*
X148346744Y-80432276D01*
X148338549Y-80429941D01*
X148330523Y-80427217D01*
X148322678Y-80424116D01*
X148315024Y-80420648D01*
X148307572Y-80416824D01*
X148300333Y-80412655D01*
X148293318Y-80408152D01*
X148286538Y-80403326D01*
X148280005Y-80398188D01*
X148273728Y-80392749D01*
X148267720Y-80387020D01*
X148261991Y-80381012D01*
X148256551Y-80374736D01*
X148251413Y-80368202D01*
X148246587Y-80361423D01*
X148242084Y-80354409D01*
X148237915Y-80347170D01*
X148234090Y-80339718D01*
X148230622Y-80332064D01*
X148227520Y-80324219D01*
X148224797Y-80316194D01*
X148222462Y-80307999D01*
X148220527Y-80299646D01*
X148219003Y-80291146D01*
X148217901Y-80282510D01*
X148217232Y-80273748D01*
X148217006Y-80264872D01*
X148217232Y-80255996D01*
X148217901Y-80247235D01*
X148219003Y-80238599D01*
X148220527Y-80230099D01*
X148222462Y-80221746D01*
X148224797Y-80213552D01*
X148227520Y-80205527D01*
X148230622Y-80197681D01*
X148234090Y-80190028D01*
X148237915Y-80182576D01*
X148242084Y-80175338D01*
X148246587Y-80168323D01*
X148251413Y-80161544D01*
X148256551Y-80155011D01*
X148261991Y-80148735D01*
X148267720Y-80142727D01*
X148273728Y-80136998D01*
X148280005Y-80131559D01*
X148286538Y-80126421D01*
X148293318Y-80121595D01*
X148300333Y-80117092D01*
X148307572Y-80112923D01*
X148315024Y-80109099D01*
X148322678Y-80105631D01*
X148330523Y-80102530D01*
X148338549Y-80099807D01*
X148346744Y-80097472D01*
X148355097Y-80095537D01*
X148363598Y-80094013D01*
X148372235Y-80092911D01*
X148380997Y-80092242D01*
X148389873Y-80092016D01*
X148398750Y-80092242D01*
G37*
G36*
X147647309Y-80092242D02*
G01*
X147656071Y-80092911D01*
X147664708Y-80094013D01*
X147673208Y-80095537D01*
X147681562Y-80097472D01*
X147689756Y-80099807D01*
X147697782Y-80102530D01*
X147705627Y-80105631D01*
X147713282Y-80109099D01*
X147720734Y-80112923D01*
X147727972Y-80117092D01*
X147734987Y-80121595D01*
X147741767Y-80126421D01*
X147748300Y-80131559D01*
X147754576Y-80136998D01*
X147760585Y-80142727D01*
X147766314Y-80148735D01*
X147771753Y-80155011D01*
X147776891Y-80161544D01*
X147781718Y-80168323D01*
X147786221Y-80175338D01*
X147790390Y-80182576D01*
X147794214Y-80190028D01*
X147797683Y-80197681D01*
X147800784Y-80205527D01*
X147803508Y-80213552D01*
X147805842Y-80221746D01*
X147807777Y-80230099D01*
X147809301Y-80238599D01*
X147810403Y-80247235D01*
X147811073Y-80255996D01*
X147811298Y-80264872D01*
X147811073Y-80273748D01*
X147810403Y-80282510D01*
X147809301Y-80291146D01*
X147807777Y-80299646D01*
X147805842Y-80307999D01*
X147803508Y-80316194D01*
X147800784Y-80324219D01*
X147797683Y-80332064D01*
X147794214Y-80339718D01*
X147790390Y-80347170D01*
X147786221Y-80354409D01*
X147781718Y-80361423D01*
X147776891Y-80368202D01*
X147771753Y-80374736D01*
X147766314Y-80381012D01*
X147760585Y-80387020D01*
X147754576Y-80392749D01*
X147748300Y-80398188D01*
X147741767Y-80403326D01*
X147734987Y-80408152D01*
X147727972Y-80412655D01*
X147720734Y-80416824D01*
X147713282Y-80420648D01*
X147705627Y-80424116D01*
X147697782Y-80427217D01*
X147689756Y-80429941D01*
X147681562Y-80432276D01*
X147673208Y-80434210D01*
X147664708Y-80435734D01*
X147656071Y-80436836D01*
X147647309Y-80437506D01*
X147638433Y-80437731D01*
X147629557Y-80437506D01*
X147620795Y-80436836D01*
X147612158Y-80435734D01*
X147603657Y-80434210D01*
X147595304Y-80432276D01*
X147587109Y-80429941D01*
X147579083Y-80427217D01*
X147571238Y-80424116D01*
X147563584Y-80420648D01*
X147556132Y-80416824D01*
X147548893Y-80412655D01*
X147541878Y-80408152D01*
X147535098Y-80403326D01*
X147528565Y-80398188D01*
X147522288Y-80392749D01*
X147516280Y-80387020D01*
X147510551Y-80381012D01*
X147505111Y-80374736D01*
X147499973Y-80368202D01*
X147495147Y-80361423D01*
X147490644Y-80354409D01*
X147486474Y-80347170D01*
X147482650Y-80339718D01*
X147479182Y-80332064D01*
X147476080Y-80324219D01*
X147473357Y-80316194D01*
X147471022Y-80307999D01*
X147469087Y-80299646D01*
X147467563Y-80291146D01*
X147466461Y-80282510D01*
X147465792Y-80273748D01*
X147465566Y-80264872D01*
X147465792Y-80255996D01*
X147466461Y-80247235D01*
X147467563Y-80238599D01*
X147469087Y-80230099D01*
X147471022Y-80221746D01*
X147473357Y-80213552D01*
X147476080Y-80205527D01*
X147479182Y-80197681D01*
X147482650Y-80190028D01*
X147486474Y-80182576D01*
X147490644Y-80175338D01*
X147495147Y-80168323D01*
X147499973Y-80161544D01*
X147505111Y-80155011D01*
X147510551Y-80148735D01*
X147516280Y-80142727D01*
X147522288Y-80136998D01*
X147528565Y-80131559D01*
X147535098Y-80126421D01*
X147541878Y-80121595D01*
X147548893Y-80117092D01*
X147556132Y-80112923D01*
X147563584Y-80109099D01*
X147571238Y-80105631D01*
X147579083Y-80102530D01*
X147587109Y-80099807D01*
X147595304Y-80097472D01*
X147603657Y-80095537D01*
X147612158Y-80094013D01*
X147620795Y-80092911D01*
X147629557Y-80092242D01*
X147638433Y-80092016D01*
X147647309Y-80092242D01*
G37*
G36*
X146895878Y-80092242D02*
G01*
X146904669Y-80092911D01*
X146913354Y-80094013D01*
X146921919Y-80095537D01*
X146930352Y-80097472D01*
X146938641Y-80099807D01*
X146946774Y-80102530D01*
X146954738Y-80105631D01*
X146962521Y-80109099D01*
X146970111Y-80112923D01*
X146977496Y-80117092D01*
X146984663Y-80121595D01*
X146991600Y-80126421D01*
X146998295Y-80131559D01*
X147004735Y-80136998D01*
X147010909Y-80142727D01*
X147016803Y-80148735D01*
X147022406Y-80155011D01*
X147027706Y-80161544D01*
X147032690Y-80168323D01*
X147037345Y-80175338D01*
X147041660Y-80182576D01*
X147045622Y-80190028D01*
X147049220Y-80197681D01*
X147052440Y-80205527D01*
X147055270Y-80213552D01*
X147057699Y-80221746D01*
X147059714Y-80230099D01*
X147061302Y-80238599D01*
X147062452Y-80247235D01*
X147063151Y-80255996D01*
X147063387Y-80264872D01*
X147063151Y-80273748D01*
X147062452Y-80282510D01*
X147061302Y-80291146D01*
X147059714Y-80299646D01*
X147057699Y-80307999D01*
X147055270Y-80316194D01*
X147052440Y-80324219D01*
X147049220Y-80332064D01*
X147045622Y-80339718D01*
X147041660Y-80347170D01*
X147037345Y-80354409D01*
X147032690Y-80361423D01*
X147027706Y-80368202D01*
X147022406Y-80374736D01*
X147016803Y-80381012D01*
X147010909Y-80387020D01*
X147004735Y-80392749D01*
X146998295Y-80398188D01*
X146991600Y-80403326D01*
X146984663Y-80408152D01*
X146977496Y-80412655D01*
X146970111Y-80416824D01*
X146962521Y-80420648D01*
X146954738Y-80424116D01*
X146946774Y-80427217D01*
X146938641Y-80429941D01*
X146930352Y-80432276D01*
X146921919Y-80434210D01*
X146913354Y-80435734D01*
X146904669Y-80436836D01*
X146895878Y-80437506D01*
X146886991Y-80437731D01*
X146878115Y-80437506D01*
X146869353Y-80436836D01*
X146860716Y-80435734D01*
X146852216Y-80434210D01*
X146843863Y-80432276D01*
X146835668Y-80429941D01*
X146827642Y-80427217D01*
X146819797Y-80424116D01*
X146812143Y-80420648D01*
X146804691Y-80416824D01*
X146797452Y-80412655D01*
X146790437Y-80408152D01*
X146783658Y-80403326D01*
X146777124Y-80398188D01*
X146770848Y-80392749D01*
X146764840Y-80387020D01*
X146759110Y-80381012D01*
X146753671Y-80374736D01*
X146748533Y-80368202D01*
X146743707Y-80361423D01*
X146739204Y-80354409D01*
X146735034Y-80347170D01*
X146731210Y-80339718D01*
X146727742Y-80332064D01*
X146724640Y-80324219D01*
X146721917Y-80316194D01*
X146719582Y-80307999D01*
X146717647Y-80299646D01*
X146716123Y-80291146D01*
X146715021Y-80282510D01*
X146714352Y-80273748D01*
X146714126Y-80264872D01*
X146714352Y-80255996D01*
X146715021Y-80247235D01*
X146716123Y-80238599D01*
X146717647Y-80230099D01*
X146719582Y-80221746D01*
X146721917Y-80213552D01*
X146724640Y-80205527D01*
X146727742Y-80197681D01*
X146731210Y-80190028D01*
X146735034Y-80182576D01*
X146739204Y-80175338D01*
X146743707Y-80168323D01*
X146748533Y-80161544D01*
X146753671Y-80155011D01*
X146759110Y-80148735D01*
X146764840Y-80142727D01*
X146770848Y-80136998D01*
X146777124Y-80131559D01*
X146783658Y-80126421D01*
X146790437Y-80121595D01*
X146797452Y-80117092D01*
X146804691Y-80112923D01*
X146812143Y-80109099D01*
X146819797Y-80105631D01*
X146827642Y-80102530D01*
X146835668Y-80099807D01*
X146843863Y-80097472D01*
X146852216Y-80095537D01*
X146860716Y-80094013D01*
X146869353Y-80092911D01*
X146878115Y-80092242D01*
X146886991Y-80092016D01*
X146895878Y-80092242D01*
G37*
G36*
X143609577Y-92841242D02*
G01*
X143606048Y-92837713D01*
X143609145Y-92837713D01*
X143609577Y-92841242D01*
G37*
G36*
X146424839Y-93056437D02*
G01*
X147144529Y-94051260D01*
X146661207Y-94051260D01*
X146029714Y-93130518D01*
X146029714Y-94051260D01*
X145641645Y-94051260D01*
X145641645Y-92252112D01*
X145645174Y-92255644D01*
X146033243Y-92255644D01*
X146033243Y-93031744D01*
X146636512Y-92248587D01*
X147088081Y-92248587D01*
X146424839Y-93056437D01*
G37*
G36*
X144653833Y-93747874D02*
G01*
X145426445Y-93747874D01*
X145426445Y-94054785D01*
X144258711Y-94054785D01*
X144258711Y-92252112D01*
X144653833Y-92252112D01*
X144653833Y-93747874D01*
G37*
G36*
X143367558Y-92238696D02*
G01*
X143403514Y-92240779D01*
X143438709Y-92244223D01*
X143473117Y-92249008D01*
X143506708Y-92255109D01*
X143539455Y-92262507D01*
X143571328Y-92271178D01*
X143602299Y-92281101D01*
X143632340Y-92292255D01*
X143661422Y-92304616D01*
X143689518Y-92318162D01*
X143716598Y-92332874D01*
X143742634Y-92348726D01*
X143767597Y-92365700D01*
X143791460Y-92383771D01*
X143814194Y-92402918D01*
X143835770Y-92423120D01*
X143856160Y-92444353D01*
X143875336Y-92466598D01*
X143893268Y-92489830D01*
X143909930Y-92514029D01*
X143925292Y-92539172D01*
X143939325Y-92565237D01*
X143952003Y-92592203D01*
X143963295Y-92620048D01*
X143973173Y-92648749D01*
X143981610Y-92678285D01*
X143988577Y-92708633D01*
X143994045Y-92739772D01*
X143997986Y-92771680D01*
X144000371Y-92804334D01*
X144001173Y-92837713D01*
X143609145Y-92837713D01*
X143605677Y-92809370D01*
X143602306Y-92788364D01*
X143597560Y-92764846D01*
X143591120Y-92739469D01*
X143582663Y-92712882D01*
X143571871Y-92685737D01*
X143565499Y-92672158D01*
X143558423Y-92658684D01*
X143550603Y-92645397D01*
X143541998Y-92632376D01*
X143532569Y-92619705D01*
X143522276Y-92607464D01*
X143511078Y-92595734D01*
X143498936Y-92584597D01*
X143485810Y-92574135D01*
X143471659Y-92564428D01*
X143456443Y-92555558D01*
X143440123Y-92547607D01*
X143422658Y-92540656D01*
X143404008Y-92534787D01*
X143384133Y-92530080D01*
X143362994Y-92526617D01*
X143340550Y-92524479D01*
X143316761Y-92523749D01*
X143290455Y-92524620D01*
X143265113Y-92527207D01*
X143240725Y-92531466D01*
X143217284Y-92537357D01*
X143194781Y-92544836D01*
X143173207Y-92553863D01*
X143152554Y-92564394D01*
X143132814Y-92576389D01*
X143113979Y-92589805D01*
X143096039Y-92604600D01*
X143078987Y-92620732D01*
X143062814Y-92638159D01*
X143047512Y-92656839D01*
X143033073Y-92676731D01*
X143019487Y-92697791D01*
X143006747Y-92719979D01*
X142994844Y-92743252D01*
X142983770Y-92767568D01*
X142973516Y-92792886D01*
X142964074Y-92819162D01*
X142955436Y-92846356D01*
X142947593Y-92874425D01*
X142940537Y-92903327D01*
X142934260Y-92933021D01*
X142928752Y-92963464D01*
X142924006Y-92994614D01*
X142916765Y-93058869D01*
X142912469Y-93125448D01*
X142911052Y-93194018D01*
X142911790Y-93251081D01*
X142913541Y-93290614D01*
X142916951Y-93335677D01*
X142922572Y-93384915D01*
X142930959Y-93436975D01*
X142942663Y-93490502D01*
X142958238Y-93544142D01*
X142967650Y-93570582D01*
X142978237Y-93596543D01*
X142990068Y-93621855D01*
X143003212Y-93646350D01*
X143017739Y-93669857D01*
X143033717Y-93692208D01*
X143051215Y-93713234D01*
X143070304Y-93732765D01*
X143091051Y-93750631D01*
X143113527Y-93766665D01*
X143137799Y-93780697D01*
X143163938Y-93792556D01*
X143192012Y-93802075D01*
X143222091Y-93809084D01*
X143254243Y-93813413D01*
X143288538Y-93814894D01*
X143318849Y-93813687D01*
X143348788Y-93810030D01*
X143363553Y-93807267D01*
X143378148Y-93803872D01*
X143392546Y-93799839D01*
X143406722Y-93795161D01*
X143420650Y-93789833D01*
X143434304Y-93783847D01*
X143447659Y-93777196D01*
X143460688Y-93769876D01*
X143473365Y-93761878D01*
X143485666Y-93753197D01*
X143497563Y-93743826D01*
X143509031Y-93733758D01*
X143520045Y-93722988D01*
X143530577Y-93711509D01*
X143540604Y-93699313D01*
X143550098Y-93686396D01*
X143559034Y-93672750D01*
X143567386Y-93658369D01*
X143575128Y-93643246D01*
X143582235Y-93627375D01*
X143588680Y-93610750D01*
X143594438Y-93593364D01*
X143599482Y-93575210D01*
X143603788Y-93556283D01*
X143607329Y-93536575D01*
X143610079Y-93516080D01*
X143612012Y-93494792D01*
X143613104Y-93472704D01*
X144018812Y-93472704D01*
X144015746Y-93515203D01*
X144010819Y-93562662D01*
X144007180Y-93587942D01*
X144002503Y-93614090D01*
X143996595Y-93640982D01*
X143989266Y-93668494D01*
X143980325Y-93696502D01*
X143969580Y-93724882D01*
X143956841Y-93753510D01*
X143941915Y-93782263D01*
X143924612Y-93811015D01*
X143915010Y-93825353D01*
X143904741Y-93839644D01*
X143893783Y-93853872D01*
X143882110Y-93868024D01*
X143869701Y-93882083D01*
X143856529Y-93896033D01*
X143826246Y-93925614D01*
X143795018Y-93952276D01*
X143762973Y-93976158D01*
X143730241Y-93997400D01*
X143696951Y-94016140D01*
X143663232Y-94032519D01*
X143629213Y-94046676D01*
X143595023Y-94058750D01*
X143560793Y-94068882D01*
X143526650Y-94077210D01*
X143492724Y-94083874D01*
X143459144Y-94089013D01*
X143426040Y-94092768D01*
X143393540Y-94095277D01*
X143361774Y-94096680D01*
X143330871Y-94097117D01*
X143273874Y-94095787D01*
X143219278Y-94091857D01*
X143167043Y-94085411D01*
X143117131Y-94076536D01*
X143069503Y-94065317D01*
X143024120Y-94051841D01*
X142980945Y-94036193D01*
X142939937Y-94018459D01*
X142901058Y-93998725D01*
X142864270Y-93977078D01*
X142829533Y-93953602D01*
X142796809Y-93928384D01*
X142766059Y-93901510D01*
X142737245Y-93873066D01*
X142710327Y-93843137D01*
X142685267Y-93811810D01*
X142662026Y-93779171D01*
X142640565Y-93745304D01*
X142620846Y-93710297D01*
X142602830Y-93674235D01*
X142586478Y-93637204D01*
X142571751Y-93599290D01*
X142558610Y-93560579D01*
X142547017Y-93521157D01*
X142528320Y-93440522D01*
X142515349Y-93358074D01*
X142507794Y-93274499D01*
X142505344Y-93190485D01*
X142509073Y-93085610D01*
X142513696Y-93034933D01*
X142520124Y-92985478D01*
X142528333Y-92937278D01*
X142538297Y-92890368D01*
X142549991Y-92844785D01*
X142563389Y-92800561D01*
X142578467Y-92757733D01*
X142595200Y-92716335D01*
X142613561Y-92676402D01*
X142633527Y-92637968D01*
X142655071Y-92601070D01*
X142678169Y-92565741D01*
X142702795Y-92532017D01*
X142728925Y-92499932D01*
X142756532Y-92469521D01*
X142785592Y-92440820D01*
X142816080Y-92413863D01*
X142847970Y-92388684D01*
X142881238Y-92365320D01*
X142915857Y-92343804D01*
X142951804Y-92324171D01*
X142989052Y-92306458D01*
X143027576Y-92290697D01*
X143067352Y-92276925D01*
X143108354Y-92265176D01*
X143150556Y-92255484D01*
X143193934Y-92247886D01*
X143238463Y-92242416D01*
X143284117Y-92239108D01*
X143330871Y-92237997D01*
X143367558Y-92238696D01*
G37*
G36*
X139782468Y-83248074D02*
G01*
X139784415Y-83222478D01*
X139787620Y-83197274D01*
X139792052Y-83172492D01*
X139797676Y-83148161D01*
X139804463Y-83124313D01*
X139812378Y-83100979D01*
X139821391Y-83078187D01*
X139831468Y-83055969D01*
X139842577Y-83034355D01*
X139854686Y-83013375D01*
X139867763Y-82993060D01*
X139881775Y-82973439D01*
X139896691Y-82954545D01*
X139912477Y-82936406D01*
X139929102Y-82919053D01*
X139946532Y-82902517D01*
X139964737Y-82886827D01*
X139983683Y-82872014D01*
X140003339Y-82858110D01*
X140023672Y-82845143D01*
X140044649Y-82833144D01*
X140066238Y-82822144D01*
X140088408Y-82812173D01*
X140111126Y-82803262D01*
X140134359Y-82795440D01*
X140158075Y-82788738D01*
X140182242Y-82783187D01*
X140206828Y-82778816D01*
X140231800Y-82775657D01*
X140257126Y-82773739D01*
X140282774Y-82773092D01*
X149282432Y-82773092D01*
X149308390Y-82773749D01*
X149333987Y-82775695D01*
X149359193Y-82778900D01*
X149383976Y-82783331D01*
X149408308Y-82788956D01*
X149432157Y-82795742D01*
X149455493Y-82803657D01*
X149478286Y-82812669D01*
X149500505Y-82822746D01*
X149522120Y-82833855D01*
X149543101Y-82845964D01*
X149563417Y-82859040D01*
X149583038Y-82873052D01*
X149601933Y-82887967D01*
X149620073Y-82903752D01*
X149637427Y-82920376D01*
X149653964Y-82937806D01*
X149669654Y-82956010D01*
X149684467Y-82974956D01*
X149698373Y-82994610D01*
X149711340Y-83014942D01*
X149723339Y-83035918D01*
X149734340Y-83057507D01*
X149744311Y-83079675D01*
X149753223Y-83102392D01*
X149761045Y-83125624D01*
X149767747Y-83149339D01*
X149773299Y-83173505D01*
X149777670Y-83198089D01*
X149780829Y-83223060D01*
X149782748Y-83248385D01*
X149783394Y-83274031D01*
X149783394Y-94273501D01*
X149782738Y-94299457D01*
X149780791Y-94325053D01*
X149777586Y-94350257D01*
X149773154Y-94375040D01*
X149767529Y-94399370D01*
X149760743Y-94423218D01*
X149752827Y-94446553D01*
X149743815Y-94469345D01*
X149733738Y-94491563D01*
X149722628Y-94513177D01*
X149710519Y-94534157D01*
X149697442Y-94554472D01*
X149683430Y-94574092D01*
X149668514Y-94592987D01*
X149652728Y-94611126D01*
X149636104Y-94628479D01*
X149618673Y-94645015D01*
X149600468Y-94660705D01*
X149581522Y-94675517D01*
X149561866Y-94689422D01*
X149541534Y-94702389D01*
X149520556Y-94714387D01*
X149498967Y-94725387D01*
X149476797Y-94735358D01*
X149454079Y-94744270D01*
X149430847Y-94752092D01*
X149407130Y-94758794D01*
X149382963Y-94764345D01*
X149358378Y-94768716D01*
X149333406Y-94771875D01*
X149308080Y-94773793D01*
X149282432Y-94774439D01*
X140282774Y-94774439D01*
X140256816Y-94773783D01*
X140231219Y-94771836D01*
X140206013Y-94768631D01*
X140181230Y-94764201D01*
X140156898Y-94758576D01*
X140133049Y-94751790D01*
X140109713Y-94743875D01*
X140086920Y-94734863D01*
X140064701Y-94724786D01*
X140043086Y-94713677D01*
X140022105Y-94701569D01*
X140001789Y-94688492D01*
X139982168Y-94674481D01*
X139963273Y-94659566D01*
X139945133Y-94643781D01*
X139927779Y-94627157D01*
X139911242Y-94609727D01*
X139895552Y-94591523D01*
X139880739Y-94572578D01*
X139866833Y-94552923D01*
X139853866Y-94532591D01*
X139841867Y-94511615D01*
X139830866Y-94490026D01*
X139820895Y-94467858D01*
X139811983Y-94445141D01*
X139804161Y-94421909D01*
X139797458Y-94398194D01*
X139791907Y-94374028D01*
X139787536Y-94349443D01*
X139784377Y-94324472D01*
X139782458Y-94299147D01*
X139781812Y-94273501D01*
X140134601Y-94273501D01*
X140134796Y-94281065D01*
X140135374Y-94288536D01*
X140136325Y-94295905D01*
X140137640Y-94303163D01*
X140139309Y-94310299D01*
X140141322Y-94317304D01*
X140143670Y-94324168D01*
X140146343Y-94330882D01*
X140149331Y-94337436D01*
X140152624Y-94343819D01*
X140156213Y-94350023D01*
X140160089Y-94356038D01*
X140164241Y-94361854D01*
X140168660Y-94367461D01*
X140173336Y-94372850D01*
X140178259Y-94378011D01*
X140183420Y-94382934D01*
X140188809Y-94387610D01*
X140194417Y-94392029D01*
X140200233Y-94396180D01*
X140206248Y-94400056D01*
X140212452Y-94403645D01*
X140218836Y-94406939D01*
X140225390Y-94409926D01*
X140232104Y-94412599D01*
X140238968Y-94414947D01*
X140245974Y-94416960D01*
X140253110Y-94418629D01*
X140260368Y-94419944D01*
X140267738Y-94420895D01*
X140275210Y-94421473D01*
X140282774Y-94421667D01*
X149282432Y-94421667D01*
X149289996Y-94421473D01*
X149297468Y-94420895D01*
X149304837Y-94419944D01*
X149312095Y-94418629D01*
X149319231Y-94416960D01*
X149326237Y-94414947D01*
X149333101Y-94412599D01*
X149339815Y-94409926D01*
X149346369Y-94406939D01*
X149352753Y-94403645D01*
X149358957Y-94400056D01*
X149364972Y-94396180D01*
X149370788Y-94392029D01*
X149376395Y-94387610D01*
X149381784Y-94382934D01*
X149386945Y-94378011D01*
X149391869Y-94372850D01*
X149396544Y-94367461D01*
X149400963Y-94361854D01*
X149405115Y-94356038D01*
X149408991Y-94350023D01*
X149412580Y-94343819D01*
X149415874Y-94337436D01*
X149418862Y-94330882D01*
X149421534Y-94324168D01*
X149423882Y-94317304D01*
X149425895Y-94310299D01*
X149427564Y-94303163D01*
X149428879Y-94295905D01*
X149429830Y-94288536D01*
X149430408Y-94281065D01*
X149430603Y-94273501D01*
X149430603Y-83274031D01*
X149430408Y-83266467D01*
X149429830Y-83258996D01*
X149428879Y-83251626D01*
X149427564Y-83244369D01*
X149425895Y-83237233D01*
X149423882Y-83230227D01*
X149421534Y-83223363D01*
X149418862Y-83216649D01*
X149415874Y-83210096D01*
X149412580Y-83203712D01*
X149408991Y-83197508D01*
X149405116Y-83191493D01*
X149400964Y-83185678D01*
X149396545Y-83180070D01*
X149391869Y-83174681D01*
X149386946Y-83169521D01*
X149381785Y-83164598D01*
X149376396Y-83159922D01*
X149370789Y-83155503D01*
X149364973Y-83151351D01*
X149358958Y-83147476D01*
X149352753Y-83143886D01*
X149346370Y-83140593D01*
X149339816Y-83137605D01*
X149333102Y-83134933D01*
X149326237Y-83132585D01*
X149319232Y-83130572D01*
X149312096Y-83128903D01*
X149304838Y-83127588D01*
X149297468Y-83126637D01*
X149289996Y-83126059D01*
X149282432Y-83125864D01*
X140282774Y-83125864D01*
X140275210Y-83126059D01*
X140267738Y-83126637D01*
X140260368Y-83127588D01*
X140253110Y-83128903D01*
X140245974Y-83130572D01*
X140238968Y-83132585D01*
X140232104Y-83134933D01*
X140225390Y-83137605D01*
X140218836Y-83140593D01*
X140212452Y-83143886D01*
X140206248Y-83147476D01*
X140200233Y-83151351D01*
X140194417Y-83155503D01*
X140188809Y-83159922D01*
X140183420Y-83164598D01*
X140178259Y-83169521D01*
X140173336Y-83174681D01*
X140168660Y-83180070D01*
X140164241Y-83185678D01*
X140160089Y-83191493D01*
X140156213Y-83197508D01*
X140152624Y-83203712D01*
X140149331Y-83210096D01*
X140146343Y-83216649D01*
X140143670Y-83223363D01*
X140141322Y-83230227D01*
X140139309Y-83237233D01*
X140137640Y-83244369D01*
X140136325Y-83251626D01*
X140135374Y-83258996D01*
X140134796Y-83266467D01*
X140134601Y-83274031D01*
X140134601Y-94273501D01*
X139781812Y-94273501D01*
X139781812Y-83274031D01*
X139782468Y-83248074D01*
G37*
G36*
X133519800Y-92587244D02*
G01*
X133530487Y-92572417D01*
X133537016Y-92564052D01*
X133544440Y-92555274D01*
X133552835Y-92546249D01*
X133562279Y-92537140D01*
X133567418Y-92532607D01*
X133572850Y-92528115D01*
X133578582Y-92523684D01*
X133584624Y-92519337D01*
X133590988Y-92515093D01*
X133597681Y-92510973D01*
X133604714Y-92506997D01*
X133612097Y-92503187D01*
X133619838Y-92499563D01*
X133627949Y-92496146D01*
X133636438Y-92492956D01*
X133645315Y-92490014D01*
X133654591Y-92487341D01*
X133664274Y-92484957D01*
X133674374Y-92482883D01*
X133684901Y-92481140D01*
X133695865Y-92479749D01*
X133707275Y-92478729D01*
X133719142Y-92478102D01*
X133731474Y-92477888D01*
X133751526Y-92478494D01*
X133770673Y-92480252D01*
X133788921Y-92483074D01*
X133806276Y-92486873D01*
X133822741Y-92491560D01*
X133838323Y-92497049D01*
X133853026Y-92503251D01*
X133866856Y-92510078D01*
X133879818Y-92517442D01*
X133891917Y-92525256D01*
X133903158Y-92533432D01*
X133913546Y-92541882D01*
X133923086Y-92550517D01*
X133931785Y-92559251D01*
X133939646Y-92567995D01*
X133946675Y-92576662D01*
X133951881Y-92583649D01*
X133956900Y-92591380D01*
X133961713Y-92599855D01*
X133966299Y-92609074D01*
X133970636Y-92619037D01*
X133974705Y-92629744D01*
X133978485Y-92641195D01*
X133981954Y-92653391D01*
X133985093Y-92666330D01*
X133987880Y-92680014D01*
X133990295Y-92694442D01*
X133992317Y-92709615D01*
X133993926Y-92725531D01*
X133995101Y-92742192D01*
X133995821Y-92759597D01*
X133996066Y-92777746D01*
X133996066Y-93225771D01*
X133780864Y-93225771D01*
X133780864Y-92784804D01*
X133780629Y-92765829D01*
X133780073Y-92754434D01*
X133778989Y-92742140D01*
X133777203Y-92729227D01*
X133774538Y-92715972D01*
X133770819Y-92702655D01*
X133768509Y-92696060D01*
X133765870Y-92689555D01*
X133762879Y-92683174D01*
X133759515Y-92676951D01*
X133755756Y-92670922D01*
X133751579Y-92665122D01*
X133746963Y-92659586D01*
X133741886Y-92654348D01*
X133736326Y-92649443D01*
X133730260Y-92644907D01*
X133723668Y-92640773D01*
X133716526Y-92637078D01*
X133708813Y-92633855D01*
X133700507Y-92631140D01*
X133691587Y-92628968D01*
X133682029Y-92627373D01*
X133671813Y-92626390D01*
X133660915Y-92626055D01*
X133649486Y-92626480D01*
X133637784Y-92627798D01*
X133625947Y-92630078D01*
X133614115Y-92633387D01*
X133608245Y-92635448D01*
X133602428Y-92637791D01*
X133596683Y-92640424D01*
X133591026Y-92643357D01*
X133585474Y-92646598D01*
X133580047Y-92650154D01*
X133574759Y-92654034D01*
X133569631Y-92658247D01*
X133564678Y-92662801D01*
X133559918Y-92667705D01*
X133555369Y-92672966D01*
X133551047Y-92678594D01*
X133546972Y-92684596D01*
X133543159Y-92690981D01*
X133539626Y-92697758D01*
X133536392Y-92704934D01*
X133533472Y-92712519D01*
X133530885Y-92720520D01*
X133528649Y-92728947D01*
X133526780Y-92737806D01*
X133525295Y-92747108D01*
X133524214Y-92756859D01*
X133523552Y-92767069D01*
X133523328Y-92777746D01*
X133523328Y-93229296D01*
X133308125Y-93229296D01*
X133308125Y-92174502D01*
X133304598Y-92170977D01*
X133519800Y-92170977D01*
X133519800Y-92587244D01*
G37*
G36*
X132990616Y-92492007D02*
G01*
X133167010Y-92492007D01*
X133167010Y-92636645D01*
X132990616Y-92636645D01*
X132990616Y-92968252D01*
X132990808Y-92992196D01*
X132991267Y-93003235D01*
X132992159Y-93013617D01*
X132993630Y-93023318D01*
X132994628Y-93027904D01*
X132995825Y-93032310D01*
X132997238Y-93036533D01*
X132998887Y-93040569D01*
X133000790Y-93044415D01*
X133002963Y-93048068D01*
X133005426Y-93051524D01*
X133008196Y-93054781D01*
X133011292Y-93057835D01*
X133014732Y-93060683D01*
X133018533Y-93063322D01*
X133022714Y-93065749D01*
X133027294Y-93067959D01*
X133032289Y-93069951D01*
X133037718Y-93071720D01*
X133043599Y-93073264D01*
X133049951Y-93074579D01*
X133056791Y-93075662D01*
X133064137Y-93076510D01*
X133072008Y-93077120D01*
X133080422Y-93077489D01*
X133089396Y-93077612D01*
X133110399Y-93077557D01*
X133119349Y-93077426D01*
X133127762Y-93077171D01*
X133136010Y-93076751D01*
X133144465Y-93076124D01*
X133153498Y-93075248D01*
X133163482Y-93074084D01*
X133163482Y-93215185D01*
X133137395Y-93221312D01*
X133112217Y-93226488D01*
X133088197Y-93230754D01*
X133065583Y-93234152D01*
X133044623Y-93236722D01*
X133025564Y-93238507D01*
X133008654Y-93239548D01*
X132994143Y-93239886D01*
X132974271Y-93239489D01*
X132955641Y-93238326D01*
X132938213Y-93236435D01*
X132921945Y-93233857D01*
X132906799Y-93230630D01*
X132892735Y-93226793D01*
X132879712Y-93222387D01*
X132867690Y-93217451D01*
X132856629Y-93212024D01*
X132846490Y-93206145D01*
X132837231Y-93199854D01*
X132828814Y-93193190D01*
X132821198Y-93186193D01*
X132814343Y-93178903D01*
X132808208Y-93171357D01*
X132802754Y-93163597D01*
X132797942Y-93155661D01*
X132793730Y-93147588D01*
X132790078Y-93139419D01*
X132786948Y-93131192D01*
X132782088Y-93114724D01*
X132778831Y-93098498D01*
X132776855Y-93082831D01*
X132775840Y-93068037D01*
X132775413Y-93042330D01*
X132775413Y-92636645D01*
X132634298Y-92636645D01*
X132634298Y-92492007D01*
X132775413Y-92492007D01*
X132775413Y-92347368D01*
X132990616Y-92269758D01*
X132990616Y-92492007D01*
G37*
G36*
X129113459Y-94054785D02*
G01*
X128820644Y-94054785D01*
X129498000Y-92262694D01*
X129783759Y-92262694D01*
X129113459Y-94054785D01*
G37*
G36*
X128376128Y-94058310D02*
G01*
X127998644Y-94058310D01*
X127998644Y-92703661D01*
X127967610Y-92726234D01*
X127930291Y-92751287D01*
X127887019Y-92778324D01*
X127838125Y-92806849D01*
X127811672Y-92821514D01*
X127783938Y-92836366D01*
X127754964Y-92851342D01*
X127724791Y-92866379D01*
X127693460Y-92881417D01*
X127661014Y-92896392D01*
X127627492Y-92911244D01*
X127592936Y-92925909D01*
X127592936Y-92576662D01*
X127653455Y-92549385D01*
X127713270Y-92520495D01*
X127772342Y-92490035D01*
X127830628Y-92458044D01*
X127888087Y-92424564D01*
X127944678Y-92389638D01*
X128000359Y-92353305D01*
X128055090Y-92315607D01*
X128376128Y-92315607D01*
X128376128Y-94058310D01*
G37*
G36*
X130877406Y-94058310D02*
G01*
X130499921Y-94058310D01*
X130499921Y-92703661D01*
X130468887Y-92726234D01*
X130431568Y-92751287D01*
X130388297Y-92778324D01*
X130339402Y-92806849D01*
X130312950Y-92821514D01*
X130285216Y-92836366D01*
X130256242Y-92851342D01*
X130226069Y-92866379D01*
X130194738Y-92881417D01*
X130162291Y-92896392D01*
X130128769Y-92911244D01*
X130094214Y-92925909D01*
X130094214Y-92576662D01*
X130154732Y-92549385D01*
X130214548Y-92520495D01*
X130273619Y-92490035D01*
X130331905Y-92458044D01*
X130389364Y-92424564D01*
X130445955Y-92389638D01*
X130501637Y-92353305D01*
X130556368Y-92315607D01*
X130877406Y-92315607D01*
X130877406Y-94058310D01*
G37*
G36*
X131340738Y-93392548D02*
G01*
X131339559Y-93299849D01*
X131341992Y-93168619D01*
X131345350Y-93103258D01*
X131350419Y-93038465D01*
X131357410Y-92974540D01*
X131366535Y-92911783D01*
X131378007Y-92850494D01*
X131392037Y-92790972D01*
X131408836Y-92733517D01*
X131428618Y-92678429D01*
X131451593Y-92626008D01*
X131477974Y-92576552D01*
X131507972Y-92530363D01*
X131541800Y-92487740D01*
X131560216Y-92467859D01*
X131579669Y-92448982D01*
X131600185Y-92431146D01*
X131621791Y-92414389D01*
X131650570Y-92393818D01*
X131679877Y-92375660D01*
X131709493Y-92359766D01*
X131739203Y-92345985D01*
X131768789Y-92334168D01*
X131798034Y-92324164D01*
X131826720Y-92315824D01*
X131854631Y-92308999D01*
X131881550Y-92303538D01*
X131907260Y-92299291D01*
X131931544Y-92296108D01*
X131954184Y-92293840D01*
X131993666Y-92291449D01*
X132023970Y-92290919D01*
X132072739Y-92292503D01*
X132120918Y-92297306D01*
X132168168Y-92305406D01*
X132214146Y-92316881D01*
X132258511Y-92331807D01*
X132279983Y-92340589D01*
X132300924Y-92350264D01*
X132321291Y-92360839D01*
X132341041Y-92372326D01*
X132360133Y-92384735D01*
X132378524Y-92398074D01*
X132396170Y-92412353D01*
X132413029Y-92427583D01*
X132429059Y-92443773D01*
X132444217Y-92460932D01*
X132458460Y-92479071D01*
X132471746Y-92498198D01*
X132484032Y-92518324D01*
X132495275Y-92539458D01*
X132505433Y-92561610D01*
X132514463Y-92584790D01*
X132522323Y-92609007D01*
X132528969Y-92634272D01*
X132534360Y-92660593D01*
X132538452Y-92687980D01*
X132541203Y-92716444D01*
X132542571Y-92745993D01*
X132172142Y-92745993D01*
X132171266Y-92734638D01*
X132169966Y-92723708D01*
X132168254Y-92713204D01*
X132166141Y-92703120D01*
X132163638Y-92693452D01*
X132160756Y-92684195D01*
X132157505Y-92675346D01*
X132153897Y-92666898D01*
X132149943Y-92658849D01*
X132145654Y-92651193D01*
X132141040Y-92643926D01*
X132136113Y-92637044D01*
X132130884Y-92630541D01*
X132125363Y-92624413D01*
X132119562Y-92618656D01*
X132113492Y-92613266D01*
X132107163Y-92608237D01*
X132100587Y-92603565D01*
X132093774Y-92599246D01*
X132086737Y-92595276D01*
X132079484Y-92591649D01*
X132072028Y-92588361D01*
X132064380Y-92585407D01*
X132056550Y-92582784D01*
X132048549Y-92580486D01*
X132040389Y-92578509D01*
X132023634Y-92575501D01*
X132006373Y-92573722D01*
X131988693Y-92573138D01*
X131965916Y-92574034D01*
X131944522Y-92576668D01*
X131924466Y-92580960D01*
X131905705Y-92586828D01*
X131888194Y-92594193D01*
X131871890Y-92602973D01*
X131856749Y-92613087D01*
X131842726Y-92624455D01*
X131829779Y-92636996D01*
X131817862Y-92650629D01*
X131806933Y-92665275D01*
X131796946Y-92680850D01*
X131787859Y-92697276D01*
X131779627Y-92714471D01*
X131772207Y-92732355D01*
X131765553Y-92750847D01*
X131759624Y-92769865D01*
X131754374Y-92789330D01*
X131749759Y-92809161D01*
X131745736Y-92829276D01*
X131739290Y-92870039D01*
X131734684Y-92910972D01*
X131731566Y-92951430D01*
X131729585Y-92990766D01*
X131727628Y-93063490D01*
X131753040Y-93041222D01*
X131767069Y-93029509D01*
X131782090Y-93017631D01*
X131798186Y-93005753D01*
X131815440Y-92994040D01*
X131833934Y-92982658D01*
X131853751Y-92971771D01*
X131864181Y-92966566D01*
X131874973Y-92961547D01*
X131886137Y-92956734D01*
X131897684Y-92952149D01*
X131909623Y-92947812D01*
X131921966Y-92943743D01*
X131934721Y-92939964D01*
X131947901Y-92936495D01*
X131961515Y-92933357D01*
X131975573Y-92930570D01*
X131990086Y-92928155D01*
X132005064Y-92926133D01*
X132020517Y-92924524D01*
X132036456Y-92923349D01*
X132052892Y-92922629D01*
X132069833Y-92922385D01*
X132092688Y-92922892D01*
X132115575Y-92924418D01*
X132138445Y-92926969D01*
X132161249Y-92930549D01*
X132183936Y-92935166D01*
X132206458Y-92940825D01*
X132228764Y-92947532D01*
X132250804Y-92955292D01*
X132272529Y-92964112D01*
X132293889Y-92973997D01*
X132314834Y-92984952D01*
X132335315Y-92996985D01*
X132355281Y-93010100D01*
X132374684Y-93024303D01*
X132393473Y-93039601D01*
X132411599Y-93055999D01*
X132429011Y-93073503D01*
X132445661Y-93092118D01*
X132461497Y-93111851D01*
X132476472Y-93132707D01*
X132490534Y-93154692D01*
X132503635Y-93177812D01*
X132515724Y-93202073D01*
X132526751Y-93227480D01*
X132536668Y-93254040D01*
X132545423Y-93281758D01*
X132552969Y-93310640D01*
X132559253Y-93340691D01*
X132564228Y-93371919D01*
X132567843Y-93404327D01*
X132570049Y-93437923D01*
X132570795Y-93472712D01*
X132570169Y-93508440D01*
X132568266Y-93542908D01*
X132565051Y-93576176D01*
X132560487Y-93608308D01*
X132554538Y-93639365D01*
X132547168Y-93669410D01*
X132538340Y-93698503D01*
X132528019Y-93726708D01*
X132516168Y-93754086D01*
X132502752Y-93780698D01*
X132487733Y-93806609D01*
X132471077Y-93831878D01*
X132452745Y-93856568D01*
X132432704Y-93880742D01*
X132410915Y-93904460D01*
X132387344Y-93927786D01*
X132365298Y-93947049D01*
X132342777Y-93965144D01*
X132319718Y-93982061D01*
X132296060Y-93997789D01*
X132271740Y-94012319D01*
X132246697Y-94025639D01*
X132220868Y-94037740D01*
X132194192Y-94048611D01*
X132166606Y-94058242D01*
X132138049Y-94066623D01*
X132108458Y-94073742D01*
X132077772Y-94079590D01*
X132045928Y-94084157D01*
X132012864Y-94087431D01*
X131978519Y-94089404D01*
X131942830Y-94090063D01*
X131888022Y-94088377D01*
X131836639Y-94083437D01*
X131788569Y-94075419D01*
X131743703Y-94064501D01*
X131701930Y-94050860D01*
X131663140Y-94034672D01*
X131627221Y-94016115D01*
X131594064Y-93995365D01*
X131563558Y-93972601D01*
X131535593Y-93947998D01*
X131510058Y-93921733D01*
X131486842Y-93893984D01*
X131465836Y-93864928D01*
X131446928Y-93834741D01*
X131430009Y-93803601D01*
X131414968Y-93771684D01*
X131401694Y-93739168D01*
X131390077Y-93706230D01*
X131380007Y-93673046D01*
X131371372Y-93639794D01*
X131357970Y-93573791D01*
X131348985Y-93509639D01*
X131348838Y-93507986D01*
X131724101Y-93507986D01*
X131724438Y-93527790D01*
X131725438Y-93546856D01*
X131727077Y-93565192D01*
X131729337Y-93582806D01*
X131732197Y-93599703D01*
X131735635Y-93615893D01*
X131739632Y-93631380D01*
X131744166Y-93646174D01*
X131749216Y-93660280D01*
X131754763Y-93673705D01*
X131760785Y-93686458D01*
X131767262Y-93698545D01*
X131774174Y-93709973D01*
X131781498Y-93720749D01*
X131789215Y-93730880D01*
X131797305Y-93740374D01*
X131805745Y-93749238D01*
X131814517Y-93757478D01*
X131823599Y-93765102D01*
X131832969Y-93772117D01*
X131842609Y-93778529D01*
X131852497Y-93784347D01*
X131862612Y-93789577D01*
X131872934Y-93794227D01*
X131894115Y-93801812D01*
X131915875Y-93807159D01*
X131938048Y-93810326D01*
X131960470Y-93811369D01*
X131980605Y-93810479D01*
X132001165Y-93807724D01*
X132011529Y-93805607D01*
X132021910Y-93802974D01*
X132032278Y-93799811D01*
X132042604Y-93796100D01*
X132052857Y-93791827D01*
X132063008Y-93786973D01*
X132073027Y-93781525D01*
X132082885Y-93775464D01*
X132092552Y-93768776D01*
X132101997Y-93761444D01*
X132111192Y-93753451D01*
X132120107Y-93744782D01*
X132128712Y-93735421D01*
X132136977Y-93725351D01*
X132144872Y-93714557D01*
X132152368Y-93703021D01*
X132159435Y-93690729D01*
X132166044Y-93677663D01*
X132172164Y-93663808D01*
X132177766Y-93649148D01*
X132182820Y-93633666D01*
X132187297Y-93617346D01*
X132191167Y-93600172D01*
X132194400Y-93582128D01*
X132196966Y-93563198D01*
X132198835Y-93543366D01*
X132199979Y-93522615D01*
X132200367Y-93500932D01*
X132199226Y-93465591D01*
X132195874Y-93432341D01*
X132190413Y-93401211D01*
X132186925Y-93386448D01*
X132182948Y-93372225D01*
X132178495Y-93358544D01*
X132173580Y-93345409D01*
X132168215Y-93332824D01*
X132162414Y-93320790D01*
X132156189Y-93309312D01*
X132149553Y-93298393D01*
X132142519Y-93288036D01*
X132135100Y-93278244D01*
X132127310Y-93269020D01*
X132119159Y-93260368D01*
X132110663Y-93252291D01*
X132101833Y-93244792D01*
X132092683Y-93237875D01*
X132083226Y-93231542D01*
X132073474Y-93225797D01*
X132063440Y-93220643D01*
X132053138Y-93216083D01*
X132042579Y-93212120D01*
X132031778Y-93208759D01*
X132020747Y-93206001D01*
X132009499Y-93203851D01*
X131998047Y-93202311D01*
X131986403Y-93201384D01*
X131974581Y-93201075D01*
X131961303Y-93201576D01*
X131945586Y-93203266D01*
X131927885Y-93206423D01*
X131908654Y-93211327D01*
X131888348Y-93218257D01*
X131877934Y-93222568D01*
X131867422Y-93227491D01*
X131856868Y-93233060D01*
X131846330Y-93239309D01*
X131835864Y-93246274D01*
X131825528Y-93253990D01*
X131815377Y-93262491D01*
X131805470Y-93271813D01*
X131795862Y-93281990D01*
X131786611Y-93293057D01*
X131777773Y-93305048D01*
X131769405Y-93318000D01*
X131761565Y-93331947D01*
X131754308Y-93346923D01*
X131747693Y-93362964D01*
X131741775Y-93380104D01*
X131736611Y-93398379D01*
X131732259Y-93417822D01*
X131728775Y-93438470D01*
X131726216Y-93460357D01*
X131724639Y-93483517D01*
X131724101Y-93507986D01*
X131348838Y-93507986D01*
X131343536Y-93448753D01*
X131340738Y-93392548D01*
G37*
G36*
X125812005Y-83248074D02*
G01*
X125813952Y-83222478D01*
X125817157Y-83197274D01*
X125821588Y-83172492D01*
X125827213Y-83148161D01*
X125834000Y-83124313D01*
X125841916Y-83100979D01*
X125850928Y-83078187D01*
X125861005Y-83055969D01*
X125872114Y-83034355D01*
X125884224Y-83013375D01*
X125897300Y-82993060D01*
X125911313Y-82973439D01*
X125926228Y-82954545D01*
X125942014Y-82936406D01*
X125958639Y-82919053D01*
X125976070Y-82902517D01*
X125994274Y-82886827D01*
X126013221Y-82872014D01*
X126032876Y-82858110D01*
X126053209Y-82845143D01*
X126074186Y-82833144D01*
X126095776Y-82822144D01*
X126117945Y-82812173D01*
X126140663Y-82803262D01*
X126163896Y-82795440D01*
X126187612Y-82788738D01*
X126211779Y-82783187D01*
X126236365Y-82778816D01*
X126261337Y-82775657D01*
X126286663Y-82773739D01*
X126312310Y-82773092D01*
X135311969Y-82773092D01*
X135337927Y-82773749D01*
X135363524Y-82775695D01*
X135388730Y-82778900D01*
X135413513Y-82783331D01*
X135437845Y-82788956D01*
X135461694Y-82795742D01*
X135485030Y-82803657D01*
X135507822Y-82812669D01*
X135530041Y-82822746D01*
X135551656Y-82833855D01*
X135572637Y-82845964D01*
X135592953Y-82859040D01*
X135612574Y-82873052D01*
X135631470Y-82887967D01*
X135649610Y-82903752D01*
X135666963Y-82920376D01*
X135683500Y-82937806D01*
X135699191Y-82956010D01*
X135714003Y-82974956D01*
X135727909Y-82994610D01*
X135740876Y-83014942D01*
X135752875Y-83035918D01*
X135763876Y-83057507D01*
X135773847Y-83079675D01*
X135782759Y-83102392D01*
X135790582Y-83125624D01*
X135797284Y-83149339D01*
X135802835Y-83173505D01*
X135807206Y-83198089D01*
X135810366Y-83223060D01*
X135812284Y-83248385D01*
X135812930Y-83274031D01*
X135812930Y-94273501D01*
X135812274Y-94299457D01*
X135810327Y-94325053D01*
X135807122Y-94350257D01*
X135802691Y-94375040D01*
X135797066Y-94399370D01*
X135790279Y-94423218D01*
X135782364Y-94446553D01*
X135773351Y-94469345D01*
X135763274Y-94491563D01*
X135752165Y-94513177D01*
X135740056Y-94534157D01*
X135726979Y-94554472D01*
X135712966Y-94574092D01*
X135698051Y-94592987D01*
X135682265Y-94611126D01*
X135665640Y-94628479D01*
X135648210Y-94645015D01*
X135630005Y-94660705D01*
X135611059Y-94675517D01*
X135591403Y-94689422D01*
X135571070Y-94702389D01*
X135550093Y-94714387D01*
X135528504Y-94725387D01*
X135506334Y-94735358D01*
X135483617Y-94744270D01*
X135460384Y-94752092D01*
X135436667Y-94758794D01*
X135412500Y-94764345D01*
X135387915Y-94768716D01*
X135362943Y-94771875D01*
X135337617Y-94773793D01*
X135311969Y-94774439D01*
X126312310Y-94774439D01*
X126286352Y-94773783D01*
X126260755Y-94771836D01*
X126235550Y-94768631D01*
X126210766Y-94764201D01*
X126186435Y-94758576D01*
X126162586Y-94751790D01*
X126139250Y-94743875D01*
X126116457Y-94734863D01*
X126094238Y-94724786D01*
X126072623Y-94713677D01*
X126051642Y-94701569D01*
X126031326Y-94688492D01*
X126011705Y-94674481D01*
X125992809Y-94659566D01*
X125974670Y-94643781D01*
X125957316Y-94627157D01*
X125940779Y-94609727D01*
X125925089Y-94591523D01*
X125910276Y-94572578D01*
X125896370Y-94552923D01*
X125883403Y-94532591D01*
X125871404Y-94511615D01*
X125860403Y-94490026D01*
X125850432Y-94467858D01*
X125841520Y-94445141D01*
X125833698Y-94421909D01*
X125826995Y-94398194D01*
X125821444Y-94374028D01*
X125817073Y-94349443D01*
X125813913Y-94324472D01*
X125811995Y-94299147D01*
X125811349Y-94273501D01*
X126164139Y-94273501D01*
X126164333Y-94281065D01*
X126164911Y-94288536D01*
X126165862Y-94295905D01*
X126167177Y-94303163D01*
X126168846Y-94310299D01*
X126170860Y-94317304D01*
X126173207Y-94324168D01*
X126175880Y-94330882D01*
X126178868Y-94337436D01*
X126182162Y-94343819D01*
X126185751Y-94350023D01*
X126189626Y-94356038D01*
X126193778Y-94361854D01*
X126198197Y-94367461D01*
X126202873Y-94372850D01*
X126207797Y-94378011D01*
X126212958Y-94382934D01*
X126218347Y-94387610D01*
X126223954Y-94392029D01*
X126229770Y-94396180D01*
X126235785Y-94400056D01*
X126241989Y-94403645D01*
X126248373Y-94406939D01*
X126254927Y-94409926D01*
X126261641Y-94412599D01*
X126268505Y-94414947D01*
X126275511Y-94416960D01*
X126282647Y-94418629D01*
X126289905Y-94419944D01*
X126297275Y-94420895D01*
X126304746Y-94421473D01*
X126312310Y-94421667D01*
X135311969Y-94421667D01*
X135319533Y-94421473D01*
X135327005Y-94420895D01*
X135334375Y-94419944D01*
X135341633Y-94418629D01*
X135348769Y-94416960D01*
X135355774Y-94414947D01*
X135362639Y-94412599D01*
X135369353Y-94409926D01*
X135375906Y-94406939D01*
X135382290Y-94403645D01*
X135388494Y-94400056D01*
X135394509Y-94396180D01*
X135400325Y-94392029D01*
X135405933Y-94387610D01*
X135411322Y-94382934D01*
X135416483Y-94378011D01*
X135421406Y-94372850D01*
X135426082Y-94367461D01*
X135430501Y-94361854D01*
X135434653Y-94356038D01*
X135438528Y-94350023D01*
X135442117Y-94343819D01*
X135445411Y-94337436D01*
X135448399Y-94330882D01*
X135451072Y-94324168D01*
X135453419Y-94317304D01*
X135455432Y-94310299D01*
X135457101Y-94303163D01*
X135458416Y-94295905D01*
X135459367Y-94288536D01*
X135459945Y-94281065D01*
X135460140Y-94273501D01*
X135460140Y-83274031D01*
X135459945Y-83266467D01*
X135459367Y-83258996D01*
X135458416Y-83251626D01*
X135457101Y-83244369D01*
X135455432Y-83237233D01*
X135453419Y-83230227D01*
X135451072Y-83223363D01*
X135448399Y-83216649D01*
X135445411Y-83210096D01*
X135442117Y-83203712D01*
X135438528Y-83197508D01*
X135434653Y-83191493D01*
X135430501Y-83185678D01*
X135426082Y-83180070D01*
X135421406Y-83174681D01*
X135416483Y-83169521D01*
X135411322Y-83164598D01*
X135405933Y-83159922D01*
X135400325Y-83155503D01*
X135394509Y-83151351D01*
X135388494Y-83147476D01*
X135382290Y-83143886D01*
X135375906Y-83140593D01*
X135369353Y-83137605D01*
X135362639Y-83134933D01*
X135355774Y-83132585D01*
X135348769Y-83130572D01*
X135341633Y-83128903D01*
X135334375Y-83127588D01*
X135327005Y-83126637D01*
X135319533Y-83126059D01*
X135311969Y-83125864D01*
X126312310Y-83125864D01*
X126304746Y-83126059D01*
X126297275Y-83126637D01*
X126289905Y-83127588D01*
X126282647Y-83128903D01*
X126275511Y-83130572D01*
X126268505Y-83132585D01*
X126261641Y-83134933D01*
X126254927Y-83137605D01*
X126248373Y-83140593D01*
X126241989Y-83143886D01*
X126235785Y-83147476D01*
X126229770Y-83151351D01*
X126223954Y-83155503D01*
X126218346Y-83159922D01*
X126212957Y-83164598D01*
X126207796Y-83169521D01*
X126202873Y-83174681D01*
X126198197Y-83180070D01*
X126193778Y-83185678D01*
X126189626Y-83191493D01*
X126185751Y-83197508D01*
X126182162Y-83203712D01*
X126178868Y-83210096D01*
X126175880Y-83216649D01*
X126173207Y-83223363D01*
X126170860Y-83230227D01*
X126168846Y-83237233D01*
X126167177Y-83244369D01*
X126165862Y-83251626D01*
X126164911Y-83258996D01*
X126164333Y-83266467D01*
X126164139Y-83274031D01*
X126164139Y-94273501D01*
X125811349Y-94273501D01*
X125811349Y-83274031D01*
X125812005Y-83248074D01*
G37*
G36*
X140974241Y-109354567D02*
G01*
X140970712Y-109354567D01*
X140974241Y-109351050D01*
X140974241Y-109354567D01*
G37*
G36*
X141662180Y-109354567D02*
G01*
X141737478Y-109354808D01*
X141812115Y-109356496D01*
X141848979Y-109358335D01*
X141885429Y-109361078D01*
X141921383Y-109364907D01*
X141956759Y-109370001D01*
X141991473Y-109376543D01*
X142025442Y-109384712D01*
X142058585Y-109394690D01*
X142090819Y-109406657D01*
X142122060Y-109420796D01*
X142152226Y-109437285D01*
X142181235Y-109456306D01*
X142209003Y-109478041D01*
X142229390Y-109496923D01*
X142248237Y-109516481D01*
X142265575Y-109536649D01*
X142281435Y-109557360D01*
X142295848Y-109578546D01*
X142308845Y-109600141D01*
X142320458Y-109622076D01*
X142330716Y-109644285D01*
X142339651Y-109666702D01*
X142347294Y-109689257D01*
X142353677Y-109711885D01*
X142358829Y-109734518D01*
X142362783Y-109757089D01*
X142365568Y-109779531D01*
X142367217Y-109801777D01*
X142367759Y-109823759D01*
X142366927Y-109854751D01*
X142364489Y-109884251D01*
X142360536Y-109912298D01*
X142355157Y-109938929D01*
X142348442Y-109964183D01*
X142340481Y-109988098D01*
X142331364Y-110010712D01*
X142321180Y-110032063D01*
X142310020Y-110052189D01*
X142297972Y-110071129D01*
X142285128Y-110088920D01*
X142271576Y-110105600D01*
X142257407Y-110121209D01*
X142242709Y-110135783D01*
X142227574Y-110149361D01*
X142212091Y-110161981D01*
X142180439Y-110184500D01*
X142148472Y-110203644D01*
X142116907Y-110219719D01*
X142086465Y-110233029D01*
X142057862Y-110243880D01*
X142031817Y-110252576D01*
X141990274Y-110264723D01*
X142015015Y-110267419D01*
X142038337Y-110270870D01*
X142060286Y-110275067D01*
X142080911Y-110279999D01*
X142100259Y-110285658D01*
X142118379Y-110292032D01*
X142135318Y-110299114D01*
X142151124Y-110306892D01*
X142165845Y-110315357D01*
X142179529Y-110324501D01*
X142192222Y-110334312D01*
X142203974Y-110344781D01*
X142214832Y-110355899D01*
X142224843Y-110367656D01*
X142234057Y-110380041D01*
X142242519Y-110393047D01*
X142250279Y-110406662D01*
X142257383Y-110420877D01*
X142263881Y-110435682D01*
X142269819Y-110451069D01*
X142275245Y-110467026D01*
X142280208Y-110483545D01*
X142288933Y-110518227D01*
X142296376Y-110555039D01*
X142302920Y-110593902D01*
X142314840Y-110677473D01*
X142333582Y-110814393D01*
X142348355Y-110912949D01*
X142354666Y-110950321D01*
X142360482Y-110981078D01*
X142365966Y-111006212D01*
X142371286Y-111026716D01*
X142375176Y-111041205D01*
X142378921Y-111054319D01*
X142382542Y-111066171D01*
X142386059Y-111076877D01*
X142389494Y-111086549D01*
X142392867Y-111095301D01*
X142396198Y-111103247D01*
X142399509Y-111110501D01*
X142402820Y-111117175D01*
X142406151Y-111123385D01*
X142412959Y-111134863D01*
X142427732Y-111157240D01*
X142000858Y-111157240D01*
X141981454Y-111027378D01*
X141954113Y-110832691D01*
X141925449Y-110643295D01*
X141912688Y-110572491D01*
X141907062Y-110546897D01*
X141902076Y-110529303D01*
X141898596Y-110520009D01*
X141894781Y-110511296D01*
X141890649Y-110503145D01*
X141886215Y-110495537D01*
X141881497Y-110488454D01*
X141876512Y-110481877D01*
X141871276Y-110475786D01*
X141865806Y-110470164D01*
X141860119Y-110464991D01*
X141854231Y-110460249D01*
X141848161Y-110455919D01*
X141841924Y-110451982D01*
X141835536Y-110448420D01*
X141829016Y-110445214D01*
X141822380Y-110442345D01*
X141815643Y-110439795D01*
X141808825Y-110437544D01*
X141801940Y-110435574D01*
X141788040Y-110432402D01*
X141774079Y-110430130D01*
X141760189Y-110428606D01*
X141746506Y-110427682D01*
X141733165Y-110427208D01*
X141708042Y-110427008D01*
X141369365Y-110427008D01*
X141369365Y-111157248D01*
X140974241Y-111157248D01*
X140974241Y-110148314D01*
X141351724Y-110148314D01*
X141351726Y-110144781D01*
X141665708Y-110144781D01*
X141684760Y-110144685D01*
X141706995Y-110144010D01*
X141719062Y-110143274D01*
X141731629Y-110142177D01*
X141744599Y-110140646D01*
X141757875Y-110138608D01*
X141771356Y-110135992D01*
X141784947Y-110132724D01*
X141798548Y-110128734D01*
X141812061Y-110123947D01*
X141825388Y-110118292D01*
X141838431Y-110111697D01*
X141844815Y-110108024D01*
X141851092Y-110104089D01*
X141857248Y-110099883D01*
X141863271Y-110095396D01*
X141869032Y-110090966D01*
X141875619Y-110085585D01*
X141882868Y-110079212D01*
X141890612Y-110071805D01*
X141898688Y-110063324D01*
X141906929Y-110053726D01*
X141915169Y-110042970D01*
X141919238Y-110037145D01*
X141923245Y-110031016D01*
X141927169Y-110024576D01*
X141930990Y-110017821D01*
X141934686Y-110010746D01*
X141938238Y-110003345D01*
X141941625Y-109995613D01*
X141944825Y-109987545D01*
X141947819Y-109979137D01*
X141950586Y-109970382D01*
X141953104Y-109961275D01*
X141955354Y-109951813D01*
X141957314Y-109941988D01*
X141958964Y-109931797D01*
X141960284Y-109921233D01*
X141961252Y-109910293D01*
X141961848Y-109898969D01*
X141962051Y-109887259D01*
X141961369Y-109864304D01*
X141959405Y-109843024D01*
X141956284Y-109823357D01*
X141952129Y-109805240D01*
X141947065Y-109788611D01*
X141941215Y-109773408D01*
X141934704Y-109759570D01*
X141927655Y-109747033D01*
X141920192Y-109735737D01*
X141912441Y-109725619D01*
X141904524Y-109716618D01*
X141896565Y-109708670D01*
X141888689Y-109701714D01*
X141881020Y-109695688D01*
X141873682Y-109690530D01*
X141866798Y-109686178D01*
X141855380Y-109678728D01*
X141843585Y-109672207D01*
X141831366Y-109666554D01*
X141818676Y-109661708D01*
X141805470Y-109657605D01*
X141791700Y-109654185D01*
X141777321Y-109651384D01*
X141762285Y-109649142D01*
X141746546Y-109647395D01*
X141730058Y-109646083D01*
X141712774Y-109645142D01*
X141694648Y-109644512D01*
X141655682Y-109643933D01*
X141612789Y-109643851D01*
X141351724Y-109643851D01*
X141351724Y-110148314D01*
X140974241Y-110148314D01*
X140974241Y-109354567D01*
X141662180Y-109354567D01*
G37*
G36*
X148710916Y-109654425D02*
G01*
X148174677Y-109654425D01*
X148174677Y-111160765D01*
X147786609Y-111160765D01*
X147786609Y-109654425D01*
X147246839Y-109654425D01*
X147246839Y-109354567D01*
X148710916Y-109354567D01*
X148710916Y-109654425D01*
G37*
G36*
X143884754Y-109647375D02*
G01*
X143062755Y-109647375D01*
X143062755Y-110077757D01*
X143831836Y-110077757D01*
X143831836Y-110374083D01*
X143062755Y-110374083D01*
X143062755Y-110860914D01*
X143912979Y-110860914D01*
X143912979Y-111160773D01*
X142678215Y-111160773D01*
X142678215Y-109354575D01*
X142674686Y-109354567D01*
X143884754Y-109354567D01*
X143884754Y-109647375D01*
G37*
G36*
X147081028Y-109647375D02*
G01*
X146259027Y-109647375D01*
X146259027Y-110077757D01*
X147028108Y-110077757D01*
X147028108Y-110374083D01*
X146259027Y-110374083D01*
X146259027Y-110860914D01*
X147109251Y-110860914D01*
X147109251Y-111160773D01*
X145874488Y-111160773D01*
X145874488Y-109354575D01*
X145870960Y-109354567D01*
X147081028Y-109354567D01*
X147081028Y-109647375D01*
G37*
G36*
X144911534Y-109326862D02*
G01*
X144947622Y-109328495D01*
X144984174Y-109331368D01*
X145021011Y-109335605D01*
X145057952Y-109341331D01*
X145094814Y-109348668D01*
X145131419Y-109357742D01*
X145167584Y-109368676D01*
X145203129Y-109381595D01*
X145237873Y-109396622D01*
X145271635Y-109413882D01*
X145304234Y-109433498D01*
X145335490Y-109455594D01*
X145365221Y-109480296D01*
X145393246Y-109507725D01*
X145406563Y-109522502D01*
X145419386Y-109538008D01*
X145437395Y-109562622D01*
X145453156Y-109587423D01*
X145466819Y-109612265D01*
X145478534Y-109637004D01*
X145488450Y-109661495D01*
X145496718Y-109685593D01*
X145503487Y-109709153D01*
X145508907Y-109732032D01*
X145513128Y-109754084D01*
X145516301Y-109775164D01*
X145518574Y-109795129D01*
X145520097Y-109813832D01*
X145521496Y-109846878D01*
X145521696Y-109873144D01*
X145147739Y-109873144D01*
X145145141Y-109843090D01*
X145142382Y-109824171D01*
X145138202Y-109803362D01*
X145132265Y-109781188D01*
X145124235Y-109758176D01*
X145119330Y-109746522D01*
X145113776Y-109734855D01*
X145107531Y-109723243D01*
X145100553Y-109711751D01*
X145092799Y-109700445D01*
X145084228Y-109689391D01*
X145074799Y-109678655D01*
X145064468Y-109668303D01*
X145053193Y-109658400D01*
X145040934Y-109649012D01*
X145027648Y-109640206D01*
X145013292Y-109632047D01*
X144997826Y-109624601D01*
X144981206Y-109617935D01*
X144963392Y-109612113D01*
X144944340Y-109607202D01*
X144924009Y-109603267D01*
X144902357Y-109600375D01*
X144879343Y-109598592D01*
X144854923Y-109597983D01*
X144821945Y-109599127D01*
X144790532Y-109602509D01*
X144775437Y-109605015D01*
X144760763Y-109608051D01*
X144746519Y-109611608D01*
X144732715Y-109615675D01*
X144719360Y-109620244D01*
X144706465Y-109625305D01*
X144694039Y-109630847D01*
X144682091Y-109636862D01*
X144670632Y-109643339D01*
X144659670Y-109650268D01*
X144649217Y-109657641D01*
X144639281Y-109665447D01*
X144629872Y-109673678D01*
X144621000Y-109682322D01*
X144612674Y-109691370D01*
X144604904Y-109700813D01*
X144597701Y-109710642D01*
X144591073Y-109720845D01*
X144585030Y-109731414D01*
X144579582Y-109742339D01*
X144574739Y-109753610D01*
X144570510Y-109765218D01*
X144566905Y-109777153D01*
X144563934Y-109789405D01*
X144561606Y-109801964D01*
X144559932Y-109814822D01*
X144558920Y-109827967D01*
X144558580Y-109841391D01*
X144558973Y-109856548D01*
X144560149Y-109870950D01*
X144562106Y-109884627D01*
X144564843Y-109897609D01*
X144568359Y-109909928D01*
X144572649Y-109921612D01*
X144577714Y-109932694D01*
X144583551Y-109943202D01*
X144590158Y-109953168D01*
X144597533Y-109962621D01*
X144605673Y-109971593D01*
X144614579Y-109980113D01*
X144624246Y-109988212D01*
X144634674Y-109995920D01*
X144645860Y-110003267D01*
X144657802Y-110010285D01*
X144670499Y-110017002D01*
X144683949Y-110023451D01*
X144698149Y-110029660D01*
X144713098Y-110035661D01*
X144745234Y-110047158D01*
X144780341Y-110058184D01*
X144818405Y-110068983D01*
X144859409Y-110079798D01*
X144950176Y-110102446D01*
X145065990Y-110131228D01*
X145122761Y-110146934D01*
X145178167Y-110164019D01*
X145231753Y-110182862D01*
X145283067Y-110203838D01*
X145331651Y-110227325D01*
X145377052Y-110253701D01*
X145398417Y-110268091D01*
X145418815Y-110283343D01*
X145438190Y-110299507D01*
X145456485Y-110316628D01*
X145473643Y-110334755D01*
X145489607Y-110353933D01*
X145504321Y-110374211D01*
X145517727Y-110395636D01*
X145529769Y-110418254D01*
X145540390Y-110442113D01*
X145549532Y-110467260D01*
X145557140Y-110493743D01*
X145563157Y-110521607D01*
X145567524Y-110550901D01*
X145570186Y-110581672D01*
X145571087Y-110613966D01*
X145570302Y-110644201D01*
X145567953Y-110674028D01*
X145564046Y-110703410D01*
X145558587Y-110732312D01*
X145551583Y-110760697D01*
X145543041Y-110788529D01*
X145532966Y-110815772D01*
X145521365Y-110842389D01*
X145508245Y-110868345D01*
X145493613Y-110893604D01*
X145477473Y-110918128D01*
X145459834Y-110941883D01*
X145440701Y-110964832D01*
X145420081Y-110986938D01*
X145397981Y-111008166D01*
X145374406Y-111028479D01*
X145349364Y-111047841D01*
X145322861Y-111066216D01*
X145294903Y-111083568D01*
X145265497Y-111099861D01*
X145234648Y-111115058D01*
X145202365Y-111129124D01*
X145168652Y-111142021D01*
X145133517Y-111153715D01*
X145096967Y-111164168D01*
X145059006Y-111173345D01*
X145019643Y-111181209D01*
X144978883Y-111187725D01*
X144936732Y-111192855D01*
X144893198Y-111196565D01*
X144848287Y-111198817D01*
X144802005Y-111199576D01*
X144739165Y-111198295D01*
X144680210Y-111194541D01*
X144625018Y-111188443D01*
X144573464Y-111180132D01*
X144525424Y-111169738D01*
X144480774Y-111157393D01*
X144439390Y-111143225D01*
X144401149Y-111127367D01*
X144365925Y-111109948D01*
X144333595Y-111091099D01*
X144304035Y-111070951D01*
X144277121Y-111049633D01*
X144252729Y-111027276D01*
X144230735Y-111004012D01*
X144211015Y-110979969D01*
X144193444Y-110955280D01*
X144177899Y-110930073D01*
X144164256Y-110904481D01*
X144152391Y-110878632D01*
X144142179Y-110852658D01*
X144126221Y-110800857D01*
X144115389Y-110750120D01*
X144108692Y-110701492D01*
X144105137Y-110656015D01*
X144103483Y-110578696D01*
X144498605Y-110578696D01*
X144498607Y-110585745D01*
X144499104Y-110624759D01*
X144500468Y-110648766D01*
X144503238Y-110674933D01*
X144507910Y-110702630D01*
X144514979Y-110731226D01*
X144519568Y-110745664D01*
X144524943Y-110760091D01*
X144531165Y-110774427D01*
X144538297Y-110788594D01*
X144546400Y-110802512D01*
X144555537Y-110816104D01*
X144565769Y-110829290D01*
X144577159Y-110841992D01*
X144589768Y-110854130D01*
X144603659Y-110865627D01*
X144618894Y-110876402D01*
X144635534Y-110886378D01*
X144653642Y-110895475D01*
X144673280Y-110903615D01*
X144694509Y-110910719D01*
X144717393Y-110916708D01*
X144741991Y-110921503D01*
X144768368Y-110925026D01*
X144796584Y-110927197D01*
X144826702Y-110927939D01*
X144864846Y-110926792D01*
X144901166Y-110923398D01*
X144935574Y-110917823D01*
X144967983Y-110910134D01*
X144998303Y-110900399D01*
X145026448Y-110888685D01*
X145052329Y-110875059D01*
X145064393Y-110867550D01*
X145075859Y-110859588D01*
X145086714Y-110851181D01*
X145096949Y-110842339D01*
X145106553Y-110833069D01*
X145115513Y-110823380D01*
X145123820Y-110813280D01*
X145131462Y-110802777D01*
X145138428Y-110791881D01*
X145144708Y-110780598D01*
X145150290Y-110768939D01*
X145155163Y-110756911D01*
X145159317Y-110744522D01*
X145162740Y-110731781D01*
X145165422Y-110718697D01*
X145167351Y-110705277D01*
X145168516Y-110691531D01*
X145168907Y-110677466D01*
X145168576Y-110662961D01*
X145167583Y-110649192D01*
X145165927Y-110636129D01*
X145163608Y-110623744D01*
X145160625Y-110612008D01*
X145156977Y-110600891D01*
X145152664Y-110590364D01*
X145147684Y-110580399D01*
X145142039Y-110570965D01*
X145135725Y-110562036D01*
X145128744Y-110553580D01*
X145121094Y-110545569D01*
X145112775Y-110537974D01*
X145103787Y-110530766D01*
X145094127Y-110523916D01*
X145083797Y-110517394D01*
X145072794Y-110511173D01*
X145061120Y-110505222D01*
X145048772Y-110499512D01*
X145035750Y-110494015D01*
X145022054Y-110488702D01*
X145007683Y-110483543D01*
X144976913Y-110473572D01*
X144943435Y-110463869D01*
X144907244Y-110454203D01*
X144826702Y-110434050D01*
X144748325Y-110413879D01*
X144674630Y-110392901D01*
X144605669Y-110370891D01*
X144541493Y-110347619D01*
X144482154Y-110322859D01*
X144427705Y-110296384D01*
X144378195Y-110267966D01*
X144333678Y-110237377D01*
X144294205Y-110204391D01*
X144276375Y-110186928D01*
X144259827Y-110168780D01*
X144244565Y-110149919D01*
X144230596Y-110130316D01*
X144217927Y-110109943D01*
X144206564Y-110088772D01*
X144196514Y-110066774D01*
X144187782Y-110043921D01*
X144180377Y-110020185D01*
X144174303Y-109995536D01*
X144169568Y-109969946D01*
X144166178Y-109943388D01*
X144164139Y-109915832D01*
X144163458Y-109887251D01*
X144164080Y-109858329D01*
X144165957Y-109829793D01*
X144169103Y-109801678D01*
X144173531Y-109774019D01*
X144179257Y-109746852D01*
X144186294Y-109720210D01*
X144194657Y-109694128D01*
X144204359Y-109668643D01*
X144215415Y-109643788D01*
X144227840Y-109619598D01*
X144241646Y-109596108D01*
X144256850Y-109573353D01*
X144273464Y-109551369D01*
X144291503Y-109530189D01*
X144310982Y-109509849D01*
X144331914Y-109490383D01*
X144354313Y-109471827D01*
X144378195Y-109454216D01*
X144403573Y-109437584D01*
X144430461Y-109421965D01*
X144458873Y-109407396D01*
X144488824Y-109393911D01*
X144520328Y-109381544D01*
X144553399Y-109370332D01*
X144588052Y-109360307D01*
X144624300Y-109351506D01*
X144662158Y-109343964D01*
X144701640Y-109337714D01*
X144742761Y-109332793D01*
X144785533Y-109329234D01*
X144829972Y-109327074D01*
X144876093Y-109326346D01*
X144911534Y-109326862D01*
G37*
G36*
X139782468Y-100262341D02*
G01*
X139784415Y-100236745D01*
X139787620Y-100211540D01*
X139792052Y-100186757D01*
X139797676Y-100162427D01*
X139804463Y-100138579D01*
X139812378Y-100115243D01*
X139821391Y-100092452D01*
X139831468Y-100070233D01*
X139842577Y-100048619D01*
X139854686Y-100027639D01*
X139867763Y-100007324D01*
X139881775Y-99987703D01*
X139896691Y-99968809D01*
X139912477Y-99950669D01*
X139929102Y-99933316D01*
X139946532Y-99916780D01*
X139964737Y-99901090D01*
X139983683Y-99886278D01*
X140003339Y-99872373D01*
X140023672Y-99859406D01*
X140044649Y-99847407D01*
X140066238Y-99836408D01*
X140088408Y-99826437D01*
X140111126Y-99817525D01*
X140134359Y-99809703D01*
X140158075Y-99803001D01*
X140182242Y-99797450D01*
X140206828Y-99793079D01*
X140231800Y-99789920D01*
X140257126Y-99788002D01*
X140282774Y-99787356D01*
X149282432Y-99787356D01*
X149308390Y-99788012D01*
X149333987Y-99789958D01*
X149359193Y-99793163D01*
X149383976Y-99797594D01*
X149408308Y-99803219D01*
X149432157Y-99810005D01*
X149455493Y-99817920D01*
X149478286Y-99826932D01*
X149500505Y-99837009D01*
X149522120Y-99848117D01*
X149543101Y-99860226D01*
X149563417Y-99873302D01*
X149583038Y-99887314D01*
X149601933Y-99902229D01*
X149620073Y-99918014D01*
X149637427Y-99934638D01*
X149653964Y-99952068D01*
X149669654Y-99970272D01*
X149684467Y-99989218D01*
X149698373Y-100008873D01*
X149711340Y-100029204D01*
X149723339Y-100050181D01*
X149734340Y-100071770D01*
X149744311Y-100093939D01*
X149753223Y-100116655D01*
X149761045Y-100139888D01*
X149767747Y-100163603D01*
X149773299Y-100187769D01*
X149777670Y-100212354D01*
X149780829Y-100237326D01*
X149782748Y-100262651D01*
X149783394Y-100288298D01*
X149783394Y-111287764D01*
X149782738Y-111313721D01*
X149780791Y-111339317D01*
X149777586Y-111364522D01*
X149773154Y-111389304D01*
X149767529Y-111413635D01*
X149760743Y-111437483D01*
X149752827Y-111460818D01*
X149743815Y-111483610D01*
X149733738Y-111505828D01*
X149722628Y-111527442D01*
X149710519Y-111548422D01*
X149697442Y-111568737D01*
X149683430Y-111588357D01*
X149668514Y-111607252D01*
X149652728Y-111625391D01*
X149636104Y-111642743D01*
X149618673Y-111659280D01*
X149600468Y-111674969D01*
X149581522Y-111689781D01*
X149561866Y-111703686D01*
X149541534Y-111716653D01*
X149520556Y-111728651D01*
X149498967Y-111739651D01*
X149476797Y-111749622D01*
X149454079Y-111758534D01*
X149430847Y-111766355D01*
X149407130Y-111773057D01*
X149382963Y-111778608D01*
X149358378Y-111782979D01*
X149333406Y-111786138D01*
X149308080Y-111788056D01*
X149282432Y-111788702D01*
X140282774Y-111788702D01*
X140256816Y-111788046D01*
X140231219Y-111786100D01*
X140206013Y-111782895D01*
X140181230Y-111778464D01*
X140156898Y-111772839D01*
X140133049Y-111766053D01*
X140109713Y-111758138D01*
X140086920Y-111749126D01*
X140064701Y-111739050D01*
X140043086Y-111727941D01*
X140022105Y-111715833D01*
X140001789Y-111702757D01*
X139982168Y-111688745D01*
X139963273Y-111673831D01*
X139945133Y-111658045D01*
X139927779Y-111641422D01*
X139911242Y-111623992D01*
X139895552Y-111605788D01*
X139880739Y-111586843D01*
X139866833Y-111567188D01*
X139853866Y-111546856D01*
X139841867Y-111525880D01*
X139830866Y-111504291D01*
X139820895Y-111482122D01*
X139811983Y-111459406D01*
X139804161Y-111436174D01*
X139797458Y-111412458D01*
X139791907Y-111388292D01*
X139787536Y-111363707D01*
X139784377Y-111338736D01*
X139782458Y-111313411D01*
X139781812Y-111287764D01*
X140134601Y-111287764D01*
X140134796Y-111295328D01*
X140135374Y-111302799D01*
X140136325Y-111310169D01*
X140137640Y-111317426D01*
X140139309Y-111324562D01*
X140141322Y-111331568D01*
X140143670Y-111338432D01*
X140146343Y-111345146D01*
X140149331Y-111351700D01*
X140152624Y-111358083D01*
X140156213Y-111364288D01*
X140160089Y-111370303D01*
X140164241Y-111376119D01*
X140168660Y-111381726D01*
X140173336Y-111387115D01*
X140178259Y-111392276D01*
X140183420Y-111397199D01*
X140188809Y-111401875D01*
X140194417Y-111406294D01*
X140200233Y-111410446D01*
X140206248Y-111414322D01*
X140212452Y-111417911D01*
X140218836Y-111421205D01*
X140225390Y-111424193D01*
X140232104Y-111426866D01*
X140238968Y-111429213D01*
X140245974Y-111431227D01*
X140253110Y-111432896D01*
X140260368Y-111434210D01*
X140267738Y-111435162D01*
X140275210Y-111435740D01*
X140282774Y-111435934D01*
X149282432Y-111435934D01*
X149289996Y-111435740D01*
X149297468Y-111435162D01*
X149304837Y-111434210D01*
X149312095Y-111432896D01*
X149319231Y-111431227D01*
X149326237Y-111429213D01*
X149333101Y-111426866D01*
X149339815Y-111424193D01*
X149346369Y-111421205D01*
X149352753Y-111417911D01*
X149358957Y-111414322D01*
X149364972Y-111410446D01*
X149370788Y-111406294D01*
X149376395Y-111401875D01*
X149381784Y-111397199D01*
X149386945Y-111392276D01*
X149391869Y-111387115D01*
X149396544Y-111381726D01*
X149400963Y-111376119D01*
X149405115Y-111370303D01*
X149408991Y-111364288D01*
X149412580Y-111358083D01*
X149415874Y-111351700D01*
X149418862Y-111345146D01*
X149421534Y-111338432D01*
X149423882Y-111331568D01*
X149425895Y-111324562D01*
X149427564Y-111317426D01*
X149428879Y-111310169D01*
X149429830Y-111302799D01*
X149430408Y-111295328D01*
X149430603Y-111287764D01*
X149430603Y-100288290D01*
X149430408Y-100280726D01*
X149429830Y-100273255D01*
X149428879Y-100265886D01*
X149427564Y-100258628D01*
X149425895Y-100251492D01*
X149423882Y-100244487D01*
X149421534Y-100237623D01*
X149418862Y-100230909D01*
X149415874Y-100224356D01*
X149412580Y-100217973D01*
X149408991Y-100211769D01*
X149405116Y-100205754D01*
X149400964Y-100199938D01*
X149396545Y-100194331D01*
X149391869Y-100188943D01*
X149386946Y-100183782D01*
X149381785Y-100178859D01*
X149376396Y-100174183D01*
X149370789Y-100169765D01*
X149364973Y-100165613D01*
X149358958Y-100161738D01*
X149352753Y-100158149D01*
X149346370Y-100154855D01*
X149339816Y-100151868D01*
X149333102Y-100149195D01*
X149326237Y-100146848D01*
X149319232Y-100144835D01*
X149312096Y-100143166D01*
X149304838Y-100141851D01*
X149297468Y-100140900D01*
X149289996Y-100140322D01*
X149282432Y-100140127D01*
X140282774Y-100140127D01*
X140275210Y-100140322D01*
X140267738Y-100140900D01*
X140260368Y-100141851D01*
X140253110Y-100143166D01*
X140245974Y-100144835D01*
X140238968Y-100146848D01*
X140232104Y-100149196D01*
X140225390Y-100151869D01*
X140218836Y-100154857D01*
X140212452Y-100158151D01*
X140206248Y-100161740D01*
X140200233Y-100165615D01*
X140194417Y-100169768D01*
X140188809Y-100174186D01*
X140183420Y-100178862D01*
X140178259Y-100183786D01*
X140173336Y-100188947D01*
X140168660Y-100194336D01*
X140164241Y-100199943D01*
X140160089Y-100205759D01*
X140156213Y-100211774D01*
X140152624Y-100217978D01*
X140149331Y-100224362D01*
X140146343Y-100230916D01*
X140143670Y-100237630D01*
X140141322Y-100244494D01*
X140139309Y-100251499D01*
X140137640Y-100258636D01*
X140136325Y-100265893D01*
X140135374Y-100273263D01*
X140134796Y-100280734D01*
X140134601Y-100288298D01*
X140134601Y-111287764D01*
X139781812Y-111287764D01*
X139781812Y-100288298D01*
X139782468Y-100262341D01*
G37*
G36*
X128185622Y-109354567D02*
G01*
X128182095Y-109354567D01*
X128185622Y-109351050D01*
X128185622Y-109354567D01*
G37*
G36*
X128873562Y-109354567D02*
G01*
X128948860Y-109354808D01*
X129023497Y-109356496D01*
X129060361Y-109358335D01*
X129096811Y-109361078D01*
X129132765Y-109364907D01*
X129168141Y-109370001D01*
X129202854Y-109376543D01*
X129236824Y-109384712D01*
X129269967Y-109394690D01*
X129302201Y-109406657D01*
X129333442Y-109420796D01*
X129363608Y-109437285D01*
X129392617Y-109456306D01*
X129420385Y-109478041D01*
X129440772Y-109496923D01*
X129459619Y-109516481D01*
X129476957Y-109536649D01*
X129492817Y-109557360D01*
X129507230Y-109578546D01*
X129520227Y-109600141D01*
X129531839Y-109622076D01*
X129542097Y-109644285D01*
X129551033Y-109666702D01*
X129558676Y-109689257D01*
X129565058Y-109711885D01*
X129570210Y-109734518D01*
X129574164Y-109757089D01*
X129576949Y-109779531D01*
X129578598Y-109801777D01*
X129579140Y-109823759D01*
X129578308Y-109854751D01*
X129575870Y-109884251D01*
X129571917Y-109912298D01*
X129566538Y-109938929D01*
X129559823Y-109964183D01*
X129551862Y-109988098D01*
X129542745Y-110010712D01*
X129532561Y-110032063D01*
X129521401Y-110052189D01*
X129509353Y-110071129D01*
X129496509Y-110088920D01*
X129482957Y-110105600D01*
X129468788Y-110121209D01*
X129454091Y-110135783D01*
X129438956Y-110149361D01*
X129423472Y-110161981D01*
X129391820Y-110184500D01*
X129359853Y-110203644D01*
X129328289Y-110219719D01*
X129297846Y-110233029D01*
X129269243Y-110243880D01*
X129243198Y-110252576D01*
X129201656Y-110264723D01*
X129226397Y-110267419D01*
X129249718Y-110270870D01*
X129271668Y-110275067D01*
X129292293Y-110279999D01*
X129311641Y-110285658D01*
X129329761Y-110292032D01*
X129346700Y-110299114D01*
X129362506Y-110306892D01*
X129377227Y-110315357D01*
X129390910Y-110324501D01*
X129403604Y-110334312D01*
X129415356Y-110344781D01*
X129426213Y-110355899D01*
X129436225Y-110367656D01*
X129445438Y-110380041D01*
X129453901Y-110393047D01*
X129461660Y-110406662D01*
X129468765Y-110420877D01*
X129475262Y-110435682D01*
X129481200Y-110451069D01*
X129486627Y-110467026D01*
X129491589Y-110483545D01*
X129500314Y-110518227D01*
X129507758Y-110555039D01*
X129514302Y-110593902D01*
X129526222Y-110677473D01*
X129544964Y-110814393D01*
X129559737Y-110912949D01*
X129566049Y-110950321D01*
X129571865Y-110981078D01*
X129577349Y-111006212D01*
X129582669Y-111026716D01*
X129586558Y-111041205D01*
X129590303Y-111054319D01*
X129593924Y-111066171D01*
X129597442Y-111076877D01*
X129600876Y-111086549D01*
X129604249Y-111095301D01*
X129607581Y-111103247D01*
X129610892Y-111110501D01*
X129614203Y-111117175D01*
X129617534Y-111123385D01*
X129624342Y-111134863D01*
X129639115Y-111157240D01*
X129212239Y-111157240D01*
X129192836Y-111027378D01*
X129165495Y-110832691D01*
X129136831Y-110643295D01*
X129124069Y-110572491D01*
X129118443Y-110546897D01*
X129113458Y-110529303D01*
X129109977Y-110520009D01*
X129106163Y-110511296D01*
X129102030Y-110503145D01*
X129097596Y-110495537D01*
X129092878Y-110488454D01*
X129087893Y-110481877D01*
X129082656Y-110475786D01*
X129077187Y-110470164D01*
X129071500Y-110464991D01*
X129065612Y-110460249D01*
X129059542Y-110455919D01*
X129053304Y-110451982D01*
X129046917Y-110448420D01*
X129040397Y-110445214D01*
X129033760Y-110442345D01*
X129027024Y-110439795D01*
X129020206Y-110437544D01*
X129013321Y-110435574D01*
X128999421Y-110432402D01*
X128985460Y-110430130D01*
X128971570Y-110428606D01*
X128957888Y-110427682D01*
X128944546Y-110427208D01*
X128919424Y-110427008D01*
X128580746Y-110427008D01*
X128580746Y-111157248D01*
X128185622Y-111157248D01*
X128185622Y-110144781D01*
X128563107Y-110144781D01*
X128877090Y-110144781D01*
X128896142Y-110144685D01*
X128918377Y-110144010D01*
X128930443Y-110143274D01*
X128943010Y-110142177D01*
X128955980Y-110140646D01*
X128969256Y-110138608D01*
X128982738Y-110135992D01*
X128996328Y-110132724D01*
X129009929Y-110128734D01*
X129023442Y-110123947D01*
X129036769Y-110118292D01*
X129049811Y-110111697D01*
X129056196Y-110108024D01*
X129062472Y-110104089D01*
X129068628Y-110099883D01*
X129074651Y-110095396D01*
X129080412Y-110090966D01*
X129086999Y-110085585D01*
X129094248Y-110079212D01*
X129101993Y-110071805D01*
X129110068Y-110063324D01*
X129118309Y-110053726D01*
X129126550Y-110042970D01*
X129130619Y-110037145D01*
X129134626Y-110031016D01*
X129138550Y-110024576D01*
X129142370Y-110017821D01*
X129146067Y-110010746D01*
X129149619Y-110003345D01*
X129153006Y-109995613D01*
X129156206Y-109987545D01*
X129159200Y-109979137D01*
X129161967Y-109970382D01*
X129164485Y-109961275D01*
X129166735Y-109951813D01*
X129168695Y-109941988D01*
X129170346Y-109931797D01*
X129171665Y-109921233D01*
X129172633Y-109910293D01*
X129173229Y-109898969D01*
X129173432Y-109887259D01*
X129172750Y-109864304D01*
X129170787Y-109843024D01*
X129167665Y-109823357D01*
X129163510Y-109805240D01*
X129158446Y-109788611D01*
X129152596Y-109773408D01*
X129146084Y-109759570D01*
X129139036Y-109747033D01*
X129131573Y-109735737D01*
X129123822Y-109725619D01*
X129115904Y-109716618D01*
X129107946Y-109708670D01*
X129100070Y-109701714D01*
X129092401Y-109695688D01*
X129085063Y-109690530D01*
X129078180Y-109686178D01*
X129066761Y-109678728D01*
X129054966Y-109672207D01*
X129042746Y-109666554D01*
X129030057Y-109661708D01*
X129016851Y-109657605D01*
X129003081Y-109654185D01*
X128988701Y-109651384D01*
X128973666Y-109649142D01*
X128957927Y-109647395D01*
X128941439Y-109646083D01*
X128924156Y-109645142D01*
X128906029Y-109644512D01*
X128867064Y-109643933D01*
X128824171Y-109643851D01*
X128563107Y-109643851D01*
X128563107Y-110144781D01*
X128185622Y-110144781D01*
X128185622Y-109354567D01*
X128873562Y-109354567D01*
G37*
G36*
X133061173Y-110776243D02*
G01*
X133061173Y-109354567D01*
X133421018Y-109354567D01*
X133421018Y-111160765D01*
X132888306Y-111160765D01*
X132189783Y-109661482D01*
X132189783Y-111160765D01*
X131826410Y-111160765D01*
X131826410Y-109354567D01*
X132383817Y-109354567D01*
X133061173Y-110776243D01*
G37*
G36*
X130267080Y-110462271D02*
G01*
X130268424Y-110538091D01*
X130270871Y-110576651D01*
X130275183Y-110615067D01*
X130281873Y-110652904D01*
X130291452Y-110689729D01*
X130297484Y-110707625D01*
X130304431Y-110725106D01*
X130312355Y-110742116D01*
X130321322Y-110758602D01*
X130331394Y-110774509D01*
X130342636Y-110789784D01*
X130355112Y-110804370D01*
X130368886Y-110818216D01*
X130384022Y-110831265D01*
X130400583Y-110843464D01*
X130418634Y-110854759D01*
X130438238Y-110865096D01*
X130459460Y-110874419D01*
X130482364Y-110882676D01*
X130507013Y-110889811D01*
X130533471Y-110895771D01*
X130561802Y-110900500D01*
X130592071Y-110903946D01*
X130624342Y-110906053D01*
X130658677Y-110906767D01*
X130687865Y-110906457D01*
X130706024Y-110905721D01*
X130726148Y-110904287D01*
X130747925Y-110901923D01*
X130771046Y-110898396D01*
X130795200Y-110893474D01*
X130820078Y-110886924D01*
X130845369Y-110878514D01*
X130858073Y-110873539D01*
X130870764Y-110868011D01*
X130883403Y-110861902D01*
X130895951Y-110855183D01*
X130908371Y-110847824D01*
X130920623Y-110839797D01*
X130932667Y-110831072D01*
X130944467Y-110821620D01*
X130955982Y-110811413D01*
X130967174Y-110800421D01*
X130978005Y-110788614D01*
X130988435Y-110775965D01*
X130998425Y-110762444D01*
X131007938Y-110748022D01*
X131014967Y-110737288D01*
X131021505Y-110726151D01*
X131027558Y-110714456D01*
X131033129Y-110702048D01*
X131038226Y-110688773D01*
X131042852Y-110674474D01*
X131047013Y-110658997D01*
X131050714Y-110642186D01*
X131053960Y-110623888D01*
X131056757Y-110603946D01*
X131059109Y-110582207D01*
X131061022Y-110558514D01*
X131062501Y-110532712D01*
X131063550Y-110504647D01*
X131064177Y-110474164D01*
X131064384Y-110441107D01*
X131064384Y-109361624D01*
X131441869Y-109361624D01*
X131441869Y-110486967D01*
X131440634Y-110536179D01*
X131436987Y-110583296D01*
X131431018Y-110628355D01*
X131422817Y-110671388D01*
X131412475Y-110712432D01*
X131400080Y-110751522D01*
X131385722Y-110788692D01*
X131369492Y-110823977D01*
X131351479Y-110857412D01*
X131331773Y-110889032D01*
X131310464Y-110918871D01*
X131287641Y-110946965D01*
X131263394Y-110973349D01*
X131237814Y-110998057D01*
X131210989Y-111021125D01*
X131183010Y-111042587D01*
X131153966Y-111062477D01*
X131123948Y-111080832D01*
X131093044Y-111097685D01*
X131061346Y-111113072D01*
X131028942Y-111127028D01*
X130995922Y-111139587D01*
X130928395Y-111160656D01*
X130859483Y-111176556D01*
X130789904Y-111187568D01*
X130720377Y-111193971D01*
X130651621Y-111196043D01*
X130616223Y-111195541D01*
X130577797Y-111193845D01*
X130536787Y-111190672D01*
X130493637Y-111185736D01*
X130448793Y-111178754D01*
X130402697Y-111169441D01*
X130355796Y-111157514D01*
X130308533Y-111142687D01*
X130261353Y-111124677D01*
X130214699Y-111103200D01*
X130169017Y-111077971D01*
X130146680Y-111063861D01*
X130124752Y-111048706D01*
X130103289Y-111032472D01*
X130082346Y-111015121D01*
X130061980Y-110996620D01*
X130042246Y-110976932D01*
X130023199Y-110956022D01*
X130004895Y-110933854D01*
X129987389Y-110910393D01*
X129970737Y-110885603D01*
X129955172Y-110859760D01*
X129941473Y-110833803D01*
X129929521Y-110807702D01*
X129919197Y-110781425D01*
X129910381Y-110754941D01*
X129902956Y-110728219D01*
X129896802Y-110701228D01*
X129891800Y-110673938D01*
X129887832Y-110646317D01*
X129884779Y-110618334D01*
X129882522Y-110589959D01*
X129880941Y-110561160D01*
X129879336Y-110502167D01*
X129879012Y-110441107D01*
X129879012Y-109361624D01*
X130267080Y-109361624D01*
X130267080Y-110462271D01*
G37*
G36*
X125812005Y-100262341D02*
G01*
X125813952Y-100236745D01*
X125817157Y-100211540D01*
X125821588Y-100186757D01*
X125827213Y-100162427D01*
X125834000Y-100138579D01*
X125841916Y-100115243D01*
X125850928Y-100092452D01*
X125861005Y-100070233D01*
X125872114Y-100048619D01*
X125884224Y-100027639D01*
X125897300Y-100007324D01*
X125911313Y-99987703D01*
X125926228Y-99968809D01*
X125942014Y-99950669D01*
X125958639Y-99933316D01*
X125976070Y-99916780D01*
X125994274Y-99901090D01*
X126013221Y-99886278D01*
X126032876Y-99872373D01*
X126053209Y-99859406D01*
X126074186Y-99847407D01*
X126095776Y-99836408D01*
X126117945Y-99826437D01*
X126140663Y-99817525D01*
X126163896Y-99809703D01*
X126187612Y-99803001D01*
X126211779Y-99797450D01*
X126236365Y-99793079D01*
X126261337Y-99789920D01*
X126286663Y-99788002D01*
X126312310Y-99787356D01*
X135311969Y-99787356D01*
X135337927Y-99788012D01*
X135363524Y-99789958D01*
X135388730Y-99793163D01*
X135413513Y-99797594D01*
X135437845Y-99803219D01*
X135461694Y-99810005D01*
X135485030Y-99817920D01*
X135507822Y-99826932D01*
X135530041Y-99837009D01*
X135551656Y-99848117D01*
X135572637Y-99860226D01*
X135592953Y-99873302D01*
X135612574Y-99887314D01*
X135631470Y-99902229D01*
X135649610Y-99918014D01*
X135666963Y-99934638D01*
X135683500Y-99952068D01*
X135699191Y-99970272D01*
X135714003Y-99989218D01*
X135727909Y-100008873D01*
X135740876Y-100029204D01*
X135752875Y-100050181D01*
X135763876Y-100071770D01*
X135773847Y-100093939D01*
X135782759Y-100116655D01*
X135790582Y-100139888D01*
X135797284Y-100163603D01*
X135802835Y-100187769D01*
X135807206Y-100212354D01*
X135810366Y-100237326D01*
X135812284Y-100262651D01*
X135812930Y-100288298D01*
X135812930Y-111287764D01*
X135812274Y-111313721D01*
X135810327Y-111339317D01*
X135807122Y-111364522D01*
X135802691Y-111389304D01*
X135797066Y-111413635D01*
X135790279Y-111437483D01*
X135782364Y-111460818D01*
X135773351Y-111483610D01*
X135763274Y-111505828D01*
X135752165Y-111527442D01*
X135740056Y-111548422D01*
X135726979Y-111568737D01*
X135712966Y-111588357D01*
X135698051Y-111607252D01*
X135682265Y-111625391D01*
X135665640Y-111642743D01*
X135648210Y-111659280D01*
X135630005Y-111674969D01*
X135611059Y-111689781D01*
X135591403Y-111703686D01*
X135571070Y-111716653D01*
X135550093Y-111728651D01*
X135528504Y-111739651D01*
X135506334Y-111749622D01*
X135483617Y-111758534D01*
X135460384Y-111766355D01*
X135436667Y-111773057D01*
X135412500Y-111778608D01*
X135387915Y-111782979D01*
X135362943Y-111786138D01*
X135337617Y-111788056D01*
X135311969Y-111788702D01*
X126312310Y-111788702D01*
X126286352Y-111788046D01*
X126260755Y-111786100D01*
X126235550Y-111782895D01*
X126210766Y-111778464D01*
X126186435Y-111772839D01*
X126162586Y-111766053D01*
X126139250Y-111758138D01*
X126116457Y-111749126D01*
X126094238Y-111739050D01*
X126072623Y-111727941D01*
X126051642Y-111715833D01*
X126031326Y-111702757D01*
X126011705Y-111688745D01*
X125992809Y-111673831D01*
X125974670Y-111658045D01*
X125957316Y-111641422D01*
X125940779Y-111623992D01*
X125925089Y-111605788D01*
X125910276Y-111586843D01*
X125896370Y-111567188D01*
X125883403Y-111546856D01*
X125871404Y-111525880D01*
X125860403Y-111504291D01*
X125850432Y-111482122D01*
X125841520Y-111459406D01*
X125833698Y-111436174D01*
X125826995Y-111412458D01*
X125821444Y-111388292D01*
X125817073Y-111363707D01*
X125813913Y-111338736D01*
X125811995Y-111313411D01*
X125811349Y-111287764D01*
X126164139Y-111287764D01*
X126164333Y-111295328D01*
X126164911Y-111302799D01*
X126165862Y-111310169D01*
X126167177Y-111317426D01*
X126168846Y-111324562D01*
X126170860Y-111331568D01*
X126173207Y-111338432D01*
X126175880Y-111345146D01*
X126178868Y-111351700D01*
X126182162Y-111358083D01*
X126185751Y-111364288D01*
X126189626Y-111370303D01*
X126193778Y-111376119D01*
X126198197Y-111381726D01*
X126202873Y-111387115D01*
X126207797Y-111392276D01*
X126212958Y-111397199D01*
X126218347Y-111401875D01*
X126223954Y-111406294D01*
X126229770Y-111410446D01*
X126235785Y-111414322D01*
X126241989Y-111417911D01*
X126248373Y-111421205D01*
X126254927Y-111424193D01*
X126261641Y-111426866D01*
X126268505Y-111429213D01*
X126275511Y-111431227D01*
X126282647Y-111432896D01*
X126289905Y-111434210D01*
X126297275Y-111435162D01*
X126304746Y-111435740D01*
X126312310Y-111435934D01*
X135311969Y-111435934D01*
X135319533Y-111435740D01*
X135327005Y-111435162D01*
X135334375Y-111434210D01*
X135341633Y-111432896D01*
X135348769Y-111431227D01*
X135355774Y-111429213D01*
X135362639Y-111426866D01*
X135369353Y-111424193D01*
X135375906Y-111421205D01*
X135382290Y-111417911D01*
X135388494Y-111414322D01*
X135394509Y-111410446D01*
X135400325Y-111406294D01*
X135405933Y-111401875D01*
X135411322Y-111397199D01*
X135416483Y-111392276D01*
X135421406Y-111387115D01*
X135426082Y-111381726D01*
X135430501Y-111376119D01*
X135434653Y-111370303D01*
X135438528Y-111364288D01*
X135442117Y-111358083D01*
X135445411Y-111351700D01*
X135448399Y-111345146D01*
X135451072Y-111338432D01*
X135453419Y-111331568D01*
X135455432Y-111324562D01*
X135457101Y-111317426D01*
X135458416Y-111310169D01*
X135459367Y-111302799D01*
X135459945Y-111295328D01*
X135460140Y-111287764D01*
X135460140Y-100288290D01*
X135459945Y-100280726D01*
X135459367Y-100273255D01*
X135458416Y-100265886D01*
X135457101Y-100258628D01*
X135455432Y-100251492D01*
X135453419Y-100244487D01*
X135451072Y-100237623D01*
X135448399Y-100230909D01*
X135445411Y-100224356D01*
X135442117Y-100217973D01*
X135438528Y-100211769D01*
X135434653Y-100205754D01*
X135430501Y-100199938D01*
X135426082Y-100194331D01*
X135421406Y-100188943D01*
X135416483Y-100183782D01*
X135411322Y-100178859D01*
X135405933Y-100174183D01*
X135400325Y-100169765D01*
X135394509Y-100165613D01*
X135388494Y-100161738D01*
X135382290Y-100158149D01*
X135375906Y-100154855D01*
X135369353Y-100151868D01*
X135362639Y-100149195D01*
X135355774Y-100146848D01*
X135348769Y-100144835D01*
X135341633Y-100143166D01*
X135334375Y-100141851D01*
X135327005Y-100140900D01*
X135319533Y-100140322D01*
X135311969Y-100140127D01*
X126312310Y-100140127D01*
X126304746Y-100140322D01*
X126297275Y-100140900D01*
X126289905Y-100141851D01*
X126282647Y-100143166D01*
X126275511Y-100144835D01*
X126268505Y-100146848D01*
X126261641Y-100149196D01*
X126254927Y-100151869D01*
X126248373Y-100154857D01*
X126241989Y-100158151D01*
X126235785Y-100161740D01*
X126229770Y-100165615D01*
X126223954Y-100169768D01*
X126218346Y-100174186D01*
X126212957Y-100178862D01*
X126207796Y-100183786D01*
X126202873Y-100188947D01*
X126198197Y-100194336D01*
X126193778Y-100199943D01*
X126189626Y-100205759D01*
X126185751Y-100211774D01*
X126182162Y-100217978D01*
X126178868Y-100224362D01*
X126175880Y-100230916D01*
X126173207Y-100237630D01*
X126170860Y-100244494D01*
X126168846Y-100251499D01*
X126167177Y-100258636D01*
X126165862Y-100265893D01*
X126164911Y-100273263D01*
X126164333Y-100280734D01*
X126164139Y-100288298D01*
X126164139Y-111287764D01*
X125811349Y-111287764D01*
X125811349Y-100288298D01*
X125812005Y-100262341D01*
G37*
G36*
X127983712Y-123589448D02*
G01*
X128008583Y-123590577D01*
X128034419Y-123592776D01*
X128060772Y-123596401D01*
X128074002Y-123598860D01*
X128087193Y-123601809D01*
X128100288Y-123605293D01*
X128113231Y-123609356D01*
X128125966Y-123614043D01*
X128138437Y-123619399D01*
X128150587Y-123625468D01*
X128162361Y-123632295D01*
X128173702Y-123639924D01*
X128184555Y-123648400D01*
X128194861Y-123657767D01*
X128204567Y-123668071D01*
X128213615Y-123679354D01*
X128221949Y-123691663D01*
X128229513Y-123705042D01*
X128236251Y-123719535D01*
X128242106Y-123735187D01*
X128247023Y-123752042D01*
X128250945Y-123770145D01*
X128253816Y-123789541D01*
X128255580Y-123810274D01*
X128256180Y-123832388D01*
X128255509Y-123857387D01*
X128253535Y-123880824D01*
X128250323Y-123902749D01*
X128245934Y-123923213D01*
X128240432Y-123942266D01*
X128233879Y-123959959D01*
X128226337Y-123976343D01*
X128217870Y-123991466D01*
X128208539Y-124005380D01*
X128198409Y-124018136D01*
X128187540Y-124029783D01*
X128175997Y-124040372D01*
X128163841Y-124049953D01*
X128151135Y-124058577D01*
X128137943Y-124066294D01*
X128124325Y-124073155D01*
X128110347Y-124079209D01*
X128096069Y-124084508D01*
X128066866Y-124093039D01*
X128037219Y-124099153D01*
X128007629Y-124103250D01*
X127978597Y-124105736D01*
X127950625Y-124107013D01*
X127899863Y-124107550D01*
X127744636Y-124107550D01*
X127744636Y-123588972D01*
X127938670Y-123588972D01*
X127983712Y-123589448D01*
G37*
G36*
X125812005Y-114235684D02*
G01*
X125813952Y-114210089D01*
X125817157Y-114184885D01*
X125821588Y-114160103D01*
X125827213Y-114135773D01*
X125834000Y-114111925D01*
X125841916Y-114088591D01*
X125850928Y-114065799D01*
X125861005Y-114043582D01*
X125872114Y-114021968D01*
X125884224Y-114000988D01*
X125897300Y-113980673D01*
X125911313Y-113961054D01*
X125926228Y-113942159D01*
X125942014Y-113924020D01*
X125958639Y-113906668D01*
X125976070Y-113890132D01*
X125994274Y-113874443D01*
X126013221Y-113859630D01*
X126032876Y-113845726D01*
X126053209Y-113832759D01*
X126074186Y-113820761D01*
X126095776Y-113809761D01*
X126117945Y-113799790D01*
X126140663Y-113790879D01*
X126163896Y-113783057D01*
X126187612Y-113776355D01*
X126211779Y-113770804D01*
X126236365Y-113766433D01*
X126261337Y-113763274D01*
X126286663Y-113761356D01*
X126312310Y-113760710D01*
X135311969Y-113760710D01*
X135337927Y-113761366D01*
X135363524Y-113763313D01*
X135388730Y-113766518D01*
X135413513Y-113770948D01*
X135437845Y-113776573D01*
X135461694Y-113783359D01*
X135485030Y-113791274D01*
X135507822Y-113800286D01*
X135530041Y-113810362D01*
X135551656Y-113821471D01*
X135572637Y-113833579D01*
X135592953Y-113846655D01*
X135612574Y-113860667D01*
X135631470Y-113875581D01*
X135649610Y-113891366D01*
X135666963Y-113907990D01*
X135683500Y-113925419D01*
X135699191Y-113943623D01*
X135714003Y-113962568D01*
X135727909Y-113982222D01*
X135740876Y-114002554D01*
X135752875Y-114023530D01*
X135763876Y-114045118D01*
X135773847Y-114067286D01*
X135782759Y-114090003D01*
X135790582Y-114113234D01*
X135797284Y-114136949D01*
X135802835Y-114161115D01*
X135807206Y-114185699D01*
X135810366Y-114210670D01*
X135812284Y-114235994D01*
X135812930Y-114261641D01*
X135812930Y-125261114D01*
X135812274Y-125287072D01*
X135810327Y-125312668D01*
X135807122Y-125337872D01*
X135802691Y-125362655D01*
X135797066Y-125386985D01*
X135790279Y-125410833D01*
X135782364Y-125434168D01*
X135773351Y-125456960D01*
X135763274Y-125479178D01*
X135752165Y-125500792D01*
X135740056Y-125521772D01*
X135726979Y-125542087D01*
X135712966Y-125561708D01*
X135698051Y-125580602D01*
X135682265Y-125598741D01*
X135665640Y-125616094D01*
X135648210Y-125632630D01*
X135630005Y-125648320D01*
X135611059Y-125663132D01*
X135591403Y-125677037D01*
X135571070Y-125690003D01*
X135550093Y-125702002D01*
X135528504Y-125713002D01*
X135506334Y-125722973D01*
X135483617Y-125731884D01*
X135460384Y-125739706D01*
X135436667Y-125746408D01*
X135412500Y-125751959D01*
X135387915Y-125756329D01*
X135362943Y-125759489D01*
X135337617Y-125761407D01*
X135311969Y-125762053D01*
X126312310Y-125762053D01*
X126286352Y-125761397D01*
X126260755Y-125759450D01*
X126235550Y-125756245D01*
X126210766Y-125751814D01*
X126186435Y-125746189D01*
X126162586Y-125739403D01*
X126139250Y-125731488D01*
X126116457Y-125722476D01*
X126094238Y-125712399D01*
X126072623Y-125701290D01*
X126051642Y-125689182D01*
X126031326Y-125676105D01*
X126011705Y-125662093D01*
X125992809Y-125647179D01*
X125974670Y-125631393D01*
X125957316Y-125614769D01*
X125940779Y-125597339D01*
X125925089Y-125579135D01*
X125910276Y-125560190D01*
X125896370Y-125540535D01*
X125883403Y-125520203D01*
X125871404Y-125499227D01*
X125860403Y-125477639D01*
X125850432Y-125455470D01*
X125841520Y-125432753D01*
X125833698Y-125409522D01*
X125826995Y-125385806D01*
X125821444Y-125361641D01*
X125817073Y-125337056D01*
X125813913Y-125312085D01*
X125811995Y-125286761D01*
X125811349Y-125261114D01*
X125811349Y-125095320D01*
X127363623Y-125095320D01*
X127755219Y-125095320D01*
X127755219Y-125095312D01*
X128877090Y-125095312D01*
X129265158Y-125095312D01*
X129265158Y-123588965D01*
X129462720Y-123588965D01*
X129998960Y-123588965D01*
X129998960Y-125095312D01*
X130387029Y-125095312D01*
X130387029Y-124231016D01*
X131036161Y-124231016D01*
X131038611Y-124315031D01*
X131046166Y-124398606D01*
X131059137Y-124481055D01*
X131077834Y-124561690D01*
X131089427Y-124601112D01*
X131102568Y-124639823D01*
X131117295Y-124677737D01*
X131133647Y-124714768D01*
X131151663Y-124750830D01*
X131171382Y-124785837D01*
X131192843Y-124819703D01*
X131216084Y-124852343D01*
X131241144Y-124883670D01*
X131268062Y-124913598D01*
X131296876Y-124942043D01*
X131327626Y-124968917D01*
X131360350Y-124994134D01*
X131395087Y-125017610D01*
X131431875Y-125039257D01*
X131470754Y-125058991D01*
X131511762Y-125076724D01*
X131554937Y-125092372D01*
X131600320Y-125105849D01*
X131647948Y-125117067D01*
X131697860Y-125125942D01*
X131750095Y-125132388D01*
X131804691Y-125136319D01*
X131861688Y-125137648D01*
X131892591Y-125137211D01*
X131924357Y-125135808D01*
X131956856Y-125133299D01*
X131989960Y-125129545D01*
X132023540Y-125124406D01*
X132057466Y-125117742D01*
X132091609Y-125109415D01*
X132125840Y-125099283D01*
X132137084Y-125095312D01*
X132782469Y-125095312D01*
X133170537Y-125095312D01*
X133170537Y-124301573D01*
X133858476Y-124301573D01*
X133858476Y-125095312D01*
X134243016Y-125095312D01*
X134243016Y-123289114D01*
X133851420Y-123289114D01*
X133851420Y-124012297D01*
X133170537Y-124012297D01*
X133170537Y-123289114D01*
X132782469Y-123289114D01*
X132782469Y-125095312D01*
X132137084Y-125095312D01*
X132160029Y-125087209D01*
X132194048Y-125073053D01*
X132227767Y-125056674D01*
X132261057Y-125037934D01*
X132293789Y-125016693D01*
X132325834Y-124992811D01*
X132357062Y-124966149D01*
X132387345Y-124936568D01*
X132387345Y-124933035D01*
X132400517Y-124919085D01*
X132412927Y-124905027D01*
X132424599Y-124890876D01*
X132435557Y-124876647D01*
X132445826Y-124862356D01*
X132455428Y-124848019D01*
X132472731Y-124819266D01*
X132487656Y-124790514D01*
X132500396Y-124761886D01*
X132511141Y-124733505D01*
X132520082Y-124705497D01*
X132527411Y-124677985D01*
X132533318Y-124651093D01*
X132537996Y-124624945D01*
X132541635Y-124599666D01*
X132546562Y-124552207D01*
X132549628Y-124509711D01*
X132143920Y-124509711D01*
X132142828Y-124531798D01*
X132140895Y-124553085D01*
X132138145Y-124573579D01*
X132134604Y-124593287D01*
X132130298Y-124612214D01*
X132125254Y-124630367D01*
X132119496Y-124647753D01*
X132113051Y-124664378D01*
X132105944Y-124680248D01*
X132098202Y-124695371D01*
X132089850Y-124709752D01*
X132080914Y-124723398D01*
X132071420Y-124736315D01*
X132061393Y-124748510D01*
X132050861Y-124759990D01*
X132039847Y-124770760D01*
X132028379Y-124780827D01*
X132016482Y-124790198D01*
X132004181Y-124798879D01*
X131991504Y-124806877D01*
X131978475Y-124814198D01*
X131965121Y-124820848D01*
X131951466Y-124826835D01*
X131937538Y-124832164D01*
X131923362Y-124836841D01*
X131908964Y-124840874D01*
X131894369Y-124844269D01*
X131879603Y-124847032D01*
X131849665Y-124850689D01*
X131819354Y-124851897D01*
X131785059Y-124850416D01*
X131752907Y-124846087D01*
X131722828Y-124839078D01*
X131694755Y-124829559D01*
X131668616Y-124817699D01*
X131644343Y-124803668D01*
X131621868Y-124787634D01*
X131601121Y-124769767D01*
X131582032Y-124750236D01*
X131564533Y-124729210D01*
X131548555Y-124706859D01*
X131534029Y-124683352D01*
X131520885Y-124658858D01*
X131509054Y-124633545D01*
X131498467Y-124607585D01*
X131489055Y-124581145D01*
X131473480Y-124527504D01*
X131461776Y-124473976D01*
X131453389Y-124421916D01*
X131447768Y-124372678D01*
X131444358Y-124327615D01*
X131442607Y-124288081D01*
X131441869Y-124231016D01*
X131443286Y-124162448D01*
X131447582Y-124095869D01*
X131454823Y-124031615D01*
X131459569Y-124000465D01*
X131465076Y-123970022D01*
X131471354Y-123940328D01*
X131478410Y-123911426D01*
X131486253Y-123883357D01*
X131494891Y-123856164D01*
X131504333Y-123829887D01*
X131514587Y-123804570D01*
X131525661Y-123780254D01*
X131537564Y-123756981D01*
X131550304Y-123734793D01*
X131563889Y-123713733D01*
X131578329Y-123693842D01*
X131593631Y-123675161D01*
X131609804Y-123657734D01*
X131626855Y-123641602D01*
X131644795Y-123626807D01*
X131663630Y-123613392D01*
X131683370Y-123601397D01*
X131704023Y-123590865D01*
X131725597Y-123581839D01*
X131748100Y-123574359D01*
X131771541Y-123568469D01*
X131795929Y-123564209D01*
X131821271Y-123561623D01*
X131847577Y-123560751D01*
X131871676Y-123561482D01*
X131894391Y-123563619D01*
X131915764Y-123567082D01*
X131935836Y-123571789D01*
X131954650Y-123577659D01*
X131972248Y-123584610D01*
X131988671Y-123592561D01*
X132003962Y-123601431D01*
X132018162Y-123611137D01*
X132031314Y-123621600D01*
X132043460Y-123632736D01*
X132054641Y-123644466D01*
X132064899Y-123656708D01*
X132074278Y-123669379D01*
X132082817Y-123682400D01*
X132090560Y-123695687D01*
X132097549Y-123709161D01*
X132103825Y-123722740D01*
X132114408Y-123749885D01*
X132122645Y-123776473D01*
X132128871Y-123801851D01*
X132133423Y-123825368D01*
X132136637Y-123846375D01*
X132140392Y-123878248D01*
X132535516Y-123878248D01*
X132534705Y-123844869D01*
X132532290Y-123812215D01*
X132528302Y-123780307D01*
X132522769Y-123749168D01*
X132515723Y-123718820D01*
X132507192Y-123689284D01*
X132497206Y-123660583D01*
X132485795Y-123632738D01*
X132472989Y-123605772D01*
X132458817Y-123579707D01*
X132443310Y-123554564D01*
X132426496Y-123530365D01*
X132408406Y-123507133D01*
X132389069Y-123484888D01*
X132368515Y-123463655D01*
X132346774Y-123443453D01*
X132323875Y-123424306D01*
X132299849Y-123406235D01*
X132274724Y-123389261D01*
X132248530Y-123373408D01*
X132221298Y-123358697D01*
X132193057Y-123345150D01*
X132163837Y-123332789D01*
X132133667Y-123321636D01*
X132102577Y-123311713D01*
X132070597Y-123303042D01*
X132037757Y-123295644D01*
X132004086Y-123289543D01*
X131969614Y-123284758D01*
X131934370Y-123281314D01*
X131898385Y-123279231D01*
X131861688Y-123278532D01*
X131814934Y-123279643D01*
X131769280Y-123282951D01*
X131724751Y-123288421D01*
X131681373Y-123296019D01*
X131639170Y-123305711D01*
X131598169Y-123317460D01*
X131558393Y-123331232D01*
X131519868Y-123346992D01*
X131482620Y-123364706D01*
X131446674Y-123384339D01*
X131412055Y-123405854D01*
X131378787Y-123429219D01*
X131346897Y-123454397D01*
X131316409Y-123481355D01*
X131287349Y-123510056D01*
X131259741Y-123540467D01*
X131233612Y-123572551D01*
X131208986Y-123606276D01*
X131185888Y-123641604D01*
X131164344Y-123678503D01*
X131144378Y-123716936D01*
X131126016Y-123756869D01*
X131109284Y-123798266D01*
X131094206Y-123841094D01*
X131080807Y-123885318D01*
X131069114Y-123930901D01*
X131059150Y-123977810D01*
X131050941Y-124026010D01*
X131044513Y-124075465D01*
X131039890Y-124126141D01*
X131036161Y-124231016D01*
X130387029Y-124231016D01*
X130387029Y-123588965D01*
X130926796Y-123588965D01*
X130926796Y-123289107D01*
X129462720Y-123289107D01*
X129462720Y-123588965D01*
X129265158Y-123588965D01*
X129265158Y-123285582D01*
X128877090Y-123285582D01*
X128877090Y-125095312D01*
X127755219Y-125095312D01*
X127755219Y-124393294D01*
X128016283Y-124393294D01*
X128055717Y-124393128D01*
X128101559Y-124391971D01*
X128152279Y-124388829D01*
X128178991Y-124386204D01*
X128206348Y-124382711D01*
X128234161Y-124378225D01*
X128262237Y-124372624D01*
X128290385Y-124365782D01*
X128318414Y-124357576D01*
X128346133Y-124347882D01*
X128373351Y-124336576D01*
X128399877Y-124323533D01*
X128425519Y-124308630D01*
X128429047Y-124308638D01*
X128454877Y-124290421D01*
X128479416Y-124270226D01*
X128502611Y-124248138D01*
X128524410Y-124224248D01*
X128544763Y-124198642D01*
X128563617Y-124171407D01*
X128580920Y-124142633D01*
X128596622Y-124112407D01*
X128610669Y-124080816D01*
X128623012Y-124047950D01*
X128633597Y-124013894D01*
X128642374Y-123978738D01*
X128649290Y-123942569D01*
X128654294Y-123905475D01*
X128657335Y-123867544D01*
X128658360Y-123828863D01*
X128657567Y-123791738D01*
X128656430Y-123772214D01*
X128654667Y-123752133D01*
X128652180Y-123731555D01*
X128648872Y-123710543D01*
X128644644Y-123689159D01*
X128639398Y-123667465D01*
X128633035Y-123645524D01*
X128625458Y-123623396D01*
X128616569Y-123601144D01*
X128606268Y-123578830D01*
X128594459Y-123556516D01*
X128581043Y-123534264D01*
X128565921Y-123512136D01*
X128548995Y-123490195D01*
X128519812Y-123458328D01*
X128489166Y-123430053D01*
X128457083Y-123405157D01*
X128423590Y-123383429D01*
X128388711Y-123364656D01*
X128352474Y-123348628D01*
X128314903Y-123335131D01*
X128276024Y-123323955D01*
X128235864Y-123314887D01*
X128194449Y-123307715D01*
X128151803Y-123302228D01*
X128107953Y-123298214D01*
X128062925Y-123295460D01*
X128016745Y-123293756D01*
X127921030Y-123292647D01*
X127363623Y-123292647D01*
X127363623Y-125095320D01*
X125811349Y-125095320D01*
X125811349Y-114261641D01*
X125812005Y-114235684D01*
G37*
G36*
X146759834Y-123635136D02*
G01*
X146788239Y-123635943D01*
X146814702Y-123637174D01*
X146839366Y-123638803D01*
X146862377Y-123640804D01*
X146883878Y-123643151D01*
X146904015Y-123645819D01*
X146922933Y-123648782D01*
X146940776Y-123652013D01*
X146957688Y-123655487D01*
X146989301Y-123663061D01*
X146989301Y-123663046D01*
X147011349Y-123669822D01*
X147032520Y-123677562D01*
X147052825Y-123686239D01*
X147072276Y-123695824D01*
X147090884Y-123706290D01*
X147108662Y-123717610D01*
X147125621Y-123729756D01*
X147141773Y-123742698D01*
X147157128Y-123756412D01*
X147171699Y-123770867D01*
X147185498Y-123786036D01*
X147198536Y-123801892D01*
X147222375Y-123835553D01*
X147243310Y-123871627D01*
X147261433Y-123909892D01*
X147276839Y-123950126D01*
X147289619Y-123992106D01*
X147299867Y-124035610D01*
X147307675Y-124080417D01*
X147313138Y-124126303D01*
X147316347Y-124173047D01*
X147317396Y-124220427D01*
X147316645Y-124260343D01*
X147313372Y-124314191D01*
X147310312Y-124345215D01*
X147306047Y-124378373D01*
X147300388Y-124413216D01*
X147293142Y-124449293D01*
X147284118Y-124486156D01*
X147273125Y-124523355D01*
X147259972Y-124560440D01*
X147244468Y-124596962D01*
X147226421Y-124632470D01*
X147205640Y-124666516D01*
X147194165Y-124682850D01*
X147181935Y-124698650D01*
X147168925Y-124713860D01*
X147155113Y-124728422D01*
X147133616Y-124747832D01*
X147111462Y-124765128D01*
X147088657Y-124780429D01*
X147065207Y-124793855D01*
X147041115Y-124805523D01*
X147016388Y-124815552D01*
X146991030Y-124824063D01*
X146965047Y-124831172D01*
X146938444Y-124837000D01*
X146911226Y-124841666D01*
X146883398Y-124845287D01*
X146854965Y-124847984D01*
X146825933Y-124849874D01*
X146796307Y-124851077D01*
X146735292Y-124851897D01*
X146583593Y-124848372D01*
X146583593Y-123638365D01*
X146623885Y-123636665D01*
X146661511Y-123635518D01*
X146696614Y-123634898D01*
X146729340Y-123634779D01*
X146759834Y-123635136D01*
G37*
G36*
X145094180Y-123583071D02*
G01*
X145127925Y-123586586D01*
X145160720Y-123592488D01*
X145176742Y-123596346D01*
X145192502Y-123600814D01*
X145207994Y-123605897D01*
X145223210Y-123611600D01*
X145238141Y-123617927D01*
X145252780Y-123624882D01*
X145267119Y-123632470D01*
X145281151Y-123640696D01*
X145294868Y-123649563D01*
X145308262Y-123659078D01*
X145321325Y-123669243D01*
X145334049Y-123680065D01*
X145346427Y-123691546D01*
X145358452Y-123703692D01*
X145370114Y-123716507D01*
X145381407Y-123729996D01*
X145392323Y-123744164D01*
X145402854Y-123759014D01*
X145412992Y-123774551D01*
X145422729Y-123790780D01*
X145432058Y-123807706D01*
X145440971Y-123825332D01*
X145449461Y-123843664D01*
X145457519Y-123862706D01*
X145465137Y-123882462D01*
X145472309Y-123902937D01*
X145479219Y-123923596D01*
X145485421Y-123944512D01*
X145490952Y-123965615D01*
X145495846Y-123986832D01*
X145500141Y-124008089D01*
X145503873Y-124029316D01*
X145507078Y-124050440D01*
X145509792Y-124071388D01*
X145513891Y-124112466D01*
X145516461Y-124151974D01*
X145517790Y-124189331D01*
X145518169Y-124223959D01*
X145517441Y-124276485D01*
X145515323Y-124325679D01*
X145511914Y-124371678D01*
X145507310Y-124414624D01*
X145501611Y-124454655D01*
X145494914Y-124491911D01*
X145487319Y-124526531D01*
X145478922Y-124558656D01*
X145469822Y-124588424D01*
X145460118Y-124615975D01*
X145449908Y-124641449D01*
X145439289Y-124664984D01*
X145428360Y-124686721D01*
X145417219Y-124706799D01*
X145405965Y-124725358D01*
X145394695Y-124742537D01*
X145380426Y-124762421D01*
X145365383Y-124781060D01*
X145349533Y-124798448D01*
X145332846Y-124814581D01*
X145315291Y-124829453D01*
X145296836Y-124843058D01*
X145277452Y-124855393D01*
X145257106Y-124866451D01*
X145235768Y-124876228D01*
X145213407Y-124884718D01*
X145189991Y-124891916D01*
X145165490Y-124897817D01*
X145139873Y-124902416D01*
X145113109Y-124905707D01*
X145085167Y-124907686D01*
X145056015Y-124908346D01*
X145039404Y-124908142D01*
X145023300Y-124907536D01*
X145007694Y-124906541D01*
X144992575Y-124905170D01*
X144977934Y-124903434D01*
X144963762Y-124901347D01*
X144950048Y-124898919D01*
X144936783Y-124896164D01*
X144923957Y-124893094D01*
X144911562Y-124889721D01*
X144899585Y-124886057D01*
X144888019Y-124882115D01*
X144876854Y-124877906D01*
X144866080Y-124873444D01*
X144855686Y-124868740D01*
X144845664Y-124863807D01*
X144836004Y-124858657D01*
X144826696Y-124853302D01*
X144817730Y-124847754D01*
X144809096Y-124842026D01*
X144800786Y-124836130D01*
X144792789Y-124830079D01*
X144777697Y-124817558D01*
X144763741Y-124804561D01*
X144750845Y-124791188D01*
X144738930Y-124777535D01*
X144727920Y-124763701D01*
X144708973Y-124736681D01*
X144691773Y-124708602D01*
X144676247Y-124679562D01*
X144662323Y-124649659D01*
X144649929Y-124618991D01*
X144638992Y-124587656D01*
X144629441Y-124555753D01*
X144621201Y-124523380D01*
X144614203Y-124490634D01*
X144608372Y-124457614D01*
X144603636Y-124424418D01*
X144599924Y-124391145D01*
X144597163Y-124357892D01*
X144595280Y-124324758D01*
X144594203Y-124291840D01*
X144593860Y-124259238D01*
X144594242Y-124220973D01*
X144595425Y-124182972D01*
X144597465Y-124145333D01*
X144600420Y-124108153D01*
X144604347Y-124071531D01*
X144609302Y-124035566D01*
X144615342Y-124000355D01*
X144622525Y-123965997D01*
X144630906Y-123932590D01*
X144640543Y-123900231D01*
X144651493Y-123869020D01*
X144663812Y-123839054D01*
X144677558Y-123810432D01*
X144692786Y-123783252D01*
X144709555Y-123757612D01*
X144727920Y-123733610D01*
X144741683Y-123716792D01*
X144756494Y-123700758D01*
X144772330Y-123685552D01*
X144789162Y-123671213D01*
X144806966Y-123657784D01*
X144825716Y-123645306D01*
X144845385Y-123633820D01*
X144865949Y-123623368D01*
X144887381Y-123613990D01*
X144909655Y-123605728D01*
X144932746Y-123598624D01*
X144956628Y-123592719D01*
X144981274Y-123588055D01*
X145006659Y-123584671D01*
X145032758Y-123582611D01*
X145059543Y-123581915D01*
X145059543Y-123581913D01*
X145059544Y-123581912D01*
X145059544Y-123581908D01*
X145059545Y-123581908D01*
X145094180Y-123583071D01*
G37*
G36*
X139782468Y-114235684D02*
G01*
X139784415Y-114210089D01*
X139787620Y-114184885D01*
X139792052Y-114160103D01*
X139797676Y-114135773D01*
X139804463Y-114111925D01*
X139812378Y-114088591D01*
X139821391Y-114065799D01*
X139831468Y-114043582D01*
X139842577Y-114021968D01*
X139854686Y-114000988D01*
X139867763Y-113980673D01*
X139881775Y-113961054D01*
X139896691Y-113942159D01*
X139912477Y-113924020D01*
X139929102Y-113906668D01*
X139946532Y-113890132D01*
X139964737Y-113874443D01*
X139983683Y-113859630D01*
X140003339Y-113845726D01*
X140023672Y-113832759D01*
X140044649Y-113820761D01*
X140066238Y-113809761D01*
X140088408Y-113799790D01*
X140111126Y-113790879D01*
X140134359Y-113783057D01*
X140158075Y-113776355D01*
X140182242Y-113770804D01*
X140206828Y-113766433D01*
X140231800Y-113763274D01*
X140257126Y-113761356D01*
X140282774Y-113760710D01*
X149282432Y-113760710D01*
X149308390Y-113761366D01*
X149333987Y-113763313D01*
X149359193Y-113766518D01*
X149383976Y-113770948D01*
X149408308Y-113776573D01*
X149432157Y-113783359D01*
X149455493Y-113791274D01*
X149478286Y-113800286D01*
X149500505Y-113810362D01*
X149522120Y-113821471D01*
X149543101Y-113833579D01*
X149563417Y-113846655D01*
X149583038Y-113860667D01*
X149601933Y-113875581D01*
X149620073Y-113891366D01*
X149637427Y-113907990D01*
X149653964Y-113925419D01*
X149669654Y-113943623D01*
X149684467Y-113962568D01*
X149698373Y-113982222D01*
X149711340Y-114002554D01*
X149723339Y-114023530D01*
X149734340Y-114045118D01*
X149744311Y-114067286D01*
X149753223Y-114090003D01*
X149761045Y-114113234D01*
X149767747Y-114136949D01*
X149773299Y-114161115D01*
X149777670Y-114185699D01*
X149780829Y-114210670D01*
X149782748Y-114235994D01*
X149783394Y-114261641D01*
X149783394Y-125261114D01*
X149782738Y-125287072D01*
X149780791Y-125312668D01*
X149777586Y-125337872D01*
X149773154Y-125362655D01*
X149767529Y-125386985D01*
X149760743Y-125410833D01*
X149752827Y-125434168D01*
X149743815Y-125456960D01*
X149733738Y-125479178D01*
X149722628Y-125500792D01*
X149710519Y-125521772D01*
X149697442Y-125542087D01*
X149683430Y-125561708D01*
X149668514Y-125580602D01*
X149652728Y-125598741D01*
X149636104Y-125616094D01*
X149618673Y-125632630D01*
X149600468Y-125648320D01*
X149581522Y-125663132D01*
X149561866Y-125677037D01*
X149541534Y-125690003D01*
X149520556Y-125702002D01*
X149498967Y-125713002D01*
X149476797Y-125722973D01*
X149454079Y-125731884D01*
X149430847Y-125739706D01*
X149407130Y-125746408D01*
X149382963Y-125751959D01*
X149358378Y-125756329D01*
X149333406Y-125759489D01*
X149308080Y-125761407D01*
X149282432Y-125762053D01*
X140282774Y-125762053D01*
X140256816Y-125761397D01*
X140231219Y-125759450D01*
X140206013Y-125756245D01*
X140181230Y-125751814D01*
X140156898Y-125746189D01*
X140133049Y-125739403D01*
X140109713Y-125731488D01*
X140086920Y-125722476D01*
X140064701Y-125712399D01*
X140043086Y-125701290D01*
X140022105Y-125689182D01*
X140001789Y-125676105D01*
X139982168Y-125662093D01*
X139963273Y-125647179D01*
X139945133Y-125631393D01*
X139927779Y-125614769D01*
X139911242Y-125597339D01*
X139895552Y-125579135D01*
X139880739Y-125560190D01*
X139866833Y-125540535D01*
X139853866Y-125520203D01*
X139841867Y-125499227D01*
X139830866Y-125477639D01*
X139820895Y-125455470D01*
X139811983Y-125432753D01*
X139804161Y-125409522D01*
X139797458Y-125385806D01*
X139791907Y-125361641D01*
X139787536Y-125337056D01*
X139784377Y-125312085D01*
X139782458Y-125286761D01*
X139781812Y-125261114D01*
X139781812Y-125144705D01*
X141873855Y-125144705D01*
X142237228Y-125144705D01*
X142237228Y-123596030D01*
X142720548Y-125144705D01*
X143041588Y-125144705D01*
X143531965Y-123596030D01*
X143531965Y-125144705D01*
X143912979Y-125144705D01*
X143912979Y-124269827D01*
X144191681Y-124269827D01*
X144193128Y-124337846D01*
X144195262Y-124375741D01*
X144198626Y-124415786D01*
X144203437Y-124457651D01*
X144209913Y-124501003D01*
X144218269Y-124545513D01*
X144228723Y-124590850D01*
X144241493Y-124636683D01*
X144256795Y-124682682D01*
X144274846Y-124728515D01*
X144295863Y-124773852D01*
X144320064Y-124818362D01*
X144347666Y-124861715D01*
X144378885Y-124903579D01*
X144395919Y-124923850D01*
X144413938Y-124943625D01*
X144445256Y-124974883D01*
X144478275Y-125003863D01*
X144512874Y-125030600D01*
X144548936Y-125055131D01*
X144586342Y-125077492D01*
X144624972Y-125097718D01*
X144664709Y-125115847D01*
X144705432Y-125131914D01*
X144747023Y-125145956D01*
X144789364Y-125158008D01*
X144832335Y-125168107D01*
X144875818Y-125176288D01*
X144919694Y-125182589D01*
X144963843Y-125187044D01*
X145008148Y-125189691D01*
X145052488Y-125190565D01*
X145115384Y-125188760D01*
X145150842Y-125186147D01*
X145188532Y-125182076D01*
X145228125Y-125176311D01*
X145269288Y-125168613D01*
X145311692Y-125158744D01*
X145348786Y-125148230D01*
X146195528Y-125148230D01*
X146756462Y-125148230D01*
X146820329Y-125147899D01*
X146875141Y-125146907D01*
X146922099Y-125145253D01*
X146962401Y-125142938D01*
X146997246Y-125139962D01*
X147027833Y-125136324D01*
X147055360Y-125132025D01*
X147081028Y-125127066D01*
X147081033Y-125127066D01*
X147144598Y-125112504D01*
X147206721Y-125092594D01*
X147267036Y-125067279D01*
X147325174Y-125036502D01*
X147380770Y-125000206D01*
X147433457Y-124958333D01*
X147482867Y-124910828D01*
X147528634Y-124857634D01*
X147550037Y-124828885D01*
X147570391Y-124798693D01*
X147589651Y-124767050D01*
X147607771Y-124733949D01*
X147624704Y-124699383D01*
X147640406Y-124663345D01*
X147654830Y-124625828D01*
X147667931Y-124586824D01*
X147679662Y-124546327D01*
X147689978Y-124504329D01*
X147698832Y-124460824D01*
X147706179Y-124415804D01*
X147711974Y-124369262D01*
X147716170Y-124321191D01*
X147718721Y-124271584D01*
X147719581Y-124220434D01*
X147718615Y-124171854D01*
X147715654Y-124122830D01*
X147710605Y-124073578D01*
X147703375Y-124024316D01*
X147693871Y-123975261D01*
X147682000Y-123926629D01*
X147667670Y-123878638D01*
X147650786Y-123831505D01*
X147631257Y-123785447D01*
X147608988Y-123740681D01*
X147583888Y-123697423D01*
X147555863Y-123655892D01*
X147540725Y-123635841D01*
X147524820Y-123616303D01*
X147508138Y-123597305D01*
X147490666Y-123578875D01*
X147472393Y-123561038D01*
X147453308Y-123543823D01*
X147433398Y-123527257D01*
X147412653Y-123511366D01*
X147392218Y-123496612D01*
X147371301Y-123482760D01*
X147349956Y-123469782D01*
X147328238Y-123457648D01*
X147306202Y-123446331D01*
X147283904Y-123435802D01*
X147238738Y-123416994D01*
X147193179Y-123400998D01*
X147147667Y-123387586D01*
X147102641Y-123376531D01*
X147058540Y-123367605D01*
X147015803Y-123360580D01*
X146974869Y-123355230D01*
X146936179Y-123351327D01*
X146900170Y-123348643D01*
X146837956Y-123346025D01*
X146791742Y-123345557D01*
X146195528Y-123345557D01*
X146195528Y-125148230D01*
X145348786Y-125148230D01*
X145355005Y-125146467D01*
X145398897Y-125131545D01*
X145443037Y-125113739D01*
X145487094Y-125092813D01*
X145530738Y-125068527D01*
X145573638Y-125040645D01*
X145615463Y-125008929D01*
X145635868Y-124991558D01*
X145655882Y-124973140D01*
X145675461Y-124953645D01*
X145694565Y-124933043D01*
X145698093Y-124933035D01*
X145724465Y-124901237D01*
X145749323Y-124866835D01*
X145772641Y-124830034D01*
X145794393Y-124791043D01*
X145814553Y-124750067D01*
X145833096Y-124707314D01*
X145849996Y-124662990D01*
X145865226Y-124617301D01*
X145878761Y-124570455D01*
X145890576Y-124522658D01*
X145900644Y-124474117D01*
X145908939Y-124425039D01*
X145915436Y-124375629D01*
X145920108Y-124326096D01*
X145922931Y-124276645D01*
X145923877Y-124227484D01*
X145923395Y-124192593D01*
X145921838Y-124155546D01*
X145919040Y-124116588D01*
X145914837Y-124075960D01*
X145909063Y-124033906D01*
X145901552Y-123990668D01*
X145892140Y-123946490D01*
X145880661Y-123901614D01*
X145866949Y-123856284D01*
X145850839Y-123810741D01*
X145832166Y-123765230D01*
X145810764Y-123719992D01*
X145786469Y-123675271D01*
X145759114Y-123631309D01*
X145728534Y-123588350D01*
X145694565Y-123546637D01*
X145677774Y-123528557D01*
X145660496Y-123511347D01*
X145624592Y-123479458D01*
X145587087Y-123450813D01*
X145548211Y-123425259D01*
X145508200Y-123402641D01*
X145467283Y-123382802D01*
X145425695Y-123365589D01*
X145383668Y-123350846D01*
X145341434Y-123338417D01*
X145299226Y-123328149D01*
X145257276Y-123319886D01*
X145215817Y-123313473D01*
X145175082Y-123308755D01*
X145135303Y-123305577D01*
X145096713Y-123303784D01*
X145059543Y-123303221D01*
X144999942Y-123304632D01*
X144942823Y-123308806D01*
X144888149Y-123315650D01*
X144835880Y-123325077D01*
X144785978Y-123336994D01*
X144738405Y-123351311D01*
X144693120Y-123367938D01*
X144650087Y-123386785D01*
X144609265Y-123407761D01*
X144570616Y-123430775D01*
X144534101Y-123455738D01*
X144499682Y-123482558D01*
X144467320Y-123511146D01*
X144436976Y-123541411D01*
X144408611Y-123573262D01*
X144382187Y-123606609D01*
X144357664Y-123641361D01*
X144335005Y-123677429D01*
X144314169Y-123714722D01*
X144295119Y-123753149D01*
X144277816Y-123792619D01*
X144262221Y-123833043D01*
X144236000Y-123916390D01*
X144216145Y-124002465D01*
X144202347Y-124090546D01*
X144194296Y-124179907D01*
X144191681Y-124269827D01*
X143912979Y-124269827D01*
X143912979Y-123338507D01*
X143299125Y-123338507D01*
X142886362Y-124650824D01*
X142505348Y-123338507D01*
X141873855Y-123338507D01*
X141873855Y-125144705D01*
X139781812Y-125144705D01*
X139781812Y-114261641D01*
X139782468Y-114235684D01*
G37*
G36*
X125812005Y-128209049D02*
G01*
X125813952Y-128183453D01*
X125817157Y-128158249D01*
X125821588Y-128133466D01*
X125827213Y-128109135D01*
X125834000Y-128085287D01*
X125841916Y-128061952D01*
X125850928Y-128039160D01*
X125861005Y-128016941D01*
X125872114Y-127995327D01*
X125884224Y-127974347D01*
X125897300Y-127954031D01*
X125911313Y-127934411D01*
X125926228Y-127915516D01*
X125942014Y-127897376D01*
X125958639Y-127880023D01*
X125976070Y-127863487D01*
X125994274Y-127847797D01*
X126013221Y-127832984D01*
X126032876Y-127819079D01*
X126053209Y-127806112D01*
X126074186Y-127794113D01*
X126095776Y-127783113D01*
X126117945Y-127773142D01*
X126140663Y-127764230D01*
X126163896Y-127756408D01*
X126187612Y-127749706D01*
X126211779Y-127744155D01*
X126236365Y-127739784D01*
X126261337Y-127736625D01*
X126286663Y-127734707D01*
X126312310Y-127734060D01*
X135311969Y-127734060D01*
X135337927Y-127734717D01*
X135363524Y-127736663D01*
X135388730Y-127739868D01*
X135413513Y-127744300D01*
X135437845Y-127749925D01*
X135461694Y-127756711D01*
X135485030Y-127764626D01*
X135507822Y-127773639D01*
X135530041Y-127783716D01*
X135551656Y-127794825D01*
X135572637Y-127806934D01*
X135592953Y-127820011D01*
X135612574Y-127834023D01*
X135631470Y-127848938D01*
X135649610Y-127864724D01*
X135666963Y-127881348D01*
X135683500Y-127898778D01*
X135699191Y-127916983D01*
X135714003Y-127935928D01*
X135727909Y-127955583D01*
X135740876Y-127975915D01*
X135752875Y-127996892D01*
X135763876Y-128018481D01*
X135773847Y-128040650D01*
X135782759Y-128063367D01*
X135790582Y-128086599D01*
X135797284Y-128110314D01*
X135802835Y-128134480D01*
X135807206Y-128159065D01*
X135810366Y-128184035D01*
X135812284Y-128209360D01*
X135812930Y-128235007D01*
X135812930Y-139234473D01*
X135812274Y-139260430D01*
X135810327Y-139286026D01*
X135807122Y-139311230D01*
X135802691Y-139336013D01*
X135797066Y-139360344D01*
X135790279Y-139384192D01*
X135782364Y-139407527D01*
X135773351Y-139430319D01*
X135763274Y-139452538D01*
X135752165Y-139474152D01*
X135740056Y-139495133D01*
X135726979Y-139515448D01*
X135712966Y-139535068D01*
X135698051Y-139553963D01*
X135682265Y-139572103D01*
X135665640Y-139589456D01*
X135648210Y-139605992D01*
X135630005Y-139621682D01*
X135611059Y-139636495D01*
X135591403Y-139650400D01*
X135571070Y-139663367D01*
X135550093Y-139675366D01*
X135528504Y-139686366D01*
X135506334Y-139696337D01*
X135483617Y-139705249D01*
X135460384Y-139713071D01*
X135436667Y-139719773D01*
X135412500Y-139725324D01*
X135387915Y-139729695D01*
X135362943Y-139732855D01*
X135337617Y-139734772D01*
X135311969Y-139735419D01*
X126312310Y-139735419D01*
X126286352Y-139734762D01*
X126260755Y-139732816D01*
X126235550Y-139729611D01*
X126210766Y-139725180D01*
X126186435Y-139719555D01*
X126162586Y-139712769D01*
X126139250Y-139704854D01*
X126116457Y-139695841D01*
X126094238Y-139685765D01*
X126072623Y-139674656D01*
X126051642Y-139662547D01*
X126031326Y-139649471D01*
X126011705Y-139635459D01*
X125992809Y-139620544D01*
X125974670Y-139604758D01*
X125957316Y-139588134D01*
X125940779Y-139570704D01*
X125925089Y-139552500D01*
X125910276Y-139533554D01*
X125896370Y-139513899D01*
X125883403Y-139493567D01*
X125871404Y-139472590D01*
X125860403Y-139451001D01*
X125850432Y-139428832D01*
X125841520Y-139406116D01*
X125833698Y-139382883D01*
X125826995Y-139359168D01*
X125821444Y-139335001D01*
X125817073Y-139310416D01*
X125813913Y-139285445D01*
X125811995Y-139260120D01*
X125811349Y-139234473D01*
X125811349Y-137195448D01*
X128481965Y-137195448D01*
X129145209Y-138994589D01*
X129572085Y-138994589D01*
X130443474Y-138994589D01*
X131681765Y-138994589D01*
X131956941Y-138994589D01*
X133124675Y-138994589D01*
X133124675Y-138687681D01*
X132352066Y-138687681D01*
X132352066Y-137191923D01*
X131956941Y-137191923D01*
X131956941Y-138994589D01*
X131681765Y-138994589D01*
X131681765Y-138694731D01*
X130831543Y-138694731D01*
X130831543Y-138207907D01*
X131600624Y-138207907D01*
X131600624Y-137911574D01*
X130831543Y-137911574D01*
X130831543Y-137481192D01*
X131653542Y-137481192D01*
X131653542Y-137188391D01*
X130443474Y-137188391D01*
X130443474Y-138994589D01*
X129572085Y-138994589D01*
X130235329Y-137195448D01*
X129854316Y-137195448D01*
X129378051Y-138610068D01*
X128905313Y-137195448D01*
X128481965Y-137195448D01*
X125811349Y-137195448D01*
X125811349Y-128235007D01*
X125812005Y-128209049D01*
G37*
G36*
X139782468Y-128209049D02*
G01*
X139784415Y-128183453D01*
X139787620Y-128158249D01*
X139792052Y-128133466D01*
X139797676Y-128109135D01*
X139804463Y-128085287D01*
X139812378Y-128061952D01*
X139821391Y-128039160D01*
X139831468Y-128016941D01*
X139842577Y-127995327D01*
X139854686Y-127974347D01*
X139867763Y-127954031D01*
X139881775Y-127934411D01*
X139896691Y-127915516D01*
X139912477Y-127897376D01*
X139929102Y-127880023D01*
X139946532Y-127863487D01*
X139964737Y-127847797D01*
X139983683Y-127832984D01*
X140003339Y-127819079D01*
X140023672Y-127806112D01*
X140044649Y-127794113D01*
X140066238Y-127783113D01*
X140088408Y-127773142D01*
X140111126Y-127764230D01*
X140134359Y-127756408D01*
X140158075Y-127749706D01*
X140182242Y-127744155D01*
X140206828Y-127739784D01*
X140231800Y-127736625D01*
X140257126Y-127734707D01*
X140282774Y-127734060D01*
X149282432Y-127734060D01*
X149308390Y-127734717D01*
X149333987Y-127736663D01*
X149359193Y-127739868D01*
X149383976Y-127744300D01*
X149408308Y-127749925D01*
X149432157Y-127756711D01*
X149455493Y-127764626D01*
X149478286Y-127773639D01*
X149500505Y-127783716D01*
X149522120Y-127794825D01*
X149543101Y-127806934D01*
X149563417Y-127820011D01*
X149583038Y-127834023D01*
X149601933Y-127848938D01*
X149620073Y-127864724D01*
X149637427Y-127881348D01*
X149653964Y-127898778D01*
X149669654Y-127916983D01*
X149684467Y-127935928D01*
X149698373Y-127955583D01*
X149711340Y-127975915D01*
X149723339Y-127996892D01*
X149734340Y-128018481D01*
X149744311Y-128040650D01*
X149753223Y-128063367D01*
X149761045Y-128086599D01*
X149767747Y-128110314D01*
X149773299Y-128134480D01*
X149777670Y-128159065D01*
X149780829Y-128184035D01*
X149782748Y-128209360D01*
X149783394Y-128235007D01*
X149783394Y-139234473D01*
X149782738Y-139260430D01*
X149780791Y-139286026D01*
X149777586Y-139311230D01*
X149773154Y-139336013D01*
X149767529Y-139360344D01*
X149760743Y-139384192D01*
X149752827Y-139407527D01*
X149743815Y-139430319D01*
X149733738Y-139452538D01*
X149722628Y-139474152D01*
X149710519Y-139495133D01*
X149697442Y-139515448D01*
X149683430Y-139535068D01*
X149668514Y-139553963D01*
X149652728Y-139572103D01*
X149636104Y-139589456D01*
X149618673Y-139605992D01*
X149600468Y-139621682D01*
X149581522Y-139636495D01*
X149561866Y-139650400D01*
X149541534Y-139663367D01*
X149520556Y-139675366D01*
X149498967Y-139686366D01*
X149476797Y-139696337D01*
X149454079Y-139705249D01*
X149430847Y-139713071D01*
X149407130Y-139719773D01*
X149382963Y-139725324D01*
X149358378Y-139729695D01*
X149333406Y-139732855D01*
X149308080Y-139734772D01*
X149282432Y-139735419D01*
X140282774Y-139735419D01*
X140256816Y-139734762D01*
X140231219Y-139732816D01*
X140206013Y-139729611D01*
X140181230Y-139725180D01*
X140156898Y-139719555D01*
X140133049Y-139712769D01*
X140109713Y-139704854D01*
X140086920Y-139695841D01*
X140064701Y-139685765D01*
X140043086Y-139674656D01*
X140022105Y-139662547D01*
X140001789Y-139649471D01*
X139982168Y-139635459D01*
X139963273Y-139620544D01*
X139945133Y-139604758D01*
X139927779Y-139588134D01*
X139911242Y-139570704D01*
X139895552Y-139552500D01*
X139880739Y-139533554D01*
X139866833Y-139513899D01*
X139853866Y-139493567D01*
X139841867Y-139472590D01*
X139830866Y-139451001D01*
X139820895Y-139428832D01*
X139811983Y-139406116D01*
X139804161Y-139382883D01*
X139797458Y-139359168D01*
X139791907Y-139335001D01*
X139787536Y-139310416D01*
X139784377Y-139285445D01*
X139782458Y-139260120D01*
X139781812Y-139234473D01*
X139781812Y-138130293D01*
X143200342Y-138130293D01*
X143202791Y-138214308D01*
X143210347Y-138297883D01*
X143223318Y-138380332D01*
X143242015Y-138460966D01*
X143253608Y-138500389D01*
X143266748Y-138539100D01*
X143281475Y-138577014D01*
X143297828Y-138614045D01*
X143315844Y-138650107D01*
X143335563Y-138685114D01*
X143357024Y-138718980D01*
X143380265Y-138751620D01*
X143405325Y-138782947D01*
X143432243Y-138812875D01*
X143461057Y-138841319D01*
X143491807Y-138868193D01*
X143524531Y-138893411D01*
X143559268Y-138916886D01*
X143596056Y-138938534D01*
X143634935Y-138958267D01*
X143675942Y-138976001D01*
X143719118Y-138991649D01*
X143764501Y-139005125D01*
X143812129Y-139016344D01*
X143862041Y-139025219D01*
X143914275Y-139031665D01*
X143968872Y-139035595D01*
X144025869Y-139036925D01*
X144056772Y-139036488D01*
X144088538Y-139035085D01*
X144121038Y-139032576D01*
X144154142Y-139028822D01*
X144187722Y-139023682D01*
X144221647Y-139017018D01*
X144255790Y-139008691D01*
X144290021Y-138998559D01*
X144324211Y-138986485D01*
X144358229Y-138972328D01*
X144391949Y-138955948D01*
X144425239Y-138937208D01*
X144457971Y-138915965D01*
X144490016Y-138892083D01*
X144521244Y-138865420D01*
X144551527Y-138835837D01*
X144549762Y-138834081D01*
X144547998Y-138832320D01*
X144561170Y-138818369D01*
X144573580Y-138804310D01*
X144585252Y-138790158D01*
X144596210Y-138775929D01*
X144606479Y-138761638D01*
X144616081Y-138747300D01*
X144633384Y-138718546D01*
X144648309Y-138689793D01*
X144661049Y-138661164D01*
X144671794Y-138632783D01*
X144680735Y-138604775D01*
X144688063Y-138577262D01*
X144693971Y-138550370D01*
X144698649Y-138524222D01*
X144702288Y-138498942D01*
X144707214Y-138451484D01*
X144710281Y-138408987D01*
X144304573Y-138408987D01*
X144303482Y-138431074D01*
X144301548Y-138452362D01*
X144298798Y-138472856D01*
X144295257Y-138492564D01*
X144290952Y-138511491D01*
X144285907Y-138529644D01*
X144280149Y-138547031D01*
X144273704Y-138563656D01*
X144266597Y-138579527D01*
X144258855Y-138594650D01*
X144250503Y-138609031D01*
X144241567Y-138622677D01*
X144232073Y-138635595D01*
X144222047Y-138647790D01*
X144211514Y-138659270D01*
X144200500Y-138670040D01*
X144189032Y-138680108D01*
X144177135Y-138689480D01*
X144164834Y-138698161D01*
X144152157Y-138706159D01*
X144139128Y-138713480D01*
X144125774Y-138720131D01*
X144112119Y-138726118D01*
X144098191Y-138731447D01*
X144084015Y-138736125D01*
X144069617Y-138740158D01*
X144055022Y-138743553D01*
X144040257Y-138746316D01*
X144010318Y-138749973D01*
X143980007Y-138751181D01*
X143945712Y-138749700D01*
X143913560Y-138745371D01*
X143883481Y-138738362D01*
X143855407Y-138728843D01*
X143829268Y-138716983D01*
X143804996Y-138702951D01*
X143782521Y-138686917D01*
X143761773Y-138669049D01*
X143742685Y-138649518D01*
X143725186Y-138628491D01*
X143709208Y-138606140D01*
X143694681Y-138582632D01*
X143681537Y-138558137D01*
X143669706Y-138532824D01*
X143659119Y-138506863D01*
X143649707Y-138480422D01*
X143634132Y-138426780D01*
X143622428Y-138373252D01*
X143614042Y-138321192D01*
X143608420Y-138271953D01*
X143605010Y-138226890D01*
X143603259Y-138187356D01*
X143602522Y-138130293D01*
X144869037Y-138130293D01*
X144871487Y-138214308D01*
X144879042Y-138297883D01*
X144892013Y-138380332D01*
X144910711Y-138460966D01*
X144922303Y-138500389D01*
X144935444Y-138539100D01*
X144950171Y-138577014D01*
X144966523Y-138614045D01*
X144984539Y-138650107D01*
X145004259Y-138685114D01*
X145025719Y-138718980D01*
X145048960Y-138751620D01*
X145074020Y-138782947D01*
X145100938Y-138812875D01*
X145129752Y-138841319D01*
X145160502Y-138868193D01*
X145193226Y-138893411D01*
X145227963Y-138916886D01*
X145264751Y-138938534D01*
X145303630Y-138958267D01*
X145344638Y-138976001D01*
X145387814Y-138991649D01*
X145433196Y-139005125D01*
X145480824Y-139016344D01*
X145530736Y-139025219D01*
X145582971Y-139031665D01*
X145637567Y-139035595D01*
X145694565Y-139036925D01*
X145725467Y-139036488D01*
X145757233Y-139035085D01*
X145789732Y-139032576D01*
X145822837Y-139028822D01*
X145856416Y-139023682D01*
X145890342Y-139017018D01*
X145924485Y-139008691D01*
X145958716Y-138998559D01*
X145992905Y-138986485D01*
X146026924Y-138972328D01*
X146060643Y-138955948D01*
X146093933Y-138937208D01*
X146126665Y-138915965D01*
X146158710Y-138892083D01*
X146189938Y-138865420D01*
X146220220Y-138835837D01*
X146216692Y-138832320D01*
X146229863Y-138818369D01*
X146242273Y-138804310D01*
X146253945Y-138790158D01*
X146264903Y-138775929D01*
X146275172Y-138761638D01*
X146284774Y-138747300D01*
X146302077Y-138718546D01*
X146317002Y-138689793D01*
X146329742Y-138661164D01*
X146340487Y-138632783D01*
X146349428Y-138604775D01*
X146356757Y-138577262D01*
X146362665Y-138550370D01*
X146367343Y-138524222D01*
X146370982Y-138498942D01*
X146375908Y-138451484D01*
X146378975Y-138408987D01*
X145973266Y-138408987D01*
X145972175Y-138431074D01*
X145970242Y-138452362D01*
X145967491Y-138472856D01*
X145963951Y-138492564D01*
X145959645Y-138511491D01*
X145954600Y-138529644D01*
X145948843Y-138547031D01*
X145942397Y-138563656D01*
X145935291Y-138579527D01*
X145927549Y-138594650D01*
X145919197Y-138609031D01*
X145910261Y-138622677D01*
X145900767Y-138635595D01*
X145890740Y-138647790D01*
X145880207Y-138659270D01*
X145869194Y-138670040D01*
X145857725Y-138680108D01*
X145845828Y-138689480D01*
X145833528Y-138698161D01*
X145820851Y-138706159D01*
X145807822Y-138713480D01*
X145794467Y-138720131D01*
X145780813Y-138726118D01*
X145766885Y-138731447D01*
X145752709Y-138736125D01*
X145738310Y-138740158D01*
X145723715Y-138743553D01*
X145708950Y-138746316D01*
X145679011Y-138749973D01*
X145648700Y-138751181D01*
X145614406Y-138749700D01*
X145582253Y-138745371D01*
X145552175Y-138738362D01*
X145524101Y-138728843D01*
X145497962Y-138716983D01*
X145473690Y-138702951D01*
X145451214Y-138686917D01*
X145430467Y-138669049D01*
X145411378Y-138649518D01*
X145393879Y-138628491D01*
X145377901Y-138606140D01*
X145363375Y-138582632D01*
X145350230Y-138558137D01*
X145338399Y-138532824D01*
X145327813Y-138506863D01*
X145318401Y-138480422D01*
X145302826Y-138426780D01*
X145291122Y-138373252D01*
X145282735Y-138321192D01*
X145277113Y-138271953D01*
X145273703Y-138226890D01*
X145271952Y-138187356D01*
X145271215Y-138130293D01*
X145272632Y-138061725D01*
X145276927Y-137995145D01*
X145284168Y-137930891D01*
X145288915Y-137899741D01*
X145294422Y-137869299D01*
X145300700Y-137839605D01*
X145307756Y-137810703D01*
X145315599Y-137782634D01*
X145324237Y-137755440D01*
X145333679Y-137729164D01*
X145343933Y-137703847D01*
X145355007Y-137679531D01*
X145366910Y-137656258D01*
X145379650Y-137634070D01*
X145393236Y-137613010D01*
X145407675Y-137593118D01*
X145422977Y-137574438D01*
X145439150Y-137557011D01*
X145456202Y-137540879D01*
X145474142Y-137526084D01*
X145492977Y-137512668D01*
X145512717Y-137500674D01*
X145533369Y-137490142D01*
X145554943Y-137481115D01*
X145577447Y-137473636D01*
X145600888Y-137467745D01*
X145625276Y-137463486D01*
X145650618Y-137460899D01*
X145676924Y-137460028D01*
X145701023Y-137460759D01*
X145723738Y-137462896D01*
X145745111Y-137466359D01*
X145765183Y-137471066D01*
X145783997Y-137476936D01*
X145801595Y-137483887D01*
X145818018Y-137491838D01*
X145833309Y-137500707D01*
X145847509Y-137510414D01*
X145860662Y-137520876D01*
X145872807Y-137532013D01*
X145883988Y-137543743D01*
X145894247Y-137555984D01*
X145903625Y-137568655D01*
X145912165Y-137581676D01*
X145919908Y-137594963D01*
X145926897Y-137608437D01*
X145933173Y-137622015D01*
X145943756Y-137649160D01*
X145951993Y-137675747D01*
X145958219Y-137701124D01*
X145962771Y-137724641D01*
X145965985Y-137745646D01*
X145969740Y-137777518D01*
X146364866Y-137777518D01*
X146364065Y-137744138D01*
X146361679Y-137711484D01*
X146357738Y-137679576D01*
X146352270Y-137648437D01*
X146345304Y-137618089D01*
X146336867Y-137588553D01*
X146326988Y-137559852D01*
X146315696Y-137532007D01*
X146303019Y-137505041D01*
X146288985Y-137478976D01*
X146273623Y-137453833D01*
X146256962Y-137429634D01*
X146239029Y-137406402D01*
X146219853Y-137384158D01*
X146199463Y-137362924D01*
X146177887Y-137342722D01*
X146155153Y-137323575D01*
X146131290Y-137305504D01*
X146106327Y-137288530D01*
X146080291Y-137272678D01*
X146053211Y-137257967D01*
X146025116Y-137244420D01*
X145996033Y-137232059D01*
X145965992Y-137220906D01*
X145935021Y-137210982D01*
X145903148Y-137202311D01*
X145870402Y-137194913D01*
X145836811Y-137188812D01*
X145802403Y-137184028D01*
X145767207Y-137180583D01*
X145731251Y-137178500D01*
X145694565Y-137177801D01*
X145647810Y-137178912D01*
X145602156Y-137182220D01*
X145557627Y-137187690D01*
X145514249Y-137195289D01*
X145472046Y-137204980D01*
X145431044Y-137216730D01*
X145391269Y-137230502D01*
X145352744Y-137246263D01*
X145315496Y-137263977D01*
X145279550Y-137283610D01*
X145244930Y-137305126D01*
X145211663Y-137328491D01*
X145179773Y-137353669D01*
X145149285Y-137380627D01*
X145120225Y-137409329D01*
X145092617Y-137439740D01*
X145066488Y-137471825D01*
X145041862Y-137505549D01*
X145018764Y-137540878D01*
X144997220Y-137577777D01*
X144977254Y-137616210D01*
X144958893Y-137656144D01*
X144942160Y-137697542D01*
X144927082Y-137740370D01*
X144913684Y-137784594D01*
X144901990Y-137830177D01*
X144892026Y-137877087D01*
X144883817Y-137925286D01*
X144877389Y-137974742D01*
X144872766Y-138025418D01*
X144869037Y-138130293D01*
X143602522Y-138130293D01*
X143603938Y-138061725D01*
X143608234Y-137995145D01*
X143615475Y-137930891D01*
X143620221Y-137899741D01*
X143625729Y-137869299D01*
X143632006Y-137839605D01*
X143639063Y-137810703D01*
X143646906Y-137782634D01*
X143655544Y-137755440D01*
X143664985Y-137729164D01*
X143675239Y-137703847D01*
X143686313Y-137679531D01*
X143698216Y-137656258D01*
X143710956Y-137634070D01*
X143724542Y-137613010D01*
X143738982Y-137593118D01*
X143754284Y-137574438D01*
X143770456Y-137557011D01*
X143787508Y-137540879D01*
X143805448Y-137526084D01*
X143824283Y-137512668D01*
X143844023Y-137500674D01*
X143864676Y-137490142D01*
X143886250Y-137481115D01*
X143908753Y-137473636D01*
X143932194Y-137467745D01*
X143956582Y-137463486D01*
X143981924Y-137460899D01*
X144008230Y-137460028D01*
X144032329Y-137460759D01*
X144055044Y-137462896D01*
X144076417Y-137466359D01*
X144096490Y-137471066D01*
X144115304Y-137476936D01*
X144132901Y-137483887D01*
X144149325Y-137491838D01*
X144164616Y-137500707D01*
X144178816Y-137510414D01*
X144191968Y-137520876D01*
X144204114Y-137532013D01*
X144215295Y-137543743D01*
X144225554Y-137555984D01*
X144234932Y-137568655D01*
X144243471Y-137581676D01*
X144251215Y-137594963D01*
X144258203Y-137608437D01*
X144264480Y-137622015D01*
X144275063Y-137649160D01*
X144283299Y-137675747D01*
X144289526Y-137701124D01*
X144294077Y-137724641D01*
X144297291Y-137745646D01*
X144301046Y-137777518D01*
X144696170Y-137777518D01*
X144695369Y-137744138D01*
X144692984Y-137711484D01*
X144689043Y-137679576D01*
X144683575Y-137648437D01*
X144676608Y-137618089D01*
X144668171Y-137588553D01*
X144658292Y-137559852D01*
X144647000Y-137532007D01*
X144634323Y-137505041D01*
X144620289Y-137478976D01*
X144604928Y-137453833D01*
X144588266Y-137429634D01*
X144570333Y-137406402D01*
X144551158Y-137384158D01*
X144530768Y-137362924D01*
X144509192Y-137342722D01*
X144486458Y-137323575D01*
X144462595Y-137305504D01*
X144437631Y-137288530D01*
X144411595Y-137272678D01*
X144384515Y-137257967D01*
X144356420Y-137244420D01*
X144327338Y-137232059D01*
X144297297Y-137220906D01*
X144266326Y-137210982D01*
X144234453Y-137202311D01*
X144201706Y-137194913D01*
X144168115Y-137188812D01*
X144133707Y-137184028D01*
X144098511Y-137180583D01*
X144062556Y-137178500D01*
X144025869Y-137177801D01*
X143979115Y-137178912D01*
X143933461Y-137182220D01*
X143888932Y-137187690D01*
X143845554Y-137195289D01*
X143803351Y-137204980D01*
X143762350Y-137216730D01*
X143722574Y-137230502D01*
X143684050Y-137246263D01*
X143646802Y-137263977D01*
X143610855Y-137283610D01*
X143576236Y-137305126D01*
X143542968Y-137328491D01*
X143511078Y-137353669D01*
X143480590Y-137380627D01*
X143451530Y-137409329D01*
X143423922Y-137439740D01*
X143397793Y-137471825D01*
X143373167Y-137505549D01*
X143350069Y-137540878D01*
X143328525Y-137577777D01*
X143308559Y-137616210D01*
X143290197Y-137656144D01*
X143273465Y-137697542D01*
X143258387Y-137740370D01*
X143244988Y-137784594D01*
X143233295Y-137830177D01*
X143223331Y-137877087D01*
X143215122Y-137925286D01*
X143208693Y-137974742D01*
X143204070Y-138025418D01*
X143200342Y-138130293D01*
X139781812Y-138130293D01*
X139781812Y-128235007D01*
X139782468Y-128209049D01*
G37*
G36*
X144227518Y-154686032D02*
G01*
X144266483Y-154686611D01*
X144284609Y-154687241D01*
X144301893Y-154688182D01*
X144318381Y-154689494D01*
X144334120Y-154691241D01*
X144349155Y-154693483D01*
X144363535Y-154696284D01*
X144377304Y-154699704D01*
X144390511Y-154703807D01*
X144403200Y-154708653D01*
X144415419Y-154714306D01*
X144427215Y-154720827D01*
X144438633Y-154728277D01*
X144436869Y-154730039D01*
X144435104Y-154731795D01*
X144441988Y-154736147D01*
X144449326Y-154741305D01*
X144456996Y-154747331D01*
X144464872Y-154754288D01*
X144472830Y-154762237D01*
X144480747Y-154771240D01*
X144488499Y-154781359D01*
X144495962Y-154792656D01*
X144503011Y-154805193D01*
X144509522Y-154819033D01*
X144515372Y-154834236D01*
X144520437Y-154850865D01*
X144524592Y-154868983D01*
X144527713Y-154888650D01*
X144529677Y-154909929D01*
X144530359Y-154932883D01*
X144530156Y-154944593D01*
X144529560Y-154955915D01*
X144528592Y-154966855D01*
X144527272Y-154977418D01*
X144525622Y-154987609D01*
X144523662Y-154997433D01*
X144521412Y-155006895D01*
X144518893Y-155016001D01*
X144516127Y-155024756D01*
X144513133Y-155033164D01*
X144509933Y-155041231D01*
X144506546Y-155048963D01*
X144502994Y-155056364D01*
X144499297Y-155063439D01*
X144495477Y-155070194D01*
X144491553Y-155076634D01*
X144487546Y-155082763D01*
X144483477Y-155088588D01*
X144475236Y-155099344D01*
X144466995Y-155108943D01*
X144458919Y-155117425D01*
X144451174Y-155124833D01*
X144443926Y-155131207D01*
X144437338Y-155136589D01*
X144431577Y-155141020D01*
X144425554Y-155145507D01*
X144419398Y-155149715D01*
X144413122Y-155153650D01*
X144406738Y-155157323D01*
X144393695Y-155163920D01*
X144380368Y-155169575D01*
X144366855Y-155174363D01*
X144353254Y-155178354D01*
X144339664Y-155181622D01*
X144326182Y-155184239D01*
X144312907Y-155186277D01*
X144299936Y-155187808D01*
X144287369Y-155188905D01*
X144275303Y-155189641D01*
X144253067Y-155190316D01*
X144234014Y-155190413D01*
X143923561Y-155190413D01*
X143923561Y-154685950D01*
X144184625Y-154685950D01*
X144227518Y-154686032D01*
G37*
G36*
X139782468Y-145216252D02*
G01*
X139784415Y-145190655D01*
X139787620Y-145165451D01*
X139792052Y-145140668D01*
X139797676Y-145116337D01*
X139804463Y-145092489D01*
X139812378Y-145069154D01*
X139821391Y-145046362D01*
X139831468Y-145024143D01*
X139842577Y-145002529D01*
X139854686Y-144981549D01*
X139867763Y-144961233D01*
X139881775Y-144941613D01*
X139896691Y-144922718D01*
X139912477Y-144904579D01*
X139929102Y-144887225D01*
X139946532Y-144870689D01*
X139964737Y-144854999D01*
X139983683Y-144840186D01*
X140003339Y-144826281D01*
X140023672Y-144813314D01*
X140044649Y-144801315D01*
X140066238Y-144790315D01*
X140088408Y-144780344D01*
X140111126Y-144771432D01*
X140134359Y-144763610D01*
X140158075Y-144756908D01*
X140182242Y-144751357D01*
X140206828Y-144746986D01*
X140231800Y-144743827D01*
X140257126Y-144741909D01*
X140282774Y-144741263D01*
X149282432Y-144741263D01*
X149308390Y-144741919D01*
X149333987Y-144743866D01*
X149359193Y-144747071D01*
X149383976Y-144751502D01*
X149408308Y-144757127D01*
X149432157Y-144763913D01*
X149455493Y-144771829D01*
X149478286Y-144780841D01*
X149500505Y-144790918D01*
X149522120Y-144802027D01*
X149543101Y-144814136D01*
X149563417Y-144827213D01*
X149583038Y-144841225D01*
X149601933Y-144856140D01*
X149620073Y-144871926D01*
X149637427Y-144888550D01*
X149653964Y-144905980D01*
X149669654Y-144924185D01*
X149684467Y-144943131D01*
X149698373Y-144962786D01*
X149711340Y-144983117D01*
X149723339Y-145004094D01*
X149734340Y-145025683D01*
X149744311Y-145047852D01*
X149753223Y-145070569D01*
X149761045Y-145093801D01*
X149767747Y-145117516D01*
X149773299Y-145141682D01*
X149777670Y-145166267D01*
X149780829Y-145191238D01*
X149782748Y-145216562D01*
X149783394Y-145242209D01*
X149783394Y-156241682D01*
X149782738Y-156267639D01*
X149780791Y-156293234D01*
X149777586Y-156318438D01*
X149773154Y-156343221D01*
X149767529Y-156367551D01*
X149760743Y-156391398D01*
X149752827Y-156414733D01*
X149743815Y-156437525D01*
X149733738Y-156459743D01*
X149722628Y-156481357D01*
X149710519Y-156502337D01*
X149697442Y-156522652D01*
X149683430Y-156542272D01*
X149668514Y-156561167D01*
X149652728Y-156579306D01*
X149636104Y-156596659D01*
X149618673Y-156613195D01*
X149600468Y-156628885D01*
X149581522Y-156643698D01*
X149561866Y-156657602D01*
X149541534Y-156670570D01*
X149520556Y-156682568D01*
X149498967Y-156693568D01*
X149476797Y-156703539D01*
X149454079Y-156712451D01*
X149430847Y-156720273D01*
X149407130Y-156726975D01*
X149382963Y-156732526D01*
X149358378Y-156736897D01*
X149333406Y-156740057D01*
X149308080Y-156741975D01*
X149282432Y-156742621D01*
X140282774Y-156742621D01*
X140256816Y-156741965D01*
X140231219Y-156740018D01*
X140206013Y-156736813D01*
X140181230Y-156732382D01*
X140156898Y-156726757D01*
X140133049Y-156719971D01*
X140109713Y-156712056D01*
X140086920Y-156703044D01*
X140064701Y-156692967D01*
X140043086Y-156681858D01*
X140022105Y-156669749D01*
X140001789Y-156656673D01*
X139982168Y-156642661D01*
X139963273Y-156627747D01*
X139945133Y-156611961D01*
X139927779Y-156595337D01*
X139911242Y-156577907D01*
X139895552Y-156559703D01*
X139880739Y-156540758D01*
X139866833Y-156521103D01*
X139853866Y-156500771D01*
X139841867Y-156479795D01*
X139830866Y-156458206D01*
X139820895Y-156436038D01*
X139811983Y-156413321D01*
X139804161Y-156390089D01*
X139797458Y-156366374D01*
X139791907Y-156342209D01*
X139787536Y-156317624D01*
X139784377Y-156292653D01*
X139782458Y-156267329D01*
X139781812Y-156241682D01*
X139781812Y-154700064D01*
X141902078Y-154700064D01*
X142438318Y-154700064D01*
X142438318Y-156206396D01*
X142826385Y-156206396D01*
X143542549Y-156206396D01*
X143937673Y-156206396D01*
X143937673Y-155476157D01*
X144276352Y-155476157D01*
X144301474Y-155476356D01*
X144314815Y-155476831D01*
X144328498Y-155477755D01*
X144342387Y-155479279D01*
X144356349Y-155481551D01*
X144370248Y-155484723D01*
X144377133Y-155486693D01*
X144383952Y-155488944D01*
X144390688Y-155491495D01*
X144397324Y-155494364D01*
X144403844Y-155497570D01*
X144410232Y-155501133D01*
X144416469Y-155505070D01*
X144422539Y-155509400D01*
X144428427Y-155514142D01*
X144434114Y-155519315D01*
X144439583Y-155524938D01*
X144444819Y-155531029D01*
X144449805Y-155537607D01*
X144454523Y-155544691D01*
X144458956Y-155552300D01*
X144463089Y-155560451D01*
X144466904Y-155569165D01*
X144470384Y-155578459D01*
X144475370Y-155596055D01*
X144480996Y-155621649D01*
X144493757Y-155692454D01*
X144522422Y-155881851D01*
X144549763Y-156076536D01*
X144569166Y-156206396D01*
X144999569Y-156206396D01*
X145207716Y-156206396D01*
X145595785Y-156206396D01*
X145595785Y-155331518D01*
X145846264Y-155331518D01*
X145846749Y-155368308D01*
X145848324Y-155407062D01*
X145851170Y-155447510D01*
X145855469Y-155489385D01*
X145861401Y-155532417D01*
X145869147Y-155576337D01*
X145878887Y-155620878D01*
X145890803Y-155665771D01*
X145905076Y-155710746D01*
X145921886Y-155755535D01*
X145941414Y-155799869D01*
X145963842Y-155843480D01*
X145989349Y-155886099D01*
X146018118Y-155927457D01*
X146050328Y-155967286D01*
X146067780Y-155986542D01*
X146086160Y-156005316D01*
X146113479Y-156031264D01*
X146142642Y-156056136D01*
X146173841Y-156079852D01*
X146207267Y-156102327D01*
X146243112Y-156123479D01*
X146281567Y-156143226D01*
X146322822Y-156161485D01*
X146367070Y-156178172D01*
X146414501Y-156193207D01*
X146465306Y-156206504D01*
X146519678Y-156217983D01*
X146577806Y-156227561D01*
X146639883Y-156235154D01*
X146706098Y-156240680D01*
X146776645Y-156244056D01*
X146851713Y-156245199D01*
X146917764Y-156244516D01*
X146979759Y-156242547D01*
X147037856Y-156239409D01*
X147092218Y-156235222D01*
X147143003Y-156230105D01*
X147190372Y-156224177D01*
X147234486Y-156217556D01*
X147275503Y-156210362D01*
X147313586Y-156202713D01*
X147348893Y-156194728D01*
X147381585Y-156186526D01*
X147411823Y-156178226D01*
X147465575Y-156161807D01*
X147511430Y-156146422D01*
X147511430Y-155243323D01*
X146774103Y-155243323D01*
X146774103Y-155543181D01*
X147123363Y-155543181D01*
X147123363Y-155924177D01*
X147106295Y-155929743D01*
X147086044Y-155935641D01*
X147061411Y-155941539D01*
X147031196Y-155947107D01*
X146994201Y-155952013D01*
X146949227Y-155955927D01*
X146895076Y-155958518D01*
X146830547Y-155959456D01*
X146791918Y-155958798D01*
X146755345Y-155956837D01*
X146720736Y-155953595D01*
X146687998Y-155949092D01*
X146657038Y-155943349D01*
X146627762Y-155936386D01*
X146600078Y-155928224D01*
X146573893Y-155918884D01*
X146549114Y-155908387D01*
X146525647Y-155896753D01*
X146503399Y-155884003D01*
X146482279Y-155870158D01*
X146462192Y-155855237D01*
X146443045Y-155839263D01*
X146424746Y-155822256D01*
X146407201Y-155804236D01*
X146403673Y-155800726D01*
X146391763Y-155787275D01*
X146380498Y-155773400D01*
X146369859Y-155759134D01*
X146359829Y-155744509D01*
X146341528Y-155714305D01*
X146325453Y-155683042D01*
X146311466Y-155650973D01*
X146299428Y-155618351D01*
X146289198Y-155585430D01*
X146280638Y-155552462D01*
X146273607Y-155519701D01*
X146267966Y-155487399D01*
X146263576Y-155455811D01*
X146260296Y-155425189D01*
X146257989Y-155395786D01*
X146256513Y-155367856D01*
X146255501Y-155317427D01*
X146256559Y-155263774D01*
X146260000Y-155207853D01*
X146266221Y-155150453D01*
X146275620Y-155092367D01*
X146288596Y-155034383D01*
X146296549Y-155005678D01*
X146305546Y-154977294D01*
X146315635Y-154949332D01*
X146326867Y-154921890D01*
X146339292Y-154895066D01*
X146352958Y-154868961D01*
X146367917Y-154843671D01*
X146384218Y-154819297D01*
X146401909Y-154795938D01*
X146421043Y-154773691D01*
X146441666Y-154752656D01*
X146463831Y-154732931D01*
X146487586Y-154714616D01*
X146512981Y-154697810D01*
X146540066Y-154682610D01*
X146568891Y-154669117D01*
X146599505Y-154657428D01*
X146631958Y-154647643D01*
X146666300Y-154639860D01*
X146702581Y-154634179D01*
X146740849Y-154630697D01*
X146781156Y-154629515D01*
X146797703Y-154629782D01*
X146815464Y-154630659D01*
X146834248Y-154632259D01*
X146853864Y-154634696D01*
X146874121Y-154638084D01*
X146894828Y-154642536D01*
X146915793Y-154648167D01*
X146936825Y-154655090D01*
X146957733Y-154663418D01*
X146978327Y-154673265D01*
X146988445Y-154678794D01*
X146998413Y-154684746D01*
X147008207Y-154691134D01*
X147017802Y-154697972D01*
X147027175Y-154705276D01*
X147036302Y-154713060D01*
X147045159Y-154721337D01*
X147053722Y-154730121D01*
X147061967Y-154739428D01*
X147069870Y-154749270D01*
X147077408Y-154759663D01*
X147084556Y-154770621D01*
X147092669Y-154783803D01*
X147099846Y-154796877D01*
X147106145Y-154809816D01*
X147111622Y-154822596D01*
X147116334Y-154835189D01*
X147120338Y-154847571D01*
X147123691Y-154859715D01*
X147126450Y-154871596D01*
X147128671Y-154883187D01*
X147130412Y-154894463D01*
X147131729Y-154905398D01*
X147132679Y-154915966D01*
X147133319Y-154926142D01*
X147133706Y-154935899D01*
X147133947Y-154954054D01*
X147536127Y-154954054D01*
X147534425Y-154915120D01*
X147531110Y-154872754D01*
X147528447Y-154850452D01*
X147524901Y-154827493D01*
X147520311Y-154803946D01*
X147514517Y-154779876D01*
X147507358Y-154755351D01*
X147498675Y-154730439D01*
X147488308Y-154705207D01*
X147476095Y-154679721D01*
X147461878Y-154654049D01*
X147445495Y-154628259D01*
X147426787Y-154602416D01*
X147405594Y-154576590D01*
X147378002Y-154547310D01*
X147348251Y-154520295D01*
X147316495Y-154495491D01*
X147282889Y-154472847D01*
X147247587Y-154452312D01*
X147210746Y-154433834D01*
X147172520Y-154417361D01*
X147133063Y-154402841D01*
X147092532Y-154390223D01*
X147051082Y-154379455D01*
X147008866Y-154370486D01*
X146966040Y-154363263D01*
X146922760Y-154357735D01*
X146879180Y-154353851D01*
X146835455Y-154351558D01*
X146791740Y-154350806D01*
X146740917Y-154351807D01*
X146691008Y-154354804D01*
X146642059Y-154359790D01*
X146594116Y-154366756D01*
X146547224Y-154375694D01*
X146501430Y-154386594D01*
X146456779Y-154399449D01*
X146413317Y-154414250D01*
X146371091Y-154430989D01*
X146330146Y-154449658D01*
X146290527Y-154470247D01*
X146252281Y-154492750D01*
X146215454Y-154517156D01*
X146180091Y-154543459D01*
X146146239Y-154571648D01*
X146113942Y-154601717D01*
X146083248Y-154633657D01*
X146054202Y-154667459D01*
X146026849Y-154703114D01*
X146001236Y-154740615D01*
X145977408Y-154779954D01*
X145955412Y-154821121D01*
X145935293Y-154864108D01*
X145917097Y-154908907D01*
X145900870Y-154955509D01*
X145886658Y-155003907D01*
X145874506Y-155054091D01*
X145864461Y-155106054D01*
X145856569Y-155159786D01*
X145850874Y-155215280D01*
X145847424Y-155272527D01*
X145846264Y-155331518D01*
X145595785Y-155331518D01*
X145595785Y-154396673D01*
X145207716Y-154396673D01*
X145207716Y-156206396D01*
X144999569Y-156206396D01*
X144984795Y-156184020D01*
X144977988Y-156172543D01*
X144974656Y-156166334D01*
X144971346Y-156159660D01*
X144968035Y-156152406D01*
X144964703Y-156144461D01*
X144961331Y-156135708D01*
X144957896Y-156126036D01*
X144954378Y-156115330D01*
X144950757Y-156103477D01*
X144947012Y-156090362D01*
X144943123Y-156075873D01*
X144937803Y-156055371D01*
X144932318Y-156030238D01*
X144926503Y-155999482D01*
X144920191Y-155962111D01*
X144905418Y-155863553D01*
X144886677Y-155726630D01*
X144874756Y-155641897D01*
X144868212Y-155602564D01*
X144860769Y-155565350D01*
X144852044Y-155530327D01*
X144847082Y-155513659D01*
X144841655Y-155497566D01*
X144835717Y-155482058D01*
X144829220Y-155467142D01*
X144822115Y-155452828D01*
X144814356Y-155439125D01*
X144805893Y-155426043D01*
X144796680Y-155413589D01*
X144786668Y-155401774D01*
X144775811Y-155390605D01*
X144764059Y-155380094D01*
X144751365Y-155370247D01*
X144737682Y-155361075D01*
X144722961Y-155352586D01*
X144707155Y-155344789D01*
X144690216Y-155337694D01*
X144672096Y-155331310D01*
X144652747Y-155325645D01*
X144632122Y-155320709D01*
X144610173Y-155316510D01*
X144586852Y-155313058D01*
X144562111Y-155310362D01*
X144603653Y-155298214D01*
X144629698Y-155289517D01*
X144658301Y-155278666D01*
X144688744Y-155265355D01*
X144720308Y-155249279D01*
X144752275Y-155230134D01*
X144783927Y-155207614D01*
X144799411Y-155194994D01*
X144814546Y-155181415D01*
X144829243Y-155166841D01*
X144843412Y-155151233D01*
X144856964Y-155134552D01*
X144869809Y-155116761D01*
X144881856Y-155097821D01*
X144893017Y-155077696D01*
X144903200Y-155056345D01*
X144912318Y-155033731D01*
X144920278Y-155009817D01*
X144926993Y-154984564D01*
X144932372Y-154957933D01*
X144936326Y-154929888D01*
X144938763Y-154900389D01*
X144939596Y-154869398D01*
X144939053Y-154847415D01*
X144937405Y-154825168D01*
X144934619Y-154802725D01*
X144930666Y-154780153D01*
X144925513Y-154757519D01*
X144919131Y-154734890D01*
X144911488Y-154712334D01*
X144902552Y-154689918D01*
X144892294Y-154667708D01*
X144880682Y-154645773D01*
X144867685Y-154624178D01*
X144853272Y-154602992D01*
X144837412Y-154582281D01*
X144820074Y-154562113D01*
X144801227Y-154542554D01*
X144780840Y-154523672D01*
X144753071Y-154501938D01*
X144724063Y-154482916D01*
X144693896Y-154466427D01*
X144662655Y-154452289D01*
X144630422Y-154440321D01*
X144597279Y-154430343D01*
X144563309Y-154422174D01*
X144528595Y-154415632D01*
X144493220Y-154410538D01*
X144457266Y-154406710D01*
X144420815Y-154403966D01*
X144383952Y-154402128D01*
X144309315Y-154400439D01*
X144234016Y-154400198D01*
X143542549Y-154400198D01*
X143542549Y-156206396D01*
X142826385Y-156206396D01*
X142826385Y-154700064D01*
X143366155Y-154700064D01*
X143366155Y-154400198D01*
X141902078Y-154400198D01*
X141902078Y-154700064D01*
X139781812Y-154700064D01*
X139781812Y-145242209D01*
X139782468Y-145216252D01*
G37*
G36*
X130623397Y-155472632D02*
G01*
X130108325Y-155472632D01*
X130376445Y-154703589D01*
X130623397Y-155472632D01*
G37*
G36*
X125812005Y-145216252D02*
G01*
X125813952Y-145190655D01*
X125817157Y-145165451D01*
X125821588Y-145140668D01*
X125827213Y-145116337D01*
X125834000Y-145092489D01*
X125841916Y-145069154D01*
X125850928Y-145046362D01*
X125861005Y-145024143D01*
X125872114Y-145002529D01*
X125884224Y-144981549D01*
X125897300Y-144961233D01*
X125911313Y-144941613D01*
X125926228Y-144922718D01*
X125942014Y-144904579D01*
X125958639Y-144887225D01*
X125976070Y-144870689D01*
X125994274Y-144854999D01*
X126013221Y-144840186D01*
X126032876Y-144826281D01*
X126053209Y-144813314D01*
X126074186Y-144801315D01*
X126095776Y-144790315D01*
X126117945Y-144780344D01*
X126140663Y-144771432D01*
X126163896Y-144763610D01*
X126187612Y-144756908D01*
X126211779Y-144751357D01*
X126236365Y-144746986D01*
X126261337Y-144743827D01*
X126286663Y-144741909D01*
X126312310Y-144741263D01*
X135311969Y-144741263D01*
X135337927Y-144741919D01*
X135363524Y-144743866D01*
X135388730Y-144747071D01*
X135413513Y-144751502D01*
X135437845Y-144757127D01*
X135461694Y-144763913D01*
X135485030Y-144771829D01*
X135507822Y-144780841D01*
X135530041Y-144790918D01*
X135551656Y-144802027D01*
X135572637Y-144814136D01*
X135592953Y-144827213D01*
X135612574Y-144841225D01*
X135631470Y-144856140D01*
X135649610Y-144871926D01*
X135666963Y-144888550D01*
X135683500Y-144905980D01*
X135699191Y-144924185D01*
X135714003Y-144943131D01*
X135727909Y-144962786D01*
X135740876Y-144983117D01*
X135752875Y-145004094D01*
X135763876Y-145025683D01*
X135773847Y-145047852D01*
X135782759Y-145070569D01*
X135790582Y-145093801D01*
X135797284Y-145117516D01*
X135802835Y-145141682D01*
X135807206Y-145166267D01*
X135810366Y-145191238D01*
X135812284Y-145216562D01*
X135812930Y-145242209D01*
X135812930Y-156241682D01*
X135812274Y-156267639D01*
X135810327Y-156293234D01*
X135807122Y-156318438D01*
X135802691Y-156343221D01*
X135797066Y-156367551D01*
X135790279Y-156391398D01*
X135782364Y-156414733D01*
X135773351Y-156437525D01*
X135763274Y-156459743D01*
X135752165Y-156481357D01*
X135740056Y-156502337D01*
X135726979Y-156522652D01*
X135712966Y-156542272D01*
X135698051Y-156561167D01*
X135682265Y-156579306D01*
X135665640Y-156596659D01*
X135648210Y-156613195D01*
X135630005Y-156628885D01*
X135611059Y-156643698D01*
X135591403Y-156657602D01*
X135571070Y-156670570D01*
X135550093Y-156682568D01*
X135528504Y-156693568D01*
X135506334Y-156703539D01*
X135483617Y-156712451D01*
X135460384Y-156720273D01*
X135436667Y-156726975D01*
X135412500Y-156732526D01*
X135387915Y-156736897D01*
X135362943Y-156740057D01*
X135337617Y-156741975D01*
X135311969Y-156742621D01*
X126312310Y-156742621D01*
X126286352Y-156741965D01*
X126260755Y-156740018D01*
X126235550Y-156736813D01*
X126210766Y-156732382D01*
X126186435Y-156726757D01*
X126162586Y-156719971D01*
X126139250Y-156712056D01*
X126116457Y-156703044D01*
X126094238Y-156692967D01*
X126072623Y-156681858D01*
X126051642Y-156669749D01*
X126031326Y-156656673D01*
X126011705Y-156642661D01*
X125992809Y-156627747D01*
X125974670Y-156611961D01*
X125957316Y-156595337D01*
X125940779Y-156577907D01*
X125925089Y-156559703D01*
X125910276Y-156540758D01*
X125896370Y-156521103D01*
X125883403Y-156500771D01*
X125871404Y-156479795D01*
X125860403Y-156458206D01*
X125850432Y-156436038D01*
X125841520Y-156413321D01*
X125833698Y-156390089D01*
X125826995Y-156366374D01*
X125821444Y-156342209D01*
X125817073Y-156317624D01*
X125813913Y-156292653D01*
X125811995Y-156267329D01*
X125811349Y-156241682D01*
X125811349Y-155278601D01*
X127642327Y-155278601D01*
X127642812Y-155315392D01*
X127644387Y-155354147D01*
X127647233Y-155394596D01*
X127651532Y-155436471D01*
X127657464Y-155479504D01*
X127665210Y-155523425D01*
X127674950Y-155567967D01*
X127686866Y-155612859D01*
X127701139Y-155657834D01*
X127717949Y-155702623D01*
X127737477Y-155746957D01*
X127759905Y-155790567D01*
X127785412Y-155833185D01*
X127814180Y-155874542D01*
X127846391Y-155914370D01*
X127863843Y-155933626D01*
X127882223Y-155952399D01*
X127909541Y-155978347D01*
X127938704Y-156003221D01*
X127969903Y-156026937D01*
X128003329Y-156049412D01*
X128039174Y-156070565D01*
X128077629Y-156090312D01*
X128118884Y-156108570D01*
X128163132Y-156125258D01*
X128210563Y-156140292D01*
X128261369Y-156153589D01*
X128315740Y-156165067D01*
X128373868Y-156174644D01*
X128435945Y-156182237D01*
X128502161Y-156187762D01*
X128572708Y-156191138D01*
X128647776Y-156192282D01*
X128713827Y-156191599D01*
X128775821Y-156189629D01*
X128833919Y-156186492D01*
X128888280Y-156182305D01*
X128939065Y-156177188D01*
X128986434Y-156171260D01*
X129030547Y-156164639D01*
X129071565Y-156157445D01*
X129091276Y-156153486D01*
X129501527Y-156153486D01*
X129871956Y-156153486D01*
X130006015Y-155765433D01*
X130722178Y-155765433D01*
X130852710Y-156153486D01*
X131240780Y-156153486D01*
X130717066Y-154647146D01*
X131060856Y-154647146D01*
X131597096Y-154647146D01*
X131597096Y-156153486D01*
X131985164Y-156153486D01*
X132736606Y-156153486D01*
X133974897Y-156153486D01*
X133974897Y-155853628D01*
X133124675Y-155853628D01*
X133124675Y-155366797D01*
X133893757Y-155366797D01*
X133893757Y-155070471D01*
X133124675Y-155070471D01*
X133124675Y-154640082D01*
X133946674Y-154640082D01*
X133946674Y-154347288D01*
X132736606Y-154347288D01*
X132736606Y-156153486D01*
X131985164Y-156153486D01*
X131985164Y-154647146D01*
X132524932Y-154647146D01*
X132524932Y-154347288D01*
X131060856Y-154347288D01*
X131060856Y-154647146D01*
X130717066Y-154647146D01*
X130612814Y-154347288D01*
X130154188Y-154347288D01*
X129501527Y-156153486D01*
X129091276Y-156153486D01*
X129109648Y-156149797D01*
X129144955Y-156141812D01*
X129177648Y-156133611D01*
X129207885Y-156125312D01*
X129261637Y-156108894D01*
X129307493Y-156093512D01*
X129307493Y-155190413D01*
X128570163Y-155190413D01*
X128570163Y-155490271D01*
X128919425Y-155490271D01*
X128919425Y-155871260D01*
X128880066Y-155882727D01*
X128854806Y-155888625D01*
X128824171Y-155894192D01*
X128786922Y-155899098D01*
X128741817Y-155903011D01*
X128687617Y-155905601D01*
X128623081Y-155906538D01*
X128583832Y-155905880D01*
X128546722Y-155903920D01*
X128511658Y-155900678D01*
X128478548Y-155896176D01*
X128447298Y-155890433D01*
X128417816Y-155883471D01*
X128390008Y-155875309D01*
X128363781Y-155865970D01*
X128339043Y-155855473D01*
X128315700Y-155843839D01*
X128293659Y-155831089D01*
X128272827Y-155817243D01*
X128253112Y-155802323D01*
X128234420Y-155786348D01*
X128216659Y-155769339D01*
X128199734Y-155751318D01*
X128199734Y-155747809D01*
X128187825Y-155734358D01*
X128176559Y-155720484D01*
X128165920Y-155706219D01*
X128155891Y-155691594D01*
X128137589Y-155661390D01*
X128121514Y-155630128D01*
X128107528Y-155598059D01*
X128095489Y-155565437D01*
X128085260Y-155532515D01*
X128076699Y-155499547D01*
X128069668Y-155466786D01*
X128064028Y-155434484D01*
X128059638Y-155402895D01*
X128056359Y-155372273D01*
X128054051Y-155342870D01*
X128052576Y-155314939D01*
X128051563Y-155264509D01*
X128052622Y-155210857D01*
X128056062Y-155154935D01*
X128062284Y-155097536D01*
X128071683Y-155039449D01*
X128084658Y-154981466D01*
X128092612Y-154952760D01*
X128101608Y-154924377D01*
X128111697Y-154896415D01*
X128122929Y-154868972D01*
X128135354Y-154842149D01*
X128149021Y-154816043D01*
X128163980Y-154790754D01*
X128180280Y-154766380D01*
X128197972Y-154743020D01*
X128217105Y-154720773D01*
X128237729Y-154699738D01*
X128259894Y-154680014D01*
X128283649Y-154661699D01*
X128309044Y-154644892D01*
X128336129Y-154629693D01*
X128364954Y-154616199D01*
X128395568Y-154604511D01*
X128428021Y-154594725D01*
X128462363Y-154586943D01*
X128498643Y-154581261D01*
X128536912Y-154577780D01*
X128577219Y-154576597D01*
X128593766Y-154576864D01*
X128611526Y-154577741D01*
X128630311Y-154579341D01*
X128649927Y-154581778D01*
X128670184Y-154585166D01*
X128690890Y-154589619D01*
X128711855Y-154595250D01*
X128732888Y-154602172D01*
X128753796Y-154610500D01*
X128774389Y-154620348D01*
X128784507Y-154625877D01*
X128794475Y-154631828D01*
X128804269Y-154638216D01*
X128813864Y-154645055D01*
X128823237Y-154652359D01*
X128832364Y-154660142D01*
X128841221Y-154668419D01*
X128849784Y-154677204D01*
X128858029Y-154686510D01*
X128865932Y-154696353D01*
X128873470Y-154706746D01*
X128880618Y-154717703D01*
X128888731Y-154730886D01*
X128895908Y-154743960D01*
X128902207Y-154756900D01*
X128907684Y-154769680D01*
X128912396Y-154782274D01*
X128916400Y-154794656D01*
X128919753Y-154806801D01*
X128922512Y-154818682D01*
X128924733Y-154830274D01*
X128926474Y-154841551D01*
X128927791Y-154852486D01*
X128928741Y-154863055D01*
X128929381Y-154873231D01*
X128929767Y-154882989D01*
X128930009Y-154901144D01*
X129332188Y-154901144D01*
X129330486Y-154862208D01*
X129327172Y-154819841D01*
X129324510Y-154797538D01*
X129320964Y-154774580D01*
X129316374Y-154751032D01*
X129310580Y-154726962D01*
X129303422Y-154702438D01*
X129294739Y-154677526D01*
X129284371Y-154652293D01*
X129272159Y-154626807D01*
X129257941Y-154601135D01*
X129241559Y-154575343D01*
X129222850Y-154549500D01*
X129201656Y-154523672D01*
X129174065Y-154494393D01*
X129144314Y-154467377D01*
X129112558Y-154442574D01*
X129078951Y-154419931D01*
X129043650Y-154399396D01*
X129006809Y-154380919D01*
X128968582Y-154364446D01*
X128929126Y-154349927D01*
X128888595Y-154337310D01*
X128847144Y-154326543D01*
X128804928Y-154317574D01*
X128762102Y-154310352D01*
X128718822Y-154304825D01*
X128675242Y-154300941D01*
X128631517Y-154298648D01*
X128587802Y-154297896D01*
X128536979Y-154298897D01*
X128487070Y-154301895D01*
X128438121Y-154306880D01*
X128390178Y-154313846D01*
X128343286Y-154322783D01*
X128297492Y-154333683D01*
X128252842Y-154346538D01*
X128209380Y-154361339D01*
X128167154Y-154378078D01*
X128126209Y-154396746D01*
X128086590Y-154417335D01*
X128048344Y-154439837D01*
X128011517Y-154464244D01*
X127976154Y-154490546D01*
X127942302Y-154518735D01*
X127910006Y-154548804D01*
X127879311Y-154580743D01*
X127850265Y-154614544D01*
X127822912Y-154650200D01*
X127797299Y-154687700D01*
X127773471Y-154727038D01*
X127751475Y-154768205D01*
X127731356Y-154811192D01*
X127713160Y-154855990D01*
X127696933Y-154902593D01*
X127682721Y-154950990D01*
X127670569Y-155001174D01*
X127660524Y-155053136D01*
X127652631Y-155106869D01*
X127646937Y-155162362D01*
X127643487Y-155219609D01*
X127642327Y-155278601D01*
X125811349Y-155278601D01*
X125811349Y-145242209D01*
X125812005Y-145216252D01*
G37*
%LPC*%
M02*
