G04 #@! TF.GenerationSoftware,KiCad,Pcbnew,(6.0.10)*
G04 #@! TF.CreationDate,2023-03-02T23:07:59-05:00*
G04 #@! TF.ProjectId,pb,70622e6b-6963-4616-945f-706362585858,rev?*
G04 #@! TF.SameCoordinates,Original*
G04 #@! TF.FileFunction,Profile,NP*
%FSLAX46Y46*%
G04 Gerber Fmt 4.6, Leading zero omitted, Abs format (unit mm)*
G04 Created by KiCad (PCBNEW (6.0.10)) date 2023-03-02 23:07:59*
%MOMM*%
%LPD*%
G01*
G04 APERTURE LIST*
G04 #@! TA.AperFunction,Profile*
%ADD10C,0.200000*%
G04 #@! TD*
G04 APERTURE END LIST*
D10*
X148312250Y-162963800D02*
X146749750Y-162963800D01*
X148312250Y-166163800D02*
G75*
G03*
X148312250Y-162963800I0J1600000D01*
G01*
X146749750Y-166163800D02*
X148312250Y-166163800D01*
X146749750Y-162963800D02*
G75*
G03*
X146749750Y-166163800I0J-1600000D01*
G01*
X148312250Y-43663800D02*
G75*
G03*
X148312250Y-40463800I0J1600000D01*
G01*
X146749750Y-40463800D02*
X148312250Y-40463800D01*
X146749750Y-40463800D02*
G75*
G03*
X146749750Y-43663800I0J-1600000D01*
G01*
X148312250Y-43663800D02*
X146749750Y-43663800D01*
X154981000Y-39063800D02*
X114681000Y-39063800D01*
X154981000Y-167563800D02*
X154981000Y-39063800D01*
X114681000Y-167563800D02*
X154981000Y-167563800D01*
X114681000Y-39063800D02*
X114681000Y-167563800D01*
X121349750Y-162963800D02*
G75*
G03*
X121349750Y-166163800I0J-1600000D01*
G01*
X122912250Y-166163800D02*
X121349750Y-166163800D01*
X122912250Y-166163800D02*
G75*
G03*
X122912250Y-162963800I0J1600000D01*
G01*
X121349750Y-162963800D02*
X122912250Y-162963800D01*
X121349750Y-40463800D02*
G75*
G03*
X121349750Y-43663800I0J-1600000D01*
G01*
X122912250Y-43663800D02*
X121349750Y-43663800D01*
X122912250Y-43663800D02*
G75*
G03*
X122912250Y-40463800I0J1600000D01*
G01*
X121349750Y-40463800D02*
X122912250Y-40463800D01*
X147920075Y-74650600D02*
G75*
G03*
X147920075Y-74650600I-3571875J0D01*
G01*
X128870075Y-89890600D02*
G75*
G03*
X128870075Y-89890600I-3571875J0D01*
G01*
X128870075Y-59359800D02*
G75*
G03*
X128870075Y-59359800I-3571875J0D01*
G01*
X147920075Y-105130600D02*
G75*
G03*
X147920075Y-105130600I-3571875J0D01*
G01*
X129188210Y-108845350D02*
X129188210Y-112845850D01*
X120188990Y-108845350D02*
X129188210Y-108845350D01*
X120188990Y-112845850D02*
X120188990Y-108845350D01*
X129188210Y-112845850D02*
X120188990Y-112845850D01*
X123266200Y-149860000D02*
G75*
G03*
X123266200Y-149860000I-3175000J0D01*
G01*
X142925800Y-149860000D02*
G75*
G03*
X142925800Y-149860000I-3175000J0D01*
G01*
X150495000Y-137160000D02*
G75*
G03*
X150495000Y-137160000I-3175000J0D01*
G01*
X138006000Y-137160000D02*
G75*
G03*
X138006000Y-137160000I-3175000J0D01*
G01*
X138006000Y-124460000D02*
G75*
G03*
X138006000Y-124460000I-3175000J0D01*
G01*
X125349000Y-124460000D02*
G75*
G03*
X125349000Y-124460000I-3175000J0D01*
G01*
X150495000Y-124460000D02*
G75*
G03*
X150495000Y-124460000I-3175000J0D01*
G01*
X125349000Y-137160000D02*
G75*
G03*
X125349000Y-137160000I-3175000J0D01*
G01*
X152730200Y-149860000D02*
G75*
G03*
X152730200Y-149860000I-3175000J0D01*
G01*
X133096000Y-149860000D02*
G75*
G03*
X133096000Y-149860000I-3175000J0D01*
G01*
M02*
