G04 #@! TF.GenerationSoftware,KiCad,Pcbnew,(6.0.10)*
G04 #@! TF.CreationDate,2023-03-02T23:10:16-05:00*
G04 #@! TF.ProjectId,piston_honda,70697374-6f6e-45f6-986f-6e64612e6b69,rev?*
G04 #@! TF.SameCoordinates,Original*
G04 #@! TF.FileFunction,Profile,NP*
%FSLAX46Y46*%
G04 Gerber Fmt 4.6, Leading zero omitted, Abs format (unit mm)*
G04 Created by KiCad (PCBNEW (6.0.10)) date 2023-03-02 23:10:16*
%MOMM*%
%LPD*%
G01*
G04 APERTURE LIST*
G04 #@! TA.AperFunction,Profile*
%ADD10C,0.200000*%
G04 #@! TD*
G04 APERTURE END LIST*
D10*
X149734029Y-96483428D02*
G75*
G03*
X149734029Y-96483428I-3225000J0D01*
G01*
X109970000Y-36870000D02*
X108470000Y-36870000D01*
X171120000Y-116170000D02*
X168120000Y-116170000D01*
X145751524Y-104044121D02*
G75*
G03*
X145751524Y-104044121I-3225000J0D01*
G01*
X115997028Y-98460614D02*
G75*
G03*
X115997028Y-98460614I-3730000J0D01*
G01*
X168609072Y-67202216D02*
G75*
G03*
X168609072Y-67202216I-3730000J0D01*
G01*
X181090000Y-36870000D02*
G75*
G03*
X181090000Y-33670000I0J1600000D01*
G01*
X181920000Y-116170000D02*
X178920000Y-116170000D01*
X141500000Y-132470000D02*
X144700000Y-132470000D01*
X153730000Y-57530000D02*
X153730000Y-47590000D01*
X180980000Y-57530000D02*
X153730000Y-57530000D01*
X108470000Y-156170000D02*
X109970000Y-156170000D01*
X133577611Y-79564947D02*
G75*
G03*
X133577611Y-79564947I-3360000J0D01*
G01*
X125917965Y-67158991D02*
G75*
G03*
X125917965Y-67158991I-3225000J0D01*
G01*
X181090000Y-159370000D02*
X179590000Y-159370000D01*
X134167252Y-142263918D02*
G75*
G03*
X134167252Y-142263918I-3360000J0D01*
G01*
X178920000Y-79270000D02*
X181920000Y-79270000D01*
X168914568Y-142221816D02*
G75*
G03*
X168914568Y-142221816I-3360000J0D01*
G01*
X179590000Y-33670000D02*
X181090000Y-33670000D01*
X168120000Y-79270000D02*
X171120000Y-79270000D01*
X112331255Y-142263918D02*
G75*
G03*
X112331255Y-142263918I-3360000J0D01*
G01*
X153716533Y-103996951D02*
G75*
G03*
X153716533Y-103996951I-3225000J0D01*
G01*
X137726285Y-113484269D02*
G75*
G03*
X137726285Y-113484269I-3730000J0D01*
G01*
X112269245Y-127993580D02*
G75*
G03*
X112269245Y-127993580I-3360000J0D01*
G01*
X141500000Y-147470000D02*
X141500000Y-132470000D01*
X187780000Y-32270000D02*
X101780000Y-32270000D01*
X136874474Y-50543852D02*
G75*
G03*
X136874474Y-50543852I-3730000J0D01*
G01*
X111419063Y-117065784D02*
G75*
G03*
X111419063Y-117065784I-3360000J0D01*
G01*
X108470000Y-156170000D02*
G75*
G03*
X108470000Y-159370000I0J-1600000D01*
G01*
X109970000Y-159370000D02*
G75*
G03*
X109970000Y-156170000I0J1600000D01*
G01*
X187780000Y-160770000D02*
X187780000Y-32270000D01*
X123376468Y-142263918D02*
G75*
G03*
X123376468Y-142263918I-3360000J0D01*
G01*
X168120000Y-116170000D02*
X168120000Y-79270000D01*
X108470000Y-33670000D02*
G75*
G03*
X108470000Y-36870000I0J-1600000D01*
G01*
X155174028Y-126111856D02*
G75*
G03*
X155174028Y-126111856I-3730000J0D01*
G01*
X183754349Y-126111856D02*
G75*
G03*
X183754349Y-126111856I-3730000J0D01*
G01*
X169316225Y-126111856D02*
G75*
G03*
X169316225Y-126111856I-3730000J0D01*
G01*
X153730000Y-47590000D02*
X180980000Y-47590000D01*
X135002325Y-98460614D02*
G75*
G03*
X135002325Y-98460614I-3730000J0D01*
G01*
X157306394Y-142221816D02*
G75*
G03*
X157306394Y-142221816I-3360000J0D01*
G01*
X123483114Y-127993580D02*
G75*
G03*
X123483114Y-127993580I-3360000J0D01*
G01*
X182695995Y-67560483D02*
G75*
G03*
X182695995Y-67560483I-4630000J0D01*
G01*
X144700000Y-132470000D02*
X144700000Y-147470000D01*
X157320000Y-79270000D02*
X160320000Y-79270000D01*
X180370919Y-142221816D02*
G75*
G03*
X180370919Y-142221816I-3360000J0D01*
G01*
X111574009Y-68907351D02*
G75*
G03*
X111574009Y-68907351I-3360000J0D01*
G01*
X179590000Y-156170000D02*
X181090000Y-156170000D01*
X118240355Y-50543852D02*
G75*
G03*
X118240355Y-50543852I-3730000J0D01*
G01*
X134126714Y-127993580D02*
G75*
G03*
X134126714Y-127993580I-3360000J0D01*
G01*
X108470000Y-33670000D02*
X109970000Y-33670000D01*
X109970000Y-36870000D02*
G75*
G03*
X109970000Y-33670000I0J1600000D01*
G01*
X123522933Y-113614646D02*
G75*
G03*
X123522933Y-113614646I-3730000J0D01*
G01*
X179590000Y-33670000D02*
G75*
G03*
X179590000Y-36870000I0J-1600000D01*
G01*
X101780000Y-160770000D02*
X187780000Y-160770000D01*
X146736692Y-79504371D02*
G75*
G03*
X146736692Y-79504371I-3730000J0D01*
G01*
X171120000Y-79270000D02*
X171120000Y-116170000D01*
X157547063Y-66261136D02*
G75*
G03*
X157547063Y-66261136I-3360000J0D01*
G01*
X109970000Y-159370000D02*
X108470000Y-159370000D01*
X181090000Y-36870000D02*
X179590000Y-36870000D01*
X157320000Y-116170000D02*
X157320000Y-79270000D01*
X160320000Y-79270000D02*
X160320000Y-116170000D01*
X101780000Y-32270000D02*
X101780000Y-160770000D01*
X180980000Y-47590000D02*
X180980000Y-57530000D01*
X111599506Y-79564947D02*
G75*
G03*
X111599506Y-79564947I-3360000J0D01*
G01*
X160320000Y-116170000D02*
X157320000Y-116170000D01*
X152212704Y-52515844D02*
G75*
G03*
X152212704Y-52515844I-3220000J0D01*
G01*
X178920000Y-116170000D02*
X178920000Y-79270000D01*
X179590000Y-156170000D02*
G75*
G03*
X179590000Y-159370000I0J-1600000D01*
G01*
X144700000Y-147470000D02*
X141500000Y-147470000D01*
X122601778Y-79564947D02*
G75*
G03*
X122601778Y-79564947I-3360000J0D01*
G01*
X139257942Y-65431296D02*
G75*
G03*
X139257942Y-65431296I-3730000J0D01*
G01*
X148455864Y-67724767D02*
G75*
G03*
X148455864Y-67724767I-3225000J0D01*
G01*
X181920000Y-79270000D02*
X181920000Y-116170000D01*
X181090000Y-159370000D02*
G75*
G03*
X181090000Y-156170000I0J1600000D01*
G01*
M02*
