<?xml version="1.0" encoding="UTF-8"?>
<svg id="art_flat" data-name="art flat" xmlns="http://www.w3.org/2000/svg" width="40.3mm" height="128.5mm" viewBox="0 0 114.24 364.25">
  <g>
    <path d="m23.78,89.81v-5.11h.65v4.55h1.88v.57h-2.53Z"/>
    <path d="m26.91,87.94v-1.68c0-1.02.52-1.67,1.61-1.67s1.61.65,1.61,1.67v1.68c0,1.42-.52,1.98-1.61,1.98s-1.61-.56-1.61-1.98Zm2.55.03v-1.73c0-1.07-.74-1.1-.94-1.1s-.94.04-.94,1.1v1.73c0,1.12.33,1.4.94,1.4s.94-.28.94-1.4Z"/>
    <path d="m30.73,84.7h.69l.96,4.43h.01l1.03-4.43h.84l.93,4.43h.01l1.04-4.43h.68l-1.35,5.11h-.79l-.97-4.43h-.01l-1.03,4.43h-.79l-1.25-5.11Z"/>
  </g>
  <g>
    <path d="m77.23,133.17v-5.11h.65v2.21h1.79v-2.21h.65v5.11h-.65v-2.34h-1.79v2.34h-.65Z"/>
    <path d="m82.26,133.17h-.65v-5.11h.65v5.11Z"/>
    <path d="m85.94,129.42c0-.6-.25-.93-.91-.93-.21,0-.94.04-.94,1.1v1.73c0,1.12.33,1.4.94,1.4.47,0,.78-.13.91-.23v-1.53h-.94v-.57h1.59v2.49c-.42.23-.91.38-1.56.38-1.08,0-1.61-.56-1.61-1.98v-1.68c0-1.02.52-1.67,1.61-1.67s1.63.4,1.59,1.47h-.68Z"/>
    <path d="m87.86,133.17v-5.11h.65v2.21h1.79v-2.21h.65v5.11h-.65v-2.34h-1.79v2.34h-.65Z"/>
  </g>
  <g>
    <path d="m22.15,176.31h-.65v-5.11h.65v5.11Z"/>
    <path d="m26.93,171.2v5.11h-.89l-2.02-4.43h-.01v4.43h-.58v-5.11h.92l1.99,4.38h.01v-4.38h.58Z"/>
    <path d="m28.2,176.31v-5.11h1.51c.69,0,1.42.25,1.42,1.46s-.91,1.4-1.43,1.4h-.86v2.25h-.65Zm.65-2.82h.71c.27,0,.91-.07.91-.87s-.58-.86-.72-.86h-.9v1.73Z"/>
    <path d="m32.03,171.2h.65v3.27c0,1.12.34,1.4.96,1.4s.96-.28.96-1.4v-3.27h.65v3.24c0,1.42-.52,1.98-1.61,1.98s-1.61-.56-1.61-1.98v-3.24Z"/>
    <path d="m39.25,171.2v.57h-1.35v4.55h-.65v-4.55h-1.35v-.57h3.34Z"/>
  </g>
  <g>
    <path d="m79.44,215.82c0-.6-.25-.93-.91-.93-.21,0-.94.04-.94,1.1v1.73c0,1.12.33,1.4.94,1.4.47,0,.78-.13.91-.23v-1.53h-.94v-.57h1.59v2.48c-.42.23-.91.38-1.57.38-1.08,0-1.61-.56-1.61-1.98v-1.68c0-1.02.52-1.67,1.61-1.67s1.63.4,1.59,1.47h-.68Z"/>
    <path d="m82.48,214.46h.83l1.66,5.11h-.73l-.37-1.22h-1.98l-.38,1.22h-.66l1.62-5.11Zm.4.6h-.01l-.8,2.73h1.64l-.82-2.73Z"/>
    <path d="m86.39,219.57h-.65v-5.11h.65v5.11Z"/>
    <path d="m91.16,214.46v5.11h-.89l-2.02-4.43h-.01v4.43h-.58v-5.11h.92l1.99,4.38h.01v-4.38h.58Z"/>
  </g>
  <g>
    <path d="m33,227.86H9.46c-1.57,0-2.83,1.27-2.83,2.83v59.56c0,1.57,1.27,2.83,2.83,2.83h23.54c1.57,0,2.83-1.27,2.83-2.83v-59.56c0-1.57-1.27-2.83-2.83-2.83Zm-20.28,34.79h-2.53v-5.11h.65v4.54h1.88v.57Zm3.81-1.87c0,1.42-.52,1.98-1.61,1.98s-1.61-.56-1.61-1.98v-1.68c0-1.02.52-1.67,1.61-1.67s1.61.65,1.61,1.67v1.68Zm5.46,1.87h-.79l-.97-4.43h-.01l-1.03,4.43h-.79l-1.25-5.11h.69l.96,4.43h.01l1.03-4.43h.84l.93,4.43h.01l1.04-4.43h.68l-1.35,5.11Zm5.11.11c-.64,0-1.61-.04-1.61-2.03v-1.44c0-1.44.64-1.85,1.64-1.85s1.4.52,1.34,1.51h-.67c0-.29-.01-.58-.15-.74s-.44-.22-.57-.22c-.54,0-.75.33-.77.4-.02.06-.15.18-.15,1.06v1.37c0,1.25.41,1.4.91,1.4.2,0,.8-.07.81-1.07h.67c.03,1.61-1.11,1.61-1.44,1.61Zm4.16-.11h-.78l-1.48-5.11h.71l1.17,4.5h.01l1.2-4.5h.67l-1.49,5.11Z"/>
    <path d="m14.92,257.98c-.21,0-.94.04-.94,1.1v1.73c0,1.12.33,1.4.94,1.4s.94-.28.94-1.4v-1.73c0-1.07-.74-1.1-.94-1.1Z"/>
  </g>
  <g>
    <path d="m13.01,212.01h.66l1.33,4.1h-.58l-.29-.98h-1.58l-.31.98h-.53l1.3-4.1Zm.32.48h-.01l-.64,2.19h1.31l-.66-2.19Z"/>
    <path d="m17.42,212.01v.45h-1.08v3.64h-.52v-3.64h-1.08v-.45h2.68Z"/>
    <path d="m20.26,212.01v.45h-1.08v3.64h-.52v-3.64h-1.08v-.45h2.68Z"/>
    <path d="m20.79,216.11v-4.1h2.11v.45h-1.59v1.32h1.48v.45h-1.48v1.42h1.62v.45h-2.15Z"/>
    <path d="m26.47,212.01v4.1h-.72l-1.62-3.55h-.01v3.55h-.47v-4.1h.74l1.6,3.51h.01v-3.51h.47Z"/>
    <path d="m27.39,212.01h.52v2.62c0,.9.27,1.12.77,1.12s.77-.23.77-1.12v-2.62h.52v2.6c0,1.14-.42,1.58-1.29,1.58s-1.29-.45-1.29-1.58v-2.6Z"/>
    <path d="m31.8,212.01h.66l1.33,4.1h-.58l-.29-.98h-1.58l-.31.98h-.53l1.3-4.1Zm.32.48h-.01l-.64,2.19h1.31l-.66-2.19Z"/>
    <path d="m36.22,212.01v.45h-1.08v3.64h-.52v-3.64h-1.08v-.45h2.68Z"/>
    <path d="m37.34,216.11h-.52v-4.1h.52v4.1Z"/>
    <path d="m38.31,214.61v-1.34c0-.82.42-1.34,1.29-1.34s1.29.52,1.29,1.34v1.34c0,1.14-.42,1.58-1.29,1.58s-1.29-.45-1.29-1.58Zm2.04.02v-1.39c0-.86-.59-.88-.75-.88s-.76.03-.76.88v1.39c0,.9.26,1.12.76,1.12s.75-.23.75-1.12Z"/>
    <path d="m44.63,212.01v4.1h-.72l-1.62-3.55h-.01v3.55h-.47v-4.1h.74l1.6,3.51h.01v-3.51h.47Z"/>
  </g>
  <g>
    <path d="m27.23,333.26h-.65v-5.11h.65v5.11Z"/>
    <path d="m32,328.15v5.11h-.89l-2.02-4.43h-.01v4.43h-.58v-5.11h.92l1.99,4.38h.01v-4.38h.58Z"/>
  </g>
  <g>
    <path d="m79.41,331.39v-1.68c0-1.02.52-1.67,1.61-1.67s1.61.65,1.61,1.67v1.68c0,1.42-.52,1.98-1.61,1.98s-1.61-.56-1.61-1.98Zm2.55.03v-1.73c0-1.07-.74-1.1-.94-1.1s-.94.04-.94,1.1v1.73c0,1.12.33,1.4.94,1.4s.94-.28.94-1.4Z"/>
    <path d="m83.74,328.15h.65v3.27c0,1.12.34,1.4.96,1.4s.96-.28.96-1.4v-3.27h.65v3.24c0,1.42-.52,1.98-1.61,1.98s-1.61-.56-1.61-1.98v-3.24Z"/>
    <path d="m90.96,328.15v.57h-1.34v4.55h-.65v-4.55h-1.35v-.57h3.34Z"/>
  </g>
  <path d="m68.89,227.45h-23.54c-1.57,0-2.83,1.27-2.83,2.83v59.56c0,1.57,1.27,2.83,2.83,2.83h23.54c1.57,0,2.83-1.27,2.83-2.83v-59.56c0-1.57-1.27-2.83-2.83-2.83Zm-20.27,35.2h-.65v-2.34h-1.79v2.34h-.65v-5.11h.65v2.21h1.79v-2.21h.65v5.11Zm1.93,0h-.65v-5.11h.65v5.11Zm2.78-.44c.47,0,.78-.13.91-.23v-1.53h-.94v-.57h1.59v2.48c-.42.23-.91.38-1.56.38-1.08,0-1.61-.56-1.61-1.98v-1.68c0-1.02.52-1.67,1.61-1.67s1.63.4,1.59,1.47h-.68c0-.6-.25-.93-.91-.93-.21,0-.94.04-.94,1.1v1.73c0,1.12.33,1.4.94,1.4Zm5.92.44h-.65v-2.34h-1.79v2.34h-.65v-5.11h.65v2.21h1.79v-2.21h.65v5.11Zm4.32.11c-.64,0-1.61-.04-1.61-2.03v-1.44c0-1.44.64-1.85,1.64-1.85s1.4.52,1.34,1.51h-.67c0-.29-.01-.58-.15-.74-.13-.16-.44-.22-.57-.22-.54,0-.75.33-.77.4-.02.06-.15.18-.15,1.06v1.37c0,1.25.41,1.4.91,1.4.2,0,.8-.07.81-1.07h.67c.03,1.61-1.11,1.61-1.44,1.61Zm4.16-.11h-.78l-1.48-5.11h.71l1.17,4.5h.01l1.2-4.5h.67l-1.49,5.11Z"/>
  <g>
    <polygon points="86.56 258.14 85.76 260.87 87.39 260.87 86.57 258.14 86.56 258.14"/>
    <path d="m104.29,227.45h-23.54c-1.57,0-2.83,1.27-2.83,2.83v59.56c0,1.57,1.27,2.83,2.83,2.83h23.54c1.57,0,2.83-1.27,2.83-2.83v-59.56c0-1.57-1.27-2.83-2.83-2.83Zm-22.06,34.76c.47,0,.78-.13.91-.23v-1.53h-.94v-.57h1.59v2.48c-.42.23-.91.38-1.56.38-1.08,0-1.61-.56-1.61-1.98v-1.68c0-1.02.52-1.67,1.61-1.67s1.63.4,1.59,1.47h-.68c0-.6-.25-.93-.91-.93-.21,0-.94.04-.94,1.1v1.73c0,1.12.33,1.4.94,1.4Zm5.7.44l-.37-1.22h-1.98l-.38,1.22h-.66l1.62-5.11h.83l1.66,5.11h-.73Zm2.15,0h-.65v-5.11h.65v5.11Zm4.77,0h-.89l-2.02-4.43h-.01v4.43h-.58v-5.11h.92l1.99,4.38h.01v-4.38h.58v5.11Zm4.32.11c-.64,0-1.61-.04-1.61-2.03v-1.44c0-1.44.64-1.85,1.64-1.85s1.4.52,1.34,1.51h-.67c0-.29-.01-.58-.15-.74s-.44-.22-.57-.22c-.54,0-.75.33-.77.4-.02.06-.15.18-.15,1.06v1.37c0,1.25.41,1.4.91,1.4.2,0,.8-.07.81-1.07h.67c.03,1.61-1.11,1.61-1.44,1.61Zm4.16-.11h-.78l-1.48-5.11h.71l1.17,4.5h.01l1.2-4.5h.67l-1.49,5.11Z"/>
  </g>
  <g>
    <path d="m58.44,58.05v-.57h-4.12c-.05-4.2-1.17-8.15-3.11-11.58l3.58-2.06-.28-.49-3.58,2.06c-2.07-3.48-4.99-6.4-8.48-8.48l2.06-3.58-.49-.28-2.06,3.58c-3.43-1.94-7.38-3.06-11.58-3.11v-4.12h-.57v4.12c-4.2.05-8.15,1.17-11.58,3.11l-2.06-3.58-.49.28,2.06,3.58c-3.48,2.07-6.4,4.99-8.48,8.48l-3.58-2.06-.28.49,3.58,2.06c-1.94,3.43-3.06,7.38-3.11,11.58H1.75v.57h4.13c.05,4.12,1.14,8.09,3.11,11.58l-3.58,2.06.28.49,3.59-2.07c1.99,3.36,4.79,6.26,8.22,8.35l-2.06,3.57.98.57,2.62-4.55-.49-.28c-7.12-4.11-11.55-11.78-11.55-20,0-12.73,10.36-23.1,23.1-23.1s23.1,10.36,23.1,23.1c0,8.22-4.42,15.89-11.55,20l-.49.28,2.62,4.55.98-.57-2.06-3.57c3.43-2.09,6.22-4.98,8.22-8.35l3.59,2.07.28-.49-3.58-2.06c1.96-3.49,3.06-7.46,3.11-11.58h4.13Z"/>
    <circle cx="27.46" cy="32.67" r=".54"/>
    <circle cx="24.86" cy="33.08" r=".54"/>
    <circle cx="22.31" cy="33.76" r=".54"/>
    <circle cx="19.85" cy="34.71" r=".54"/>
    <circle cx="15.29" cy="37.34" r=".54"/>
    <circle cx="13.24" cy="39" r=".54"/>
    <circle cx="11.37" cy="40.87" r=".54"/>
    <circle cx="9.71" cy="42.92" r=".54"/>
    <circle cx="7.08" cy="47.48" r=".54"/>
    <circle cx="6.14" cy="49.94" r=".54"/>
    <circle cx="5.45" cy="52.49" r=".54"/>
    <circle cx="5.04" cy="55.09" r=".54"/>
    <circle cx="5.04" cy="60.36" r=".54"/>
    <circle cx="5.45" cy="62.96" r=".54"/>
    <circle cx="6.14" cy="65.51" r=".54"/>
    <circle cx="7.08" cy="67.97" r=".54"/>
    <circle cx="9.71" cy="72.53" r=".54"/>
    <circle cx="11.37" cy="74.58" r=".54"/>
    <circle cx="13.24" cy="76.45" r=".54"/>
    <circle cx="15.29" cy="78.11" r=".54"/>
    <circle cx="44.9" cy="78.11" r=".54"/>
    <circle cx="46.95" cy="76.45" r=".54"/>
    <circle cx="48.82" cy="74.58" r=".54"/>
    <circle cx="50.48" cy="72.53" r=".54"/>
    <circle cx="53.11" cy="67.97" r=".54"/>
    <circle cx="54.06" cy="65.51" r=".54"/>
    <circle cx="54.74" cy="62.96" r=".54"/>
    <circle cx="55.15" cy="60.36" r=".54"/>
    <circle cx="55.15" cy="55.09" r=".54"/>
    <circle cx="54.74" cy="52.49" r=".54"/>
    <circle cx="54.06" cy="49.94" r=".54"/>
    <circle cx="53.11" cy="47.48" r=".54"/>
    <circle cx="50.48" cy="42.92" r=".54"/>
    <circle cx="48.82" cy="40.87" r=".54"/>
    <circle cx="46.95" cy="39" r=".54"/>
    <circle cx="44.9" cy="37.34" r=".54"/>
    <circle cx="40.34" cy="34.71" r=".54"/>
    <circle cx="37.88" cy="33.76" r=".54"/>
    <circle cx="35.33" cy="33.08" r=".54"/>
    <circle cx="32.73" cy="32.67" r=".54"/>
  </g>
  <g>
    <path d="m112.44,101.4v-.57h-4.12c-.05-4.2-1.17-8.15-3.11-11.58l3.58-2.06-.28-.49-3.58,2.06c-2.07-3.48-4.99-6.4-8.48-8.48l2.06-3.58-.49-.28-2.06,3.58c-3.43-1.94-7.38-3.06-11.58-3.11v-4.12h-.57v4.12c-4.2.05-8.15,1.17-11.58,3.11l-2.06-3.58-.49.28,2.06,3.58c-3.48,2.07-6.4,4.99-8.48,8.48l-3.58-2.06-.28.49,3.58,2.06c-1.94,3.43-3.06,7.38-3.11,11.58h-4.12v.57h4.13c.05,4.12,1.14,8.09,3.11,11.58l-3.58,2.06.28.49,3.59-2.07c1.99,3.36,4.79,6.26,8.22,8.35l-2.06,3.57.98.57,2.62-4.55-.49-.28c-7.12-4.11-11.55-11.78-11.55-20,0-12.73,10.36-23.1,23.09-23.1s23.1,10.36,23.1,23.1c0,8.22-4.42,15.89-11.55,20l-.49.28,2.62,4.55.98-.57-2.06-3.57c3.43-2.09,6.22-4.98,8.22-8.34l3.59,2.07.28-.49-3.58-2.06c1.96-3.49,3.06-7.46,3.11-11.58h4.13Z"/>
    <circle cx="81.46" cy="76.02" r=".54"/>
    <circle cx="78.86" cy="76.43" r=".54"/>
    <circle cx="76.31" cy="77.11" r=".54"/>
    <circle cx="73.85" cy="78.06" r=".54"/>
    <circle cx="69.29" cy="80.69" r=".54"/>
    <circle cx="67.24" cy="82.35" r=".54"/>
    <circle cx="65.37" cy="84.21" r=".54"/>
    <circle cx="63.71" cy="86.26" r=".54"/>
    <circle cx="61.08" cy="90.83" r=".54"/>
    <circle cx="60.14" cy="93.29" r=".54"/>
    <circle cx="59.45" cy="95.83" r=".54"/>
    <circle cx="59.04" cy="98.44" r=".54"/>
    <circle cx="59.04" cy="103.71" r=".54"/>
    <circle cx="59.45" cy="106.31" r=".54"/>
    <circle cx="60.14" cy="108.86" r=".54"/>
    <circle cx="61.08" cy="111.32" r=".54"/>
    <circle cx="63.71" cy="115.88" r=".54"/>
    <circle cx="65.37" cy="117.93" r=".54"/>
    <circle cx="67.24" cy="119.79" r=".54"/>
    <circle cx="69.29" cy="121.45" r=".54"/>
    <circle cx="98.9" cy="121.45" r=".54"/>
    <circle cx="100.95" cy="119.79" r=".54"/>
    <circle cx="102.82" cy="117.93" r=".54"/>
    <circle cx="104.48" cy="115.88" r=".54"/>
    <circle cx="107.11" cy="111.32" r=".54"/>
    <circle cx="108.06" cy="108.86" r=".54"/>
    <circle cx="108.74" cy="106.31" r=".54"/>
    <circle cx="109.15" cy="103.71" r=".54"/>
    <circle cx="109.15" cy="98.44" r=".54"/>
    <circle cx="108.74" cy="95.83" r=".54"/>
    <circle cx="108.06" cy="93.29" r=".54"/>
    <circle cx="107.11" cy="90.83" r=".54"/>
    <circle cx="104.48" cy="86.26" r=".54"/>
    <circle cx="102.82" cy="84.21" r=".54"/>
    <circle cx="100.95" cy="82.35" r=".54"/>
    <circle cx="98.9" cy="80.69" r=".54"/>
    <circle cx="94.34" cy="78.06" r=".54"/>
    <circle cx="91.88" cy="77.11" r=".54"/>
    <circle cx="89.33" cy="76.43" r=".54"/>
    <circle cx="86.73" cy="76.02" r=".54"/>
  </g>
  <g>
    <path d="m58.44,144.56v-.57h-4.12c-.05-4.2-1.17-8.15-3.11-11.58l3.58-2.06-.28-.49-3.58,2.06c-2.07-3.48-4.99-6.4-8.48-8.48l2.06-3.58-.49-.28-2.06,3.58c-3.43-1.94-7.38-3.06-11.58-3.11v-4.12h-.57v4.12c-4.2.05-8.15,1.17-11.58,3.11l-2.06-3.58-.49.28,2.06,3.58c-3.48,2.07-6.4,4.99-8.48,8.48l-3.58-2.06-.28.49,3.58,2.06c-1.94,3.43-3.06,7.38-3.11,11.58H1.75v.57h4.13c.05,4.12,1.14,8.09,3.11,11.58l-3.58,2.06.28.49,3.59-2.07c1.99,3.36,4.79,6.26,8.22,8.35l-2.06,3.57.98.57,2.62-4.55-.49-.28c-7.12-4.11-11.55-11.78-11.55-20,0-12.73,10.36-23.1,23.1-23.1s23.1,10.36,23.1,23.1c0,8.22-4.42,15.89-11.55,20l-.49.28,2.62,4.55.98-.57-2.06-3.57c3.43-2.09,6.22-4.98,8.22-8.34l3.59,2.07.28-.49-3.58-2.06c1.96-3.49,3.06-7.46,3.11-11.58h4.13Z"/>
    <circle cx="27.46" cy="119.18" r=".54"/>
    <circle cx="24.86" cy="119.59" r=".54"/>
    <circle cx="22.31" cy="120.27" r=".54"/>
    <circle cx="19.85" cy="121.22" r=".54"/>
    <circle cx="15.29" cy="123.85" r=".54"/>
    <circle cx="13.24" cy="125.51" r=".54"/>
    <circle cx="11.37" cy="127.37" r=".54"/>
    <circle cx="9.71" cy="129.42" r=".54"/>
    <circle cx="7.08" cy="133.98" r=".54"/>
    <circle cx="6.14" cy="136.45" r=".54"/>
    <circle cx="5.45" cy="138.99" r=".54"/>
    <circle cx="5.04" cy="141.6" r=".54"/>
    <circle cx="5.04" cy="146.86" r=".54"/>
    <circle cx="5.45" cy="149.47" r=".54"/>
    <circle cx="6.14" cy="152.02" r=".54"/>
    <circle cx="7.08" cy="154.48" r=".54"/>
    <circle cx="9.71" cy="159.04" r=".54"/>
    <circle cx="11.37" cy="161.09" r=".54"/>
    <circle cx="13.24" cy="162.95" r=".54"/>
    <circle cx="15.29" cy="164.61" r=".54"/>
    <circle cx="44.9" cy="164.61" r=".54"/>
    <circle cx="46.95" cy="162.95" r=".54"/>
    <circle cx="48.82" cy="161.09" r=".54"/>
    <circle cx="50.48" cy="159.04" r=".54"/>
    <circle cx="53.11" cy="154.48" r=".54"/>
    <circle cx="54.06" cy="152.02" r=".54"/>
    <circle cx="54.74" cy="149.47" r=".54"/>
    <circle cx="55.15" cy="146.86" r=".54"/>
    <circle cx="55.15" cy="141.6" r=".54"/>
    <circle cx="54.74" cy="138.99" r=".54"/>
    <circle cx="54.06" cy="136.45" r=".54"/>
    <circle cx="53.11" cy="133.98" r=".54"/>
    <circle cx="50.48" cy="129.42" r=".54"/>
    <circle cx="48.82" cy="127.37" r=".54"/>
    <circle cx="46.95" cy="125.51" r=".54"/>
    <circle cx="44.9" cy="123.85" r=".54"/>
    <circle cx="40.34" cy="121.22" r=".54"/>
    <circle cx="37.88" cy="120.27" r=".54"/>
    <circle cx="35.33" cy="119.59" r=".54"/>
    <circle cx="32.73" cy="119.18" r=".54"/>
  </g>
  <g>
    <path d="m112.44,187.79v-.57h-4.12c-.05-4.2-1.17-8.15-3.11-11.58l3.58-2.06-.28-.49-3.58,2.06c-2.07-3.48-4.99-6.4-8.48-8.48l2.06-3.58-.49-.28-2.06,3.58c-3.43-1.94-7.38-3.06-11.58-3.11v-4.12h-.57v4.12c-4.2.05-8.15,1.17-11.58,3.11l-2.06-3.58-.49.28,2.06,3.58c-3.48,2.07-6.4,4.99-8.48,8.48l-3.58-2.06-.28.49,3.58,2.06c-1.94,3.43-3.06,7.38-3.11,11.58h-4.12v.57h4.13c.05,4.12,1.14,8.09,3.11,11.58l-3.58,2.06.28.49,3.59-2.07c1.99,3.36,4.79,6.26,8.22,8.35l-2.06,3.57.98.57,2.62-4.55-.49-.28c-7.12-4.11-11.55-11.78-11.55-20,0-12.73,10.36-23.1,23.09-23.1s23.1,10.36,23.1,23.1c0,8.22-4.42,15.89-11.55,20l-.49.28,2.62,4.55.98-.57-2.06-3.57c3.43-2.09,6.22-4.98,8.22-8.35l3.58,2.07.28-.49-3.58-2.06c1.96-3.49,3.06-7.46,3.11-11.58h4.13Z"/>
    <circle cx="81.46" cy="162.41" r=".54"/>
    <circle cx="78.86" cy="162.82" r=".54"/>
    <circle cx="76.31" cy="163.51" r=".54"/>
    <circle cx="73.85" cy="164.45" r=".54"/>
    <circle cx="69.29" cy="167.09" r=".54"/>
    <circle cx="67.24" cy="168.75" r=".54"/>
    <circle cx="65.37" cy="170.61" r=".54"/>
    <circle cx="63.71" cy="172.66" r=".54"/>
    <circle cx="61.08" cy="177.22" r=".54"/>
    <circle cx="60.14" cy="179.68" r=".54"/>
    <circle cx="59.45" cy="182.23" r=".54"/>
    <circle cx="59.04" cy="184.83" r=".54"/>
    <circle cx="59.04" cy="190.1" r=".54"/>
    <circle cx="59.45" cy="192.71" r=".54"/>
    <circle cx="60.14" cy="195.25" r=".54"/>
    <circle cx="61.08" cy="197.71" r=".54"/>
    <circle cx="63.71" cy="202.28" r=".54"/>
    <circle cx="65.37" cy="204.33" r=".54"/>
    <circle cx="67.24" cy="206.19" r=".54"/>
    <circle cx="69.29" cy="207.85" r=".54"/>
    <circle cx="98.9" cy="207.85" r=".54"/>
    <circle cx="100.95" cy="206.19" r=".54"/>
    <circle cx="102.82" cy="204.33" r=".54"/>
    <circle cx="104.48" cy="202.28" r=".54"/>
    <circle cx="107.11" cy="197.71" r=".54"/>
    <circle cx="108.06" cy="195.25" r=".54"/>
    <circle cx="108.74" cy="192.71" r=".54"/>
    <circle cx="109.15" cy="190.1" r=".54"/>
    <circle cx="109.15" cy="184.83" r=".54"/>
    <circle cx="108.74" cy="182.23" r=".54"/>
    <circle cx="108.06" cy="179.68" r=".54"/>
    <circle cx="107.11" cy="177.22" r=".54"/>
    <circle cx="104.48" cy="172.66" r=".54"/>
    <circle cx="102.82" cy="170.61" r=".54"/>
    <circle cx="100.95" cy="168.75" r=".54"/>
    <circle cx="98.9" cy="167.09" r=".54"/>
    <circle cx="94.34" cy="164.45" r=".54"/>
    <circle cx="91.88" cy="163.51" r=".54"/>
    <circle cx="89.33" cy="162.82" r=".54"/>
    <circle cx="86.73" cy="162.41" r=".54"/>
  </g>
  <g>
    <path d="m30.57,190.35c-.53,0-.54.65-.54,1.71,0,.66-.04,1.5.54,1.5s.54-.83.54-1.5c0-1.06,0-1.71-.54-1.71Z"/>
    <path d="m33.33,188.76h-9.92c-.78,0-1.42.63-1.42,1.42v3.4c0,.78.63,1.42,1.42,1.42h5v2.81h.57v-2.81h4.35c.78,0,1.42-.63,1.42-1.42v-3.4c0-.78-.63-1.42-1.42-1.42Zm-6.86,3.83h-1.25v-.44h1.25v.44Zm2.68,1.33h-2.12v-.45c1.15-1.61,1.49-1.91,1.49-2.59,0-.31-.15-.52-.49-.52-.39,0-.47.32-.46.64h-.53c-.05-.65.28-1.08.95-1.08.71,0,1.05.32,1.05,1.03,0,.88-.44,1.17-1.46,2.51h1.56v.45Zm1.42.08c-1.07,0-1.06-1.01-1.06-2.04s-.02-2.05,1.06-2.05,1.06.99,1.06,2.05,0,2.04-1.06,2.04Z"/>
  </g>
  <g>
    <path d="m49.26,188.76h-9.92c-.78,0-1.42.63-1.42,1.42v3.4c0,.78.63,1.42,1.42,1.42h4.68v7.06c0,.62-.51,1.13-1.13,1.13h-1.76v.57h1.76c.94,0,1.7-.76,1.7-1.7v-7.06h4.68c.78,0,1.42-.63,1.42-1.42v-3.4c0-.78-.63-1.42-1.42-1.42Zm-7.23,3.83h-1.25v-.44h1.25v.44Zm2.73.37h-.47v.96h-.49v-.96h-1.32v-.45l1.11-2.53h.69v2.53h.47v.45Zm1.36,1.04c-1.07,0-1.06-1.01-1.06-2.04s-.02-2.05,1.06-2.05,1.06.99,1.06,2.05,0,2.04-1.06,2.04Z"/>
    <path d="m46.14,190.35c-.53,0-.54.65-.54,1.71,0,.66-.04,1.5.54,1.5s.54-.83.54-1.5c0-1.06,0-1.71-.54-1.71Z"/>
    <polygon points="42.95 192.5 43.82 192.5 43.82 190.45 43.81 190.45 42.95 192.5"/>
  </g>
  <g>
    <path d="m16.78,190.89c0-.34-.19-.62-.63-.62h-.74v1.27h.76c.41,0,.61-.25.61-.65Z"/>
    <path d="m9.03,190.35c-.53,0-.54.65-.54,1.71,0,.66-.04,1.5.54,1.5s.54-.83.54-1.5c0-1.06,0-1.71-.54-1.71Z"/>
    <path d="m12.93,191.37c-.5,0-.57.4-.57,1.16,0,.43,0,1.06.58,1.06.52,0,.52-.65.52-1.23,0-.38-.02-.99-.54-.99Z"/>
    <path d="m15.97,192h-.56v1.46h.74c.56,0,.75-.4.75-.7,0-.65-.4-.77-.94-.77Z"/>
    <path d="m17.41,188.76H7.49c-.78,0-1.42.63-1.42,1.42v3.4c0,.78.63,1.42,1.42,1.42h4.68v7.06c0,.94.76,1.7,1.7,1.7h1.76v-.57h-1.76c-.63,0-1.13-.51-1.13-1.13v-7.06h4.68c.78,0,1.42-.63,1.42-1.42v-3.4c0-.78-.63-1.42-1.42-1.42Zm-8.38,5.24c-1.07,0-1.06-1.01-1.06-2.04s-.02-2.05,1.06-2.05,1.06.99,1.06,2.05,0,2.04-1.06,2.04Zm4.9-.08h-.47v-.34h-.01c-.16.27-.36.4-.66.4-.46,0-.93-.18-.93-1.44,0-.72.02-1.54.95-1.54.27,0,.47.12.63.35h.02v-1.52h.47v4.1Zm2.27,0h-1.32v-4.1h1.33c.57,0,.76.19.91.42.14.22.16.47.16.54,0,.51-.18.85-.7.97v.03c.58.07.84.42.84.98,0,1.05-.77,1.15-1.23,1.15Z"/>
  </g>
  <path d="m40.37,331.31h-7.09v-.57h7.09c1.41,0,2.55-1.14,2.55-2.55v-5.12h.57v5.12c0,1.72-1.4,3.12-3.12,3.12Z"/>
  <path d="m25.26,331.31h-7.09c-1.72,0-3.12-1.4-3.12-3.12v-5.12h.57v5.12c0,1.41,1.14,2.55,2.55,2.55h7.09v.57Z"/>
  <path d="m96.02,331.31h-4.85v-.57h4.85c1.41,0,2.55-1.14,2.55-2.55v-5.12h.57v5.12c0,1.72-1.4,3.12-3.12,3.12Z"/>
  <path d="m78.18,331.31h-4.29c-1.72,0-3.12-1.4-3.12-3.12v-5.12h.57v5.12c0,1.41,1.14,2.55,2.55,2.55h4.29v.57Z"/>
  <g>
    <path d="m52.05,25.22v-6.14h1.82c.82,0,1.71.31,1.71,1.75s-1.09,1.68-1.72,1.68h-1.03v2.7h-.78Zm.78-3.38h.86c.32,0,1.09-.08,1.09-1.05s-.7-1.03-.87-1.03h-1.08v2.07Z"/>
    <path d="m56.67,25.22v-6.14h.78v5.46h2.25v.68h-3.03Z"/>
    <path d="m61.83,19.08h.99l2,6.14h-.88l-.44-1.46h-2.37l-.46,1.46h-.79l1.95-6.14Zm.48.72h-.02l-.96,3.27h1.96l-.99-3.27Z"/>
    <path d="m68.58,20.72c0-.72-.3-1.11-1.09-1.11-.25,0-1.13.04-1.13,1.33v2.07c0,1.34.39,1.68,1.13,1.68.56,0,.94-.15,1.1-.27v-1.84h-1.13v-.68h1.91v2.98c-.5.27-1.09.46-1.88.46-1.3,0-1.93-.67-1.93-2.37v-2.01c0-1.22.63-2.01,1.93-2.01s1.96.48,1.9,1.77h-.82Z"/>
    <path d="m70.82,19.08h.78v3.93c0,1.34.41,1.68,1.15,1.68s1.15-.34,1.15-1.68v-3.93h.78v3.89c0,1.7-.63,2.37-1.93,2.37s-1.93-.67-1.93-2.37v-3.89Z"/>
    <path d="m76.04,25.22v-6.14h3.16v.68h-2.38v1.97h2.21v.68h-2.21v2.12h2.43v.68h-3.21Z"/>
    <path d="m82.25,25.22v-6.14h2c.85,0,1.14.29,1.37.63.21.33.25.7.25.82,0,.76-.26,1.27-1.05,1.45v.04c.88.1,1.26.63,1.26,1.47,0,1.57-1.15,1.73-1.84,1.73h-1.97Zm.78-3.55h1.14c.61,0,.91-.38.91-.98,0-.51-.29-.93-.94-.93h-1.1v1.9Zm0,2.87h1.1c.83,0,1.13-.59,1.13-1.04,0-.98-.6-1.15-1.4-1.15h-.83v2.19Z"/>
    <path d="m87.37,25.22v-6.14h3.16v.68h-2.38v1.97h2.21v.68h-2.21v2.12h2.43v.68h-3.21Z"/>
    <path d="m93.01,19.08h.99l2,6.14h-.88l-.44-1.46h-2.37l-.46,1.46h-.79l1.95-6.14Zm.48.72h-.02l-.96,3.27h1.96l-.99-3.27Z"/>
    <path d="m97.58,22.4v2.82h-.78v-6.14h2.12c1.09,0,1.47.76,1.47,1.53,0,.72-.4,1.27-1.12,1.4v.02c.71.11.96.35,1,1.58,0,.26.09,1.22.21,1.61h-.82c-.22-.42-.17-1.22-.24-2.04-.06-.75-.66-.78-.93-.78h-.92Zm0-.68h1.17c.56,0,.83-.48.83-1.02,0-.44-.22-.94-.82-.94h-1.18v1.96Z"/>
    <path d="m101.55,25.22v-6.14h3.16v.68h-2.38v1.97h2.21v.68h-2.21v2.12h2.43v.68h-3.21Z"/>
    <path d="m106.56,22.4v2.82h-.78v-6.14h2.12c1.09,0,1.47.76,1.47,1.53,0,.72-.4,1.27-1.12,1.4v.02c.71.11.96.35,1,1.58,0,.26.09,1.22.21,1.61h-.82c-.22-.42-.17-1.22-.24-2.04-.06-.75-.66-.78-.93-.78h-.92Zm0-.68h1.17c.56,0,.83-.48.83-1.02,0-.44-.22-.94-.82-.94h-1.18v1.96Z"/>
  </g>
  <g>
    <path d="m101.38,30.61h1.33l.95,4.46h.02l1.07-4.46h1.27l-1.62,6.14h-1.5l-1.51-6.14Z"/>
    <path d="m106.25,34.2c1.43-3.36,1.43-3.37,1.44-3.38h1.57v3.66h.47v.92h-.47v1.35h-1.17v-1.35h-1.84v-1.2Zm1.94.28l.08-2.83h-.02l-1.08,2.83h1.02Z"/>
  </g>
  <path d="m113.24,1v362.25H1V1h112.24m1-1H0v364.25h114.24V0h0Z"/>
</svg>