0
SECTION
2
HEADER
9
$INSUNITS
70
1
9
$ACADVER
1
AC1014
9
$HANDSEED
5
FFFF
0
ENDSEC
0
SECTION
2
TABLES
0
TABLE
2
VPORT
5
8
100
AcDbSymbolTable
0
ENDTAB
0
TABLE
2
LTYPE
5
5
100
AcDbSymbolTable
0
LTYPE
5
14
100
AcDbSymbolTableRecord
100
AcDbLinetypeTableRecord
2
BYBLOCK
70
0
0
LTYPE
5
15
100
AcDbSymbolTableRecord
100
AcDbLinetypeTableRecord
2
BYLAYER
70
0
0
ENDTAB
0
TABLE
2
LAYER
5
2
100
AcDbSymbolTable
70
2
0
LAYER
5
50
100
AcDbSymbolTableRecord
100
AcDbLayerTableRecord
2
0
70
0
6
CONTINUOUS
0
ENDTAB
0
TABLE
2
STYLE
5
3
100
AcDbSymbolTable
70
1
0
STYLE
5
11
100
AcDbSymbolTableRecord
100
AcDbTextStyleTableRecord
2
STANDARD
70
0
0
ENDTAB
0
TABLE
2
VIEW
5
6
100
AcDbSymbolTable
70
0
0
ENDTAB
0
TABLE
2
UCS
5
7
100
AcDbSymbolTable
70
0
0
ENDTAB
0
TABLE
2
APPID
5
9
100
AcDbSymbolTable
70
2
0
APPID
5
12
100
AcDbSymbolTableRecord
100
AcDbRegAppTableRecord
2
ACAD
70
0
0
ENDTAB
0
TABLE
2
DIMSTYLE
5
A
100
AcDbSymbolTable
70
1
0
ENDTAB
0
TABLE
2
BLOCK_RECORD
5
1
100
AcDbSymbolTable
70
1
0
BLOCK_RECORD
5
1F
100
AcDbSymbolTableRecord
100
AcDbBlockTableRecord
2
*MODEL_SPACE
0
BLOCK_RECORD
5
1B
100
AcDbSymbolTableRecord
100
AcDbBlockTableRecord
2
*PAPER_SPACE
0
ENDTAB
0
ENDSEC
0
SECTION
2
BLOCKS
0
BLOCK
5
20
100
AcDbEntity
100
AcDbBlockBegin
2
*MODEL_SPACE
0
ENDBLK
5
21
100
AcDbEntity
100
AcDbBlockEnd
0
BLOCK
5
1C
100
AcDbEntity
100
AcDbBlockBegin
2
*PAPER_SPACE
0
ENDBLK
5
1D
100
AcDbEntity
100
AcDbBlockEnd
0
ENDSEC
0
SECTION
2
ENTITIES
0
CIRCLE
5
100
100
AcDbEntity
8
0
100
AcDbCircle
10
0.59999999999999998
20
-4.3620551181102369
30
0
40
0.12499999999999997
210
0
220
-0
230
1
0
CIRCLE
5
101
100
AcDbEntity
8
0
100
AcDbCircle
10
1.373
20
-4.3620551181102369
30
0
40
0.12499999999999997
210
0
220
-0
230
1
0
CIRCLE
5
102
100
AcDbEntity
8
0
100
AcDbCircle
10
0.29500000000000004
20
-3.8620551181102361
30
0
40
0.12499999999999997
210
0
220
-0
230
1
0
CIRCLE
5
103
100
AcDbEntity
8
0
100
AcDbCircle
10
1.2850000000000001
20
-3.3620551181102365
30
0
40
0.12499999999999997
210
0
220
-0
230
1
0
CIRCLE
5
104
100
AcDbEntity
8
0
100
AcDbCircle
10
0.29500000000000004
20
-3.3620551181102365
30
0
40
0.12499999999999997
210
0
220
-0
230
1
0
CIRCLE
5
105
100
AcDbEntity
8
0
100
AcDbCircle
10
0.79330708661417337
20
-3.3620551181102365
30
0
40
0.12499999999999997
210
0
220
-0
230
1
0
CIRCLE
5
106
100
AcDbEntity
8
0
100
AcDbCircle
10
0.79330708661417337
20
-3.8620551181102369
30
0
40
0.12499999999999997
210
0
220
-0
230
1
0
CIRCLE
5
107
100
AcDbEntity
8
0
100
AcDbCircle
10
1.2850000000000001
20
-3.8620551181102361
30
0
40
0.12499999999999997
210
0
220
-0
230
1
0
CIRCLE
5
108
100
AcDbEntity
8
0
100
AcDbCircle
10
0.98699999999999988
20
-4.3620551181102369
30
0
40
0.12499999999999997
210
0
220
-0
230
1
0
CIRCLE
5
109
100
AcDbEntity
8
0
100
AcDbCircle
10
0.21299999999999997
20
-4.3620551181102369
30
0
40
0.12499999999999997
210
0
220
-0
230
1
0
LWPOLYLINE
5
110
100
AcDbEntity
8
0
100
AcDbPolyline
90
4
70
1
43
0.0
10
0.57114999999999949
20
-2.9048051181102363
10
0.21684999999999946
20
-2.9048051181102363
10
0.21684999999999946
20
-2.7473051181102366
10
0.57114999999999949
20
-2.7473051181102366
0
CIRCLE
5
111
100
AcDbEntity
8
0
100
AcDbCircle
10
1.1679999999999997
20
-2.6010551181102364
30
0
40
0.14062499999999997
210
0
220
-0
230
1
0
CIRCLE
5
112
100
AcDbEntity
8
0
100
AcDbCircle
10
0.41799999999999998
20
-0.79905511811023699
30
0
40
0.14062499999999997
210
0
220
-0
230
1
0
CIRCLE
5
113
100
AcDbEntity
8
0
100
AcDbCircle
10
0.41799999999999982
20
-2.0010551181102367
30
0
40
0.14062499999999997
210
0
220
-0
230
1
0
CIRCLE
5
114
100
AcDbEntity
8
0
100
AcDbCircle
10
1.1679999999999999
20
-1.4010551181102364
30
0
40
0.14062499999999997
210
0
220
-0
230
1
0
LWPOLYLINE
5
115
100
AcDbEntity
8
0
100
AcDbPolyline
90
4
70
1
43
0.0
10
0.26254921259842529
20
-0.055118110236220472
10
0.32406496062992129
20
-0.055118110236220472
42
-0.99999999999999989
10
0.32406496062992129
20
-0.18110236220472442
10
0.26254921259842534
20
-0.18110236220472442
42
-0.99999999999999989
0
LWPOLYLINE
5
116
100
AcDbEntity
8
0
100
AcDbPolyline
90
4
70
1
43
0.0
10
0.26254921259842529
20
-4.877952755905512
10
0.32406496062992129
20
-4.877952755905512
42
-0.99999999999999989
10
0.32406496062992129
20
-5.0039370078740157
10
0.26254921259842529
20
-5.0039370078740157
42
-0.99999999999999989
0
LWPOLYLINE
5
117
100
AcDbEntity
8
0
100
AcDbPolyline
90
4
70
1
43
0.0
10
0
20
0
10
9.705473735494731e-33
20
-5.0590551181102361
10
1.5866141732283465
20
-5.0590551181102361
10
1.5866141732283465
20
0
0
LWPOLYLINE
5
118
100
AcDbEntity
8
0
100
AcDbPolyline
90
4
70
1
43
0.0
10
1.3240649606299213
20
-0.18110236220472439
10
1.2625492125984252
20
-0.18110236220472439
42
-0.99999999999999989
10
1.2625492125984252
20
-0.05511811023622034
10
1.3240649606299213
20
-0.05511811023622034
42
-0.99999999999999989
0
LWPOLYLINE
5
119
100
AcDbEntity
8
0
100
AcDbPolyline
90
4
70
1
43
0.0
10
1.2625492125984252
20
-4.877952755905512
42
0.99999999999999989
10
1.2625492125984252
20
-5.0039370078740157
10
1.3240649606299213
20
-5.0039370078740157
42
0.99999999999999989
10
1.3240649606299213
20
-4.877952755905512
0
ENDSEC
0
SECTION
2
OBJECTS
0
DICTIONARY
5
C
100
AcDbDictionary
3
ACAD_GROUP
350
D
3
ACAD_MLINESTYLE
350
17
0
DICTIONARY
5
D
100
AcDbDictionary
0
DICTIONARY
5
1A
330
C
100
AcDbDictionary
0
DICTIONARY
5
17
100
AcDbDictionary
0
ENDSEC
0
EOF
