0
SECTION
2
HEADER
9
$INSUNITS
70
4
9
$ACADVER
1
AC1014
9
$HANDSEED
5
FFFF
0
ENDSEC
0
SECTION
2
TABLES
0
TABLE
2
VPORT
5
8
100
AcDbSymbolTable
0
ENDTAB
0
TABLE
2
LTYPE
5
5
100
AcDbSymbolTable
0
LTYPE
5
14
100
AcDbSymbolTableRecord
100
AcDbLinetypeTableRecord
2
BYBLOCK
70
0
0
LTYPE
5
15
100
AcDbSymbolTableRecord
100
AcDbLinetypeTableRecord
2
BYLAYER
70
0
0
ENDTAB
0
TABLE
2
LAYER
5
2
100
AcDbSymbolTable
70
2
0
LAYER
5
50
100
AcDbSymbolTableRecord
100
AcDbLayerTableRecord
2
0
70
0
6
CONTINUOUS
0
ENDTAB
0
TABLE
2
STYLE
5
3
100
AcDbSymbolTable
70
1
0
STYLE
5
11
100
AcDbSymbolTableRecord
100
AcDbTextStyleTableRecord
2
STANDARD
70
0
0
ENDTAB
0
TABLE
2
VIEW
5
6
100
AcDbSymbolTable
70
0
0
ENDTAB
0
TABLE
2
UCS
5
7
100
AcDbSymbolTable
70
0
0
ENDTAB
0
TABLE
2
APPID
5
9
100
AcDbSymbolTable
70
2
0
APPID
5
12
100
AcDbSymbolTableRecord
100
AcDbRegAppTableRecord
2
ACAD
70
0
0
ENDTAB
0
TABLE
2
DIMSTYLE
5
A
100
AcDbSymbolTable
70
1
0
ENDTAB
0
TABLE
2
BLOCK_RECORD
5
1
100
AcDbSymbolTable
70
1
0
BLOCK_RECORD
5
1F
100
AcDbSymbolTableRecord
100
AcDbBlockTableRecord
2
*MODEL_SPACE
0
BLOCK_RECORD
5
1B
100
AcDbSymbolTableRecord
100
AcDbBlockTableRecord
2
*PAPER_SPACE
0
ENDTAB
0
ENDSEC
0
SECTION
2
BLOCKS
0
BLOCK
5
20
100
AcDbEntity
100
AcDbBlockBegin
2
*MODEL_SPACE
0
ENDBLK
5
21
100
AcDbEntity
100
AcDbBlockEnd
0
BLOCK
5
1C
100
AcDbEntity
100
AcDbBlockBegin
2
*PAPER_SPACE
0
ENDBLK
5
1D
100
AcDbEntity
100
AcDbBlockEnd
0
ENDSEC
0
SECTION
2
ENTITIES
0
CIRCLE
5
100
100
AcDbEntity
8
0
100
AcDbCircle
10
75.23091860071014
20
-109.95181632942487
30
0
40
3.360000000000003
210
0
220
0
230
1
0
CIRCLE
5
101
100
AcDbEntity
8
0
100
AcDbCircle
10
29.027252143497925
20
-109.99391820251296
30
0
40
3.3599999999999985
210
0
220
0
230
1
0
CIRCLE
5
102
100
AcDbEntity
8
0
100
AcDbCircle
10
18.343113769463933
20
-95.723580318004281
30
0
40
3.3600000000000008
210
0
220
0
230
1
0
CIRCLE
5
103
100
AcDbEntity
8
0
100
AcDbCircle
10
6.2790631370129404
20
-84.795783972241011
30
0
40
3.3599999999999994
210
0
220
0
230
1
0
CIRCLE
5
104
100
AcDbEntity
8
0
100
AcDbCircle
10
29.492324726261756
20
-66.190614107724798
30
0
40
3.7299999999999978
210
0
220
0
230
1
0
CIRCLE
5
105
100
AcDbEntity
8
0
100
AcDbCircle
10
52.407063489027891
20
-33.991136322814015
30
0
40
3.360000000000003
210
0
220
0
230
1
0
CIRCLE
5
106
100
AcDbEntity
8
0
100
AcDbCircle
10
6.4595058841423327
20
-47.294947174237059
30
0
40
3.3599999999999994
210
0
220
0
230
1
0
CIRCLE
5
107
100
AcDbEntity
8
0
100
AcDbCircle
10
43.450863589000448
20
-35.454767117950418
30
0
40
3.2249999999999979
210
0
220
0
230
1
0
CIRCLE
5
108
100
AcDbEntity
8
0
100
AcDbCircle
10
12.730354801414556
20
-18.273852135776369
30
0
40
3.73
210
0
220
0
230
1
0
CIRCLE
5
109
100
AcDbEntity
8
0
100
AcDbCircle
10
33.74794209792617
20
-33.161295620980262
30
0
40
3.7299999999999978
210
0
220
0
230
1
0
CIRCLE
5
110
100
AcDbEntity
8
0
100
AcDbCircle
10
17.461778452557596
20
-47.29494717423708
30
0
40
3.3600000000000008
210
0
220
0
230
1
0
CIRCLE
5
111
100
AcDbEntity
8
0
100
AcDbCircle
10
63.099071919204874
20
-34.932215899003722
30
0
40
3.7300000000000018
210
0
220
0
230
1
0
CIRCLE
5
112
100
AcDbEntity
8
0
100
AcDbCircle
10
44.729028586391088
20
-64.213427779207066
30
0
40
3.2249999999999979
210
0
220
0
230
1
0
CIRCLE
5
113
100
AcDbEntity
8
0
100
AcDbCircle
10
18.012933253647422
20
-81.34464570264258
30
0
40
3.73
210
0
220
0
230
1
0
CIRCLE
5
114
100
AcDbEntity
8
0
100
AcDbCircle
10
7.1292447954679039
20
-95.723580318004309
30
0
40
3.3600000000000008
210
0
220
0
230
1
0
CIRCLE
5
115
100
AcDbEntity
8
0
100
AcDbCircle
10
49.664027547013447
20
-93.841856049663591
30
0
40
3.7300000000000018
210
0
220
0
230
1
0
CIRCLE
5
116
100
AcDbEntity
8
0
100
AcDbCircle
10
63.774568012074802
20
-109.95181632942484
30
0
40
3.360000000000003
210
0
220
0
230
1
0
CIRCLE
5
117
100
AcDbEntity
8
0
100
AcDbCircle
10
78.244348651128874
20
-93.841856049663605
30
0
40
3.7300000000000018
210
0
220
0
230
1
0
CIRCLE
5
118
100
AcDbEntity
8
0
100
AcDbCircle
10
18.23646786076301
20
-109.99391820251303
30
0
40
3.3599999999999985
210
0
220
0
230
1
0
CIRCLE
5
119
100
AcDbEntity
8
0
100
AcDbCircle
10
28.986714045075285
20
-95.723580318004281
30
0
40
3.3599999999999985
210
0
220
0
230
1
0
CIRCLE
5
120
100
AcDbEntity
8
0
100
AcDbCircle
10
40.746524166170694
20
-71.774121450082305
30
0
40
3.2249999999999979
210
0
220
0
230
1
0
CIRCLE
5
121
100
AcDbEntity
8
0
100
AcDbCircle
10
10.487028280627468
20
-66.190614107724798
30
0
40
3.73
210
0
220
0
230
1
0
CIRCLE
5
122
100
AcDbEntity
8
0
100
AcDbCircle
10
41.226691834103647
20
-47.234371238088102
30
0
40
3.7300000000000018
210
0
220
0
230
1
0
CIRCLE
5
123
100
AcDbEntity
8
0
100
AcDbCircle
10
6.4340092420934694
20
-36.637350797810818
30
0
40
3.3599999999999994
210
0
220
0
230
1
0
CIRCLE
5
124
100
AcDbEntity
8
0
100
AcDbCircle
10
47.212704030244581
20
-20.245843937944862
30
0
40
3.2200000000000002
210
0
220
0
230
1
0
CIRCLE
5
125
100
AcDbEntity
8
0
100
AcDbCircle
10
31.364473578058583
20
-18.273852135776366
30
0
40
3.7299999999999978
210
0
220
0
230
1
0
CIRCLE
5
126
100
AcDbEntity
8
0
100
AcDbCircle
10
20.912965174030941
20
-34.888991310056156
30
0
40
3.2250000000000023
210
0
220
0
230
1
0
CIRCLE
5
127
100
AcDbEntity
8
0
100
AcDbCircle
10
28.437611330265348
20
-47.294947174237087
30
0
40
3.3599999999999985
210
0
220
0
230
1
0
CIRCLE
5
128
100
AcDbEntity
8
0
100
AcDbCircle
10
76.285995438760992
20
-35.29048309764076
30
0
40
4.6299999999999919
210
0
220
0
230
1
0
CIRCLE
5
129
100
AcDbEntity
8
0
100
AcDbCircle
10
48.711533006611482
20
-71.726951346966359
30
0
40
3.2249999999999979
210
0
220
0
230
1
0
CIRCLE
5
130
100
AcDbEntity
8
0
100
AcDbCircle
10
32.216284532083407
20
-81.214269368013333
30
0
40
3.7299999999999978
210
0
220
0
230
1
0
CIRCLE
5
131
100
AcDbEntity
8
0
100
AcDbCircle
10
7.1912545450093628
20
-109.99391820251297
30
0
40
3.3600000000000008
210
0
220
0
230
1
0
CIRCLE
5
132
100
AcDbEntity
8
0
100
AcDbCircle
10
63.806224583818249
20
-93.841856049663619
30
0
40
3.7300000000000018
210
0
220
0
230
1
0
CIRCLE
5
133
100
AcDbEntity
8
0
100
AcDbCircle
10
52.166393664737299
20
-109.95181632942487
30
0
40
3.360000000000003
210
0
220
0
230
1
0
LWPOLYLINE
5
134
100
AcDbEntity
8
0
100
AcDbPolyline
90
4
70
1
43
0.0
10
69.339999999999989
20
-46.999999999999957
10
69.339999999999989
20
-83.899999999999991
10
66.339999999999989
20
-83.899999999999991
10
66.339999999999989
20
-46.999999999999957
0
LWPOLYLINE
5
135
100
AcDbEntity
8
0
100
AcDbPolyline
90
4
70
1
43
0.0
10
80.139999999999986
20
-83.900000000000006
10
77.140000000000001
20
-83.900000000000006
10
77.140000000000001
20
-47
10
80.139999999999986
20
-47
0
LWPOLYLINE
5
136
100
AcDbEntity
8
0
100
AcDbPolyline
90
4
70
1
43
0.0
10
58.539999999999985
20
-83.899999999999977
10
55.539999999999985
20
-83.899999999999977
10
55.539999999999985
20
-46.999999999999986
10
58.539999999999985
20
-46.999999999999964
0
LWPOLYLINE
5
137
100
AcDbEntity
8
0
100
AcDbPolyline
90
4
70
1
43
0.0
10
79.200000000000003
20
-25.259999999999998
10
51.950000000000003
20
-25.259999999999998
10
51.950000000000003
20
-15.32
10
79.200000000000003
20
-15.32
0
LWPOLYLINE
5
138
100
AcDbEntity
8
0
100
AcDbPolyline
90
4
70
1
43
0.0
10
39.719999999999999
20
-115.20000000000002
10
39.719999999999999
20
-100.20000000000002
10
42.920000000000002
20
-100.20000000000002
10
42.920000000000002
20
-115.20000000000002
0
LWPOLYLINE
5
139
100
AcDbEntity
8
0
100
AcDbPolyline
90
4
70
1
43
0.0
10
79.310000000000002
20
-4.6000000000000005
10
77.810000000000002
20
-4.6000000000000005
42
-0.99999999999999989
10
77.810000000000002
20
-1.4000000000000001
10
79.30999999999996
20
-1.3999999999999957
42
-0.99999999999999989
0
LWPOLYLINE
5
140
100
AcDbEntity
8
0
100
AcDbPolyline
90
4
70
1
43
0.0
10
79.310000000000002
20
-127.10000000000002
10
77.810000000000002
20
-127.09999999999999
42
-0.99999999999999989
10
77.810000000000002
20
-123.90000000000002
10
79.310000000000002
20
-123.90000000000002
42
-0.99999999999999989
0
LWPOLYLINE
5
141
100
AcDbEntity
8
0
100
AcDbPolyline
90
4
70
1
43
0.0
10
6.6899999999999942
20
-1.4000000000000001
10
8.1899999999999959
20
-1.4000000000000001
42
-0.99999999999999989
10
8.1899999999999924
20
-4.6000000000000005
10
6.6899999999999915
20
-4.6000000000000005
42
-0.99999999999999989
0
LWPOLYLINE
5
142
100
AcDbEntity
8
0
100
AcDbPolyline
90
4
70
1
43
0.0
10
6.6900000000000013
20
-123.90000000000001
10
8.1899999999999835
20
-123.89999999999999
42
-0.99999999999999989
10
8.1900000000000013
20
-127.10000000000002
10
6.6900000000000013
20
-127.10000000000001
42
-0.99999999999999989
0
LWPOLYLINE
5
143
100
AcDbEntity
8
0
100
AcDbPolyline
90
4
70
1
43
0.0
10
0
20
0
10
2.3977827807621086e-31
20
-128.5
10
86
20
-128.5
10
86
20
0
0
ENDSEC
0
SECTION
2
OBJECTS
0
DICTIONARY
5
C
100
AcDbDictionary
3
ACAD_GROUP
350
D
3
ACAD_MLINESTYLE
350
17
0
DICTIONARY
5
D
100
AcDbDictionary
0
DICTIONARY
5
1A
330
C
100
AcDbDictionary
0
DICTIONARY
5
17
100
AcDbDictionary
0
ENDSEC
0
EOF
