<?xml version="1.0" encoding="UTF-8"?>
<svg id="art_flat" data-name="art flat" xmlns="http://www.w3.org/2000/svg" width="86mm" height="128.5mm" viewBox="0 0 243.78 364.25">
  <path d="m98.88,19.14v-10.23h2.57c1.97-.04,4.18.45,4.18,2.89s-2.21,2.93-4.18,2.89h-1.64v4.45h-.92Zm.92-5.3h2.24c1.38,0,2.59-.44,2.59-2.04s-1.22-2.04-2.59-2.04h-2.24v4.08Z"/>
  <path d="m107.64,19.14v-10.28h.92v10.28h-.92Z"/>
  <path d="m113.94,19.35c-1.63,0-3.01-1.19-3.05-2.88h.99c.03,1.57,1.19,2.03,2.57,2.03,1.15,0,2.47-.67,2.47-1.97,0-1.02-.74-1.5-1.6-1.79-1.66-.55-4.18-1.08-4.18-3.29,0-1.79,1.64-2.76,3.26-2.76,1.35,0,3.1.47,3.33,2.44h-.99c-.03-1.26-1.18-1.59-2.23-1.59s-2.38.54-2.38,1.79c0,2.91,5.78,1.59,5.78,5.12,0,2.23-1.91,2.91-3.97,2.91Z"/>
  <path d="m121.94,9.75h-3.3v-.85h7.48v.85h-3.25v9.38h-.92v-9.38Z"/>
  <path d="m131.06,19.35c-2.93,0-4.56-2.14-4.56-5.33s1.63-5.33,4.56-5.33,4.56,2.14,4.56,5.33-1.63,5.33-4.56,5.33Zm0-.85c2.55,0,3.57-2.24,3.57-4.48s-1.02-4.48-3.57-4.48-3.57,2.24-3.57,4.48,1.02,4.48,3.57,4.48Z"/>
  <path d="m137.88,8.9h1.05l5.64,9h.03v-9h.92v10.23h-1.16l-5.53-8.85h-.03v8.85h-.92v-10.23Z"/>
  <path d="m152.15,19.14v-10.23h.92v4.49h5.58v-4.49h.92v10.23h-.92v-4.89h-5.58v4.89h-.92Z"/>
  <path d="m166.21,19.35c-2.93,0-4.56-2.14-4.56-5.33s1.63-5.33,4.56-5.33,4.56,2.14,4.56,5.33-1.63,5.33-4.56,5.33Zm0-.85c2.55,0,3.57-2.24,3.57-4.48s-1.02-4.48-3.57-4.48-3.57,2.24-3.57,4.48,1.02,4.48,3.57,4.48Z"/>
  <path d="m173.02,8.9h1.05l5.64,9h.03v-9h.92v10.23h-1.16l-5.53-8.85h-.03v8.85h-.92v-10.23Z"/>
  <path d="m186.01,8.9c3.36,0,5.27,1.73,5.27,5.12s-1.91,5.12-5.27,5.12h-2.76v-10.23h2.76Zm.23,9.38c2.88,0,4.05-1.69,4.05-4.27,0-3.02-1.77-4.35-4.68-4.27h-1.45v8.53h2.07Z"/>
  <path d="m191.53,19.14l4.05-10.23h1.08l4.08,10.23h-1.01l-1.09-2.76h-5.09l-1.08,2.76h-.95Zm6.79-3.61l-2.21-5.77-2.25,5.77h4.46Z"/>
  <path d="m170.98,32.19v-10.23h3.44l1.6,6.96h.03l1.7-6.96h3.33v10.23h-2.08v-7.9h-.03l-1.97,7.9h-2.04l-1.87-7.9h-.03v7.9h-2.08Z"/>
  <path d="m187.38,21.96h2.35l-2.86,4.59,2.86,5.64h-2.41l-2.45-5.25h-.03v5.25h-2.14v-10.23h2.14v4.38h.03l2.51-4.38Z"/>
  <path d="m190.71,32.19v-10.23h2.14v10.23h-2.14Z"/>
  <path d="m194.65,32.19v-10.23h2.14v10.23h-2.14Z"/>
  <path d="m198.59,32.19v-10.23h2.14v10.23h-2.14Z"/>
  <path d="m179.62,327.95l1.27,2.8,1.29-2.8h1.35l-2.07,3.88v2.24h-1.3v-2.25l-2.07-3.87h1.54Z"/>
  <path d="m170.62,288.94c0-.71.23-1.34,1.2-1.34.7,0,1.03.35,1.03.93v.51h-.67v-.35c0-.33-.11-.53-.41-.53-.37,0-.44.26-.44.88v2.51c0,.6.19.71.42.71.26,0,.43-.18.43-.61v-.35h.67v.57c0,.54-.22.95-1.04.95-.89,0-1.18-.47-1.18-1.27v-2.58Z"/>
  <path d="m172.98,287.64h.71l.74,4.06h.01l.74-4.06h.71l-1.04,5.11h-.82l-1.04-5.11Z"/>
  <path d="m179.09,289.17h.59v1.08h1.49v.6h-1.49v1.08h-.59v-1.08h-1.49v-.6h1.49v-1.08Zm-1.49,2.99h3.58v.59h-3.58v-.59Z"/>
  <path d="m183.97,288.6h-.01c-.15.2-.28.33-.55.53v-.67c.16-.12.54-.6.64-.83h.59v5.11h-.67v-4.15Z"/>
  <path d="m185.73,288.86c0-.92.21-1.26,1.05-1.26s1.06.34,1.06,1.26v2.68c0,.92-.21,1.26-1.06,1.26s-1.05-.34-1.05-1.26v-2.68Zm.67,2.79c0,.32,0,.64.39.64s.39-.32.39-.64v-2.9c0-.32,0-.64-.39-.64s-.39.32-.39.64v2.9Z"/>
  <path d="m188.16,287.64h.71l.74,4.06h.01l.74-4.06h.71l-1.04,5.11h-.82l-1.04-5.11Z"/>
  <path d="m114.56,331.99h.71v.42c0,.34.13.55.41.55.38,0,.47-.25.47-.59,0-.43-.02-.57-.76-1.3-.45-.45-.83-.86-.83-1.56,0-.83.39-1.2,1.16-1.2.38,0,.66.13.83.28.12.11.21.29.21.65v.48h-.67v-.4c0-.29-.12-.46-.4-.46-.29,0-.43.16-.43.56,0,.35.07.56.72,1.24.69.72.82.97.82,1.59,0,.8-.31,1.26-1.15,1.26-.65,0-1.1-.28-1.1-.91v-.61Z"/>
  <path d="m117.26,328.35h1.14c1.15,0,1.24.38,1.24,1.87v1.52c0,1.31-.23,1.72-1.35,1.72h-1.03v-5.11Zm.71,4.52h.34c.52,0,.62-.28.62-1.15v-1.76c0-.76-.08-1.01-.68-1.01h-.28v3.92Z"/>
  <path d="m13.53,287.2h-.01c-.15.2-.28.33-.55.53v-.67c.16-.12.54-.6.64-.83h.6v5.11h-.67v-4.15Z"/>
  <path d="m15.09,286.24h.71l.74,4.06h.01l.74-4.06h.71l-1.04,5.11h-.82l-1.04-5.11Z"/>
  <path d="m19.57,286.19h.6l-1.53,5.2h-.6l1.53-5.2Z"/>
  <path d="m20.39,287.54c0-.71.23-1.34,1.2-1.34.91,0,1.2.47,1.2,1.27v2.58c0,.71-.23,1.34-1.2,1.34-.91,0-1.2-.47-1.2-1.27v-2.58Zm.71,2.63c0,.44.2.67.49.67s.5-.23.5-.67v-2.68c0-.5-.17-.74-.5-.74s-.49.23-.49.74v2.68Z"/>
  <path d="m23.22,287.54c0-.71.23-1.34,1.2-1.34.7,0,1.03.35,1.03.93v.51h-.67v-.35c0-.33-.11-.53-.41-.53-.37,0-.44.26-.44.88v2.51c0,.6.19.71.42.71.26,0,.43-.18.43-.61v-.35h.67v.57c0,.54-.22.95-1.04.95-.89,0-1.18-.47-1.18-1.27v-2.58Z"/>
  <path d="m25.57,286.24h2.41v.6h-.85v4.52h-.71v-4.52h-.85v-.6Z"/>
  <path d="m12.47,225.15h.71v.42c0,.34.13.55.41.55.38,0,.47-.25.47-.59,0-.43-.02-.57-.76-1.3-.45-.45-.83-.86-.83-1.56,0-.83.39-1.2,1.16-1.2.38,0,.66.13.83.28.12.11.21.29.21.65v.48h-.67v-.4c0-.29-.12-.46-.4-.46-.29,0-.42.16-.42.56,0,.35.07.56.72,1.24.69.72.82.97.82,1.59,0,.8-.31,1.26-1.15,1.26-.65,0-1.1-.28-1.1-.91v-.61Z"/>
  <path d="m15.02,221.52h.71l.62,2.15h.01l.71-2.15h.62l-.98,3.02v2.1h-.71v-2.1l-.98-3.02Z"/>
  <path d="m18.06,221.52h.98l.83,4.25h.01v-4.25h.67v5.11h-1.02l-.83-4.36h-.01v4.36h-.62v-5.11Z"/>
  <path d="m21,222.82c0-.71.23-1.34,1.2-1.34.7,0,1.03.35,1.03.93v.51h-.67v-.35c0-.33-.11-.53-.41-.53-.37,0-.44.26-.44.88v2.51c0,.6.19.71.42.71.26,0,.43-.18.43-.61v-.35h.67v.57c0,.54-.22.95-1.04.95-.89,0-1.18-.47-1.18-1.27v-2.58Z"/>
  <path d="m12.98,88.21h.71v.42c0,.34.13.55.41.55.38,0,.47-.25.47-.59,0-.43-.02-.57-.76-1.3-.45-.45-.83-.86-.83-1.56,0-.83.39-1.2,1.16-1.2.38,0,.66.13.83.28.12.11.21.29.21.65v.48h-.67v-.4c0-.29-.12-.46-.4-.46-.29,0-.42.16-.42.56,0,.35.07.56.72,1.24.69.72.82.97.82,1.59,0,.8-.31,1.26-1.15,1.26-.65,0-1.1-.28-1.1-.91v-.61Z"/>
  <path d="m15.53,84.58h.71l.62,2.15h.01l.71-2.15h.62l-.98,3.02v2.1h-.71v-2.1l-.98-3.02Z"/>
  <path d="m18.57,84.58h.98l.83,4.25h.01v-4.25h.67v5.11h-1.02l-.83-4.36h-.01v4.36h-.62v-5.11Z"/>
  <path d="m21.51,85.88c0-.71.23-1.34,1.2-1.34.7,0,1.03.35,1.03.93v.51h-.67v-.35c0-.33-.11-.53-.41-.53-.37,0-.44.26-.44.88v2.51c0,.6.19.71.42.71.26,0,.43-.18.43-.61v-.35h.67v.57c0,.54-.22.95-1.04.95-.89,0-1.18-.47-1.18-1.27v-2.58Z"/>
  <path d="m41.83,287.54c0-.71.23-1.34,1.2-1.34.7,0,1.03.35,1.03.93v.51h-.67v-.35c0-.33-.11-.53-.41-.53-.37,0-.44.26-.44.88v2.51c0,.6.19.71.42.71.26,0,.43-.18.43-.61v-.35h.67v.57c0,.54-.22.95-1.04.95-.89,0-1.18-.47-1.18-1.27v-2.58Z"/>
  <path d="m44.2,286.24h.71l.74,4.06h.01l.74-4.06h.71l-1.04,5.11h-.82l-1.04-5.11Z"/>
  <path d="m50.31,287.77h.59v1.08h1.49v.6h-1.49v1.08h-.59v-1.08h-1.49v-.6h1.49v-1.08Zm-1.49,2.99h3.58v.59h-3.58v-.59Z"/>
  <path d="m55.18,287.2h-.01c-.15.2-.28.33-.55.53v-.67c.16-.12.54-.6.64-.83h.59v5.11h-.67v-4.15Z"/>
  <path d="m56.95,287.46c0-.92.21-1.26,1.05-1.26s1.06.34,1.06,1.26v2.68c0,.92-.21,1.26-1.06,1.26s-1.05-.34-1.05-1.26v-2.68Zm.67,2.79c0,.32,0,.64.39.64s.39-.32.39-.64v-2.9c0-.32,0-.64-.39-.64s-.39.32-.39.64v2.9Z"/>
  <path d="m59.38,286.24h.71l.74,4.06h.01l.74-4.06h.71l-1.04,5.11h-.82l-1.04-5.11Z"/>
  <path d="m138.39,111.72c0-.71.23-1.34,1.2-1.34.7,0,1.03.35,1.03.93v.51h-.67v-.35c0-.33-.11-.53-.41-.53-.37,0-.44.26-.44.88v2.51c0,.6.19.71.42.71.26,0,.43-.18.43-.61v-.35h.67v.57c0,.54-.22.95-1.04.95-.89,0-1.18-.47-1.18-1.27v-2.58Z"/>
  <path d="m140.76,110.42h.71l.74,4.06h.01l.74-4.06h.71l-1.04,5.11h-.82l-1.04-5.11Z"/>
  <path d="m146.87,111.95h.59v1.08h1.49v.6h-1.49v1.08h-.59v-1.08h-1.49v-.6h1.49v-1.08Zm-1.49,2.99h3.58v.59h-3.58v-.59Z"/>
  <path d="m151.74,111.38h-.01c-.15.2-.28.33-.55.53v-.67c.16-.12.54-.6.64-.83h.59v5.11h-.67v-4.15Z"/>
  <path d="m153.51,111.64c0-.92.21-1.26,1.05-1.26s1.06.34,1.06,1.26v2.68c0,.92-.21,1.26-1.06,1.26s-1.05-.34-1.05-1.26v-2.68Zm.67,2.79c0,.32,0,.64.39.64s.39-.32.39-.64v-2.9c0-.32,0-.64-.39-.64s-.39.32-.39.64v2.9Z"/>
  <path d="m155.94,110.42h.71l.74,4.06h.01l.74-4.06h.71l-1.04,5.11h-.82l-1.04-5.11Z"/>
  <path d="m70.6,286.24h1.93v.6h-1.22v1.6h1.15v.59h-1.15v2.32h-.71v-5.11Z"/>
  <path d="m72.83,286.24h1.13l.65,3.89h.01l.65-3.89h1.1v5.11h-.67v-4.6h-.01l-.72,4.6h-.71l-.79-4.6h-.01v4.6h-.62v-5.11Z"/>
  <path d="m79.47,286.19h.59l-1.53,5.2h-.59l1.53-5.2Z"/>
  <path d="m81.63,286.24h1.93v.6h-1.22v1.6h1.15v.59h-1.15v1.73h1.22v.59h-1.93v-5.11Z"/>
  <path d="m84.77,288.69l-1.03-2.46h.75l.67,1.8.67-1.8h.71l-1.02,2.53,1.06,2.58h-.75l-.69-1.88-.75,1.88h-.71l1.1-2.66Z"/>
  <path d="m86.67,286.24h2.41v.6h-.85v4.52h-.71v-4.52h-.85v-.6Z"/>
  <path d="m88.71,290.51h.83v.83h-.83v-.83Z"/>
  <path d="m90.03,286.24h.71v5.11h-.71v-5.11Z"/>
  <path d="m91.24,286.24h.98l.83,4.25h.01v-4.25h.67v5.11h-1.02l-.83-4.36h-.01v4.36h-.62v-5.11Z"/>
  <path d="m11.63,149.53h-.01c-.15.2-.28.33-.55.53v-.67c.16-.12.54-.6.64-.83h.6v5.11h-.67v-4.15Z"/>
  <path d="m13.19,148.57h.71l.74,4.06h.01l.74-4.06h.71l-1.04,5.11h-.82l-1.04-5.11Z"/>
  <path d="m17.67,148.52h.6l-1.53,5.2h-.6l1.53-5.2Z"/>
  <path d="m18.49,149.87c0-.71.23-1.34,1.2-1.34.91,0,1.2.47,1.2,1.27v2.58c0,.71-.23,1.34-1.2,1.34-.91,0-1.2-.47-1.2-1.27v-2.58Zm.71,2.63c0,.44.2.67.49.67s.5-.23.5-.67v-2.68c0-.5-.17-.74-.5-.74s-.49.23-.49.74v2.68Z"/>
  <path d="m21.32,149.87c0-.71.23-1.34,1.2-1.34.7,0,1.03.35,1.03.93v.51h-.67v-.35c0-.33-.11-.53-.41-.53-.37,0-.44.26-.44.88v2.51c0,.6.19.71.42.71.26,0,.43-.18.43-.61v-.35h.67v.57c0,.54-.22.95-1.04.95-.89,0-1.18-.47-1.18-1.27v-2.58Z"/>
  <path d="m23.67,148.57h2.41v.6h-.85v4.52h-.71v-4.52h-.85v-.6Z"/>
  <path d="m39.34,149.87c0-.71.23-1.34,1.2-1.34.7,0,1.03.35,1.03.93v.51h-.67v-.35c0-.33-.11-.53-.41-.53-.37,0-.44.26-.44.88v2.51c0,.6.19.71.42.71.26,0,.43-.18.43-.61v-.35h.67v.57c0,.54-.22.95-1.04.95-.89,0-1.18-.47-1.18-1.27v-2.58Z"/>
  <path d="m41.7,148.57h.71l.74,4.06h.01l.74-4.06h.71l-1.04,5.11h-.82l-1.04-5.11Z"/>
  <path d="m47.81,150.1h.59v1.08h1.49v.6h-1.49v1.08h-.59v-1.08h-1.49v-.6h1.49v-1.08Zm-1.49,2.99h3.58v.59h-3.58v-.59Z"/>
  <path d="m52.69,149.53h-.01c-.15.2-.28.33-.55.53v-.67c.16-.12.54-.6.64-.83h.59v5.11h-.67v-4.15Z"/>
  <path d="m54.45,149.78c0-.92.21-1.26,1.05-1.26s1.06.34,1.06,1.26v2.68c0,.92-.21,1.26-1.06,1.26s-1.05-.34-1.05-1.26v-2.68Zm.67,2.79c0,.32,0,.64.39.64s.39-.32.39-.64v-2.9c0-.32,0-.64-.39-.64s-.39.32-.39.64v2.9Z"/>
  <path d="m56.88,148.57h.71l.74,4.06h.01l.74-4.06h.71l-1.04,5.11h-.82l-1.04-5.11Z"/>
  <path d="m69.05,148.57h1.93v.6h-1.22v1.6h1.15v.59h-1.15v2.32h-.71v-5.11Z"/>
  <path d="m71.28,148.57h1.13l.65,3.89h.01l.65-3.89h1.1v5.11h-.67v-4.6h-.01l-.72,4.6h-.71l-.79-4.6h-.01v4.6h-.62v-5.11Z"/>
  <path d="m77.92,148.52h.59l-1.53,5.2h-.59l1.53-5.2Z"/>
  <path d="m80.08,148.57h1.93v.6h-1.22v1.6h1.15v.59h-1.15v1.73h1.22v.59h-1.93v-5.11Z"/>
  <path d="m83.21,151.02l-1.03-2.46h.75l.67,1.8.67-1.8h.71l-1.02,2.53,1.06,2.58h-.75l-.69-1.88-.75,1.88h-.71l1.1-2.66Z"/>
  <path d="m85.11,148.57h2.41v.6h-.85v4.52h-.71v-4.52h-.85v-.6Z"/>
  <path d="m87.15,152.84h.83v.83h-.83v-.83Z"/>
  <path d="m88.47,148.57h.71v5.11h-.71v-5.11Z"/>
  <path d="m89.68,148.57h.98l.83,4.25h.01v-4.25h.67v5.11h-1.02l-.83-4.36h-.01v4.36h-.62v-5.11Z"/>
  <path d="m210.88,332.95l3.21-4.02-3.02.03v-1h4.45v1.16l-3.2,4,3.27-.05v1.01h-4.71v-1.12Z"/>
  <path d="m146.68,327.92l1.24,2.09,1.33-2.09h1.41l-2.02,2.96,2.14,3.19h-1.61l-1.37-2.31-1.47,2.31h-1.41l2.16-3.18-2.01-2.97h1.62Z"/>
  <path d="m83.25,332.36c0-.77-.65-.77-1.08-.77h-.89v1.56h.92c.37,0,1.05,0,1.05-.79Z"/>
  <path d="m82.04,334.1h-.76v1.7h.89c.6,0,1.28,0,1.28-.82,0-.88-.79-.88-1.42-.88Z"/>
  <polygon points="19.41 334.47 21.17 334.47 20.32 331.85 19.41 334.47"/>
  <path d="m93.76,294.7H8.73c-3.13,0-5.67,2.54-5.67,5.67v34.6c0,3.13,2.54,5.67,5.67,5.67h85.04c3.13,0,5.67-2.54,5.67-5.67v-34.6c0-3.13-2.54-5.67-5.67-5.67Zm-71.82,42.09l-.44-1.33h-2.43l-.46,1.33h-1.26l2.22-6.14h1.56l2.13,6.14h-1.33Zm-1.56-10.11c-8.22,0-14.88-6.66-14.88-14.88s6.66-14.88,14.88-14.88,14.88,6.66,14.88,14.88-6.66,14.88-14.88,14.88Zm30.71,10.11h-1.31v-5.27l-1.67,5.27h-1.09l-1.64-5.27v5.27h-1.23v-6.14h2.15l1.3,4.47,1.4-4.47h2.09v6.14Zm2.4,0h-1.32v-6.16h1.32v6.16Zm4.9,0l-1.37-2.31-1.47,2.31h-1.41l2.16-3.18-2.01-2.97h1.62l1.24,2.09,1.33-2.09h1.41l-2.02,2.96,2.14,3.19h-1.61Zm-6.98-10.11c-8.22,0-14.88-6.66-14.88-14.88s6.66-14.88,14.88-14.88,14.88,6.66,14.88,14.88-6.66,14.88-14.88,14.88Zm32.45,9.86c-.48.25-1.31.25-1.55.25h-2.29v-6.14h2.29c.36,0,1.04,0,1.51.29.56.36.69.95.69,1.31,0,.23-.04.63-.36.92-.04.05-.34.32-.7.42v.02c.93.17,1.3.85,1.3,1.5,0,.72-.42,1.21-.9,1.45Zm-1.58-9.86c-8.22,0-14.88-6.66-14.88-14.88s6.66-14.88,14.88-14.88,14.88,6.66,14.88,14.88-6.66,14.88-14.88,14.88Z"/>
  <path d="m148.29,302.15h-.99v-8.87c0-1.29-1.05-2.34-2.34-2.34h-1.42c-1.84,0-3.33-1.49-3.33-3.33v-11.03h.99v11.03c0,1.29,1.05,2.34,2.34,2.34h1.42c1.84,0,3.33,1.49,3.33,3.33v8.87Z"/>
  <rect x="90.05" y="133.4" width="16.15" height=".99"/>
  <path d="m213.75,302.19h-.99v-8.87c0-1.83,1.49-3.33,3.33-3.34h2.79c1.29-.02,2.34-1.07,2.34-2.36v-11.03h.99v11.03c0,1.84-1.49,3.34-3.33,3.34h-2.79c-1.29.02-2.34,1.07-2.34,2.36v8.87Z"/>
  <path d="m82.58,261.82h-.99v-8.87c0-1.83,1.49-3.33,3.33-3.34h3.49c1.29-.02,2.34-1.08,2.34-2.37v-6.45h.99v6.45c0,1.83-1.49,3.33-3.33,3.34h-3.49c-1.29.02-2.34,1.08-2.34,2.37v8.87Z"/>
  <path d="m52.41,261.82h-.99v-11.23h-.18c-.42-.03-.76-.38-.76-.8v-9h.99v8.81h.18c.42.03.76.38.76.8v11.42Z"/>
  <rect x="95.16" y="77.47" width="1" height="5.96"/>
  <path d="m89.33,78.5h2.46v1.12h-2.46v-1.12Z"/>
  <path d="m100.21,79.61h-1.69v-1.1h1.69v-1.72h1.14v1.72h1.69v1.1h-1.69v1.72h-1.14v-1.72Z"/>
  <rect x="88.41" y="35.27" width="1" height="5.96"/>
  <path d="m82.58,36.3h2.46v1.12h-2.46v-1.12Z"/>
  <path d="m93.45,37.41h-1.69v-1.1h1.69v-1.72h1.14v1.72h1.69v1.1h-1.69v1.72h-1.14v-1.72Z"/>
  <rect x="83.1" y="171.1" width="1" height="5.96"/>
  <path d="m77.27,172.12h2.46v1.12h-2.46v-1.12Z"/>
  <path d="m88.14,173.23h-1.69v-1.1h1.69v-1.72h1.14v1.72h1.69v1.1h-1.69v1.72h-1.14v-1.72Z"/>
  <rect x="50.56" y="214.5" width="1" height="5.5"/>
  <path d="m44.73,215.53h2.46v1.12h-2.46v-1.12Z"/>
  <path d="m55.6,216.64h-1.69v-1.1h1.69v-1.72h1.14v1.72h1.69v1.1h-1.69v1.72h-1.14v-1.72Z"/>
  <rect x="140.28" y="244.86" width="1" height="10.57"/>
  <path d="m134.45,245.89h2.46v1.12h-2.46v-1.12Z"/>
  <path d="m145.32,247h-1.69v-1.1h1.69v-1.72h1.14v1.72h1.69v1.1h-1.69v1.72h-1.14v-1.72Z"/>
  <rect x="180.79" y="244.86" width="1" height="10.57"/>
  <path d="m174.96,245.89h2.46v1.12h-2.46v-1.12Z"/>
  <path d="m185.83,247h-1.69v-1.1h1.69v-1.72h1.14v1.72h1.69v1.1h-1.69v1.72h-1.14v-1.72Z"/>
  <rect x="221.3" y="244.86" width="1" height="10.57"/>
  <path d="m215.46,245.89h2.46v1.12h-2.46v-1.12Z"/>
  <path d="m226.34,247h-1.69v-1.1h1.69v-1.72h1.14v1.72h1.69v1.1h-1.69v1.72h-1.14v-1.72Z"/>
  <path d="m123.17,91.36c5.05,0,9.14,4.09,9.14,9.14s-4.09,9.14-9.14,9.14-9.14-4.09-9.14-9.14,4.09-9.14,9.14-9.14m0-2.83c-6.6,0-11.98,5.37-11.98,11.98s5.37,11.98,11.98,11.98,11.98-5.37,11.98-11.98-5.37-11.98-11.98-11.98h0Z"/>
  <path d="m138.08,194.18c5.05,0,9.14,4.09,9.14,9.14s-4.09,9.14-9.14,9.14-9.14-4.09-9.14-9.14,4.09-9.14,9.14-9.14m0-2.83c-6.6,0-11.98,5.37-11.98,11.98s5.37,11.98,11.98,11.98,11.98-5.37,11.98-11.98-5.37-11.98-11.98-11.98h0Z"/>
  <path d="m116.2,85.56h.71v.42c0,.34.13.55.41.55.38,0,.47-.25.47-.59,0-.43-.02-.57-.76-1.3-.45-.45-.83-.86-.83-1.56,0-.83.39-1.2,1.16-1.2.38,0,.66.13.83.28.12.11.21.29.21.65v.48h-.67v-.4c0-.29-.12-.46-.4-.46-.29,0-.42.16-.42.56,0,.35.07.56.72,1.24.69.72.82.97.82,1.59,0,.8-.31,1.26-1.15,1.26-.65,0-1.1-.28-1.1-.91v-.61Z"/>
  <path d="m118.9,81.93h1.93v.59h-1.22v1.6h1.15v.59h-1.15v1.73h1.22v.59h-1.93v-5.11Z"/>
  <path d="m121.13,81.93h.71v4.52h1.19v.59h-1.9v-5.11Z"/>
  <path d="m123.36,81.93h1.93v.59h-1.22v1.6h1.15v.59h-1.15v1.73h1.22v.59h-1.93v-5.11Z"/>
  <path d="m125.52,83.23c0-.72.23-1.35,1.2-1.35.7,0,1.03.35,1.03.93v.51h-.67v-.35c0-.33-.11-.53-.41-.53-.37,0-.44.26-.44.88v2.51c0,.6.19.71.42.71.26,0,.43-.18.43-.61v-.35h.67v.57c0,.54-.22.95-1.04.95-.89,0-1.18-.47-1.18-1.27v-2.58Z"/>
  <path d="m127.87,81.93h2.41v.59h-.85v4.52h-.71v-4.52h-.85v-.59Z"/>
  <path d="m53.51,81.84h1.13l.65,3.89h.01l.65-3.89h1.1v5.11h-.67v-4.6h-.01l-.72,4.6h-.71l-.79-4.6h-.01v4.6h-.62v-5.11Z"/>
  <path d="m57.56,83.14c0-.72.23-1.35,1.2-1.35.91,0,1.2.47,1.2,1.27v2.58c0,.71-.23,1.35-1.2,1.35-.91,0-1.2-.47-1.2-1.27v-2.58Zm.71,2.63c0,.44.2.67.49.67s.5-.23.5-.67v-2.68c0-.5-.17-.74-.5-.74s-.49.23-.49.74v2.68Z"/>
  <path d="m60.46,81.84h1.14c1.15,0,1.24.38,1.24,1.87v1.52c0,1.31-.23,1.72-1.35,1.72h-1.03v-5.11Zm.71,4.52h.34c.52,0,.62-.28.62-1.15v-1.76c0-.76-.08-1.01-.68-1.01h-.28v3.92Z"/>
  <path d="m63.34,81.84h1.93v.59h-1.22v1.6h1.15v.59h-1.15v1.73h1.22v.59h-1.93v-5.11Z"/>
  <path d="m122.39,164.96h.71v4.52h1.19v.59h-1.9v-5.11Z"/>
  <path d="m124.6,164.96h.71v5.11h-.71v-5.11Z"/>
  <path d="m125.81,164.96h.98l.84,4.25h.01v-4.25h.67v5.11h-1.02l-.84-4.36h-.01v4.36h-.62v-5.11Z"/>
  <path d="m128.83,164.96h.71v2.33h.01l1.12-2.33h.71l-1.19,2.4,1.27,2.71h-.79l-1.12-2.56h-.01v2.56h-.71v-5.11Z"/>
  <path d="m109.73,215.61h1.13l.65,3.89h.01l.65-3.89h1.1v5.11h-.67v-4.6h-.01l-.72,4.6h-.71l-.79-4.6h-.01v4.6h-.62v-5.11Z"/>
  <path d="m113.78,216.92c0-.71.23-1.34,1.2-1.34.91,0,1.2.47,1.2,1.27v2.58c0,.71-.23,1.34-1.2,1.34-.91,0-1.2-.47-1.2-1.27v-2.58Zm.71,2.63c0,.44.2.67.49.67s.5-.23.5-.67v-2.68c0-.5-.17-.74-.5-.74s-.49.23-.49.74v2.68Z"/>
  <path d="m116.68,215.61h1.14c1.15,0,1.24.38,1.24,1.87v1.52c0,1.31-.23,1.72-1.35,1.72h-1.03v-5.11Zm.71,4.52h.34c.52,0,.62-.28.62-1.15v-1.76c0-.76-.08-1.01-.68-1.01h-.28v3.92Z"/>
  <path d="m119.57,215.61h1.93v.59h-1.22v1.6h1.15v.59h-1.15v1.73h1.22v.59h-1.93v-5.11Z"/>
  <path d="m77.96,201.05h2.31v.71h-1.46v1.92h1.38v.71h-1.38v2.79h-.85v-6.14Z"/>
  <path d="m80.64,201.05h1.32c1.24,0,1.37.33,1.37,1.67,0,.82-.11,1.18-.81,1.39v.02c.58.06.77.36.77.94v1.33c0,.22,0,.53.05.78h-.8c-.08-.15-.1-.31-.1-.55v-1.39c0-.58-.1-.73-.66-.73h-.29v2.67h-.85v-6.14Zm.85,2.75h.22c.67,0,.77-.13.77-1.05s-.05-.99-.58-.99h-.41v2.04Z"/>
  <path d="m83.95,201.05h2.31v.71h-1.46v1.92h1.38v.71h-1.38v2.07h1.46v.71h-2.31v-6.14Z"/>
  <path d="m86.6,202.61c0-.86.28-1.61,1.44-1.61s1.45.57,1.45,1.52v2.9c0,.51-.14,1-.36,1.24l.02.02c.15-.08.43-.1.8-.1v.61c-.64,0-1.53.05-1.9.05-1.09,0-1.44-.57-1.44-1.52v-3.1Zm.85,3.15c0,.53.24.81.59.81s.6-.28.6-.81v-3.22c0-.6-.2-.88-.6-.88s-.59.28-.59.88v3.22Z"/>
  <path d="m83.08,65.25h2.31v.71h-1.46v1.92h1.38v.71h-1.38v2.79h-.85v-6.14Z"/>
  <path d="m85.76,65.25h1.32c1.24,0,1.37.33,1.37,1.67,0,.82-.11,1.18-.81,1.39v.02c.58.06.77.36.77.94v1.33c0,.22,0,.53.05.78h-.8c-.08-.15-.1-.31-.1-.55v-1.39c0-.58-.1-.73-.66-.73h-.29v2.67h-.85v-6.14Zm.85,2.75h.22c.67,0,.77-.13.77-1.05s-.05-.99-.58-.99h-.41v2.04Z"/>
  <path d="m89.06,65.25h2.31v.71h-1.46v1.92h1.38v.71h-1.38v2.07h1.46v.71h-2.31v-6.14Z"/>
  <path d="m91.72,66.81c0-.86.28-1.61,1.44-1.61s1.45.57,1.45,1.52v2.9c0,.51-.14,1-.36,1.24l.02.02c.15-.08.43-.1.8-.1v.61c-.64,0-1.53.05-1.9.05-1.09,0-1.44-.57-1.44-1.52v-3.1Zm.85,3.15c0,.53.24.81.59.81s.6-.28.6-.81v-3.22c0-.6-.2-.88-.6-.88s-.59.28-.59.88v3.22Z"/>
  <path d="m131.11,220.42h.71v.42c0,.34.13.55.41.55.38,0,.47-.25.47-.59,0-.43-.02-.57-.76-1.3-.45-.45-.83-.86-.83-1.56,0-.83.39-1.2,1.16-1.2.38,0,.66.13.83.28.12.11.21.29.21.65v.48h-.67v-.4c0-.29-.12-.46-.4-.46-.29,0-.42.16-.42.56,0,.35.07.56.72,1.24.69.72.82.97.82,1.59,0,.8-.31,1.26-1.15,1.26-.65,0-1.1-.28-1.1-.91v-.61Z"/>
  <path d="m133.81,216.79h1.93v.59h-1.22v1.6h1.15v.59h-1.15v1.73h1.22v.59h-1.93v-5.11Z"/>
  <path d="m136.04,216.79h.71v4.52h1.19v.59h-1.9v-5.11Z"/>
  <path d="m138.27,216.79h1.93v.59h-1.22v1.6h1.15v.59h-1.15v1.73h1.22v.59h-1.93v-5.11Z"/>
  <path d="m140.43,218.09c0-.71.23-1.34,1.2-1.34.7,0,1.03.35,1.03.93v.51h-.67v-.35c0-.33-.11-.53-.41-.53-.37,0-.44.26-.44.88v2.51c0,.6.19.71.42.71.26,0,.43-.18.43-.61v-.35h.67v.57c0,.54-.22.95-1.04.95-.89,0-1.18-.47-1.18-1.27v-2.58Z"/>
  <path d="m142.78,216.79h2.41v.59h-.85v4.52h-.71v-4.52h-.85v-.59Z"/>
  <path d="m61.63,134.56h-2.69v-.99h2.69c1.21,0,2.19-1.05,2.19-2.34v-14.98c0-1.84,1.49-3.33,3.33-3.33h25.59c1.29,0,2.34-1.05,2.34-2.34v-6.01h.99v6.01c0,1.84-1.49,3.33-3.33,3.33h-25.59c-1.29,0-2.34,1.05-2.34,2.34v14.98c0,1.84-1.43,3.33-3.19,3.33Z"/>
  <path d="m65.05,39.48l4.54-16.37h4.51l4.44,16.37h-3.61l-.91-3.63h-4.67l-.93,3.63h-3.38Zm6.6-13.22h-.05l-1.56,7.07h3.27l-1.66-7.07Z"/>
  <path d="m58.79,174.95v-16.37h6.08c2.61,0,4.76.75,4.76,4.24,0,1.88-.93,3.24-2.79,3.6v.05c2.43.34,3.06,1.9,3.06,4.15,0,4.15-3.61,4.33-5.06,4.33h-6.05Zm3.42-9.68h2.29c.75,0,1.79-.5,1.79-2.09,0-1.2-.82-2.09-1.97-2.09h-2.11v4.17Zm0,7.17h1.9c.73,0,2.36-.02,2.36-2.31,0-1.45-.54-2.34-2.27-2.34h-2v4.65Z"/>
  <path d="m58.78,187.63c0-15.6-12.29-28.32-27.72-29.02v-.03H0v58.11h31.07v-.03c15.42-.7,27.72-13.42,27.72-29.02Z"/>
  <path d="m36.09,23.01H0v58.11h36.09c16.05,0,29.06-13.01,29.06-29.06s-13.01-29.06-29.06-29.06Z"/>
  <path d="m216.68,77.36v.03c-.15,0-.29-.01-.44-.01-12.52,0-22.68,10.15-22.68,22.66s10.15,22.66,22.68,22.66c.15,0,.29,0,.44-.01v.03h27.1v-45.35h-27.1Z"/>
  <path d="m243.5.28v363.69H.28V.28h243.21m.28-.28H0v364.25h243.78V0h0Z"/>
</svg>